<svg xmlns="http://www.w3.org/2000/svg" xmlns:xlink="http://www.w3.org/1999/xlink" viewBox="0 0 128 128"><path fill="#444b54" d="M64 33A20 20 0 1 0 64 73A20 20 0 1 0 64 33Z"/><path fill="#444b54" d="M64 76c-12.7 0-23-10.3-23-23s10.3-23 23-23 23 10.3 23 23S76.7 76 64 76zM64 36c-9.4 0-17 7.6-17 17s7.6 17 17 17 17-7.6 17-17S73.4 36 64 36zM43.6 84h40.8c9.2 0 17.2 6.2 19.4 15.1L110 124H24.4c-3.3 0-5.6-3.1-4.9-6.2l4.7-18.7C26.4 90.2 34.4 84 43.6 84z"/><path fill="#fff" d="M30.5,124h-20c0-5.5,4.5-10,10-10S30.5,118.5,30.5,124z"/><path fill="#444b54" d="M10.5,127c-1.7,0-3-1.3-3-3c0-4.3,2.1-8.4,5.7-10.8c1.4-0.9,3.2-0.6,4.2,0.8c0.9,1.4,0.6,3.2-0.8,4.2 c-1.9,1.3-3.1,3.5-3.1,5.8C13.5,125.7,12.2,127,10.5,127z"/><path fill="#fff" d="M104,107.6H24c-2.8,0-5-2.2-5-5V47.3c0-2.8,2.2-5,5-5h80c2.8,0,5,2.2,5,5v55.4 C109,105.4,106.8,107.6,104,107.6z"/><path fill="#444b54" d="M75.4,74.4L56,103.7c0,2.3,1.8,4.1,4.1,4.1H104c2.8,0,5-2.2,5-5v-4.6l0,0c-13.8,0-26.3-7.9-32.4-20.2 C76,76.9,75.6,75.7,75.4,74.4L75.4,74.4z"/><path fill="#444b54" d="M104.9,110.6H77.6c-1.7,0-3-1.3-3-3s1.3-3,3-3h27.3c0.6,0,1.1-0.5,1.1-1.1V46.4 c0-0.6-0.5-1.1-1.1-1.1H23.1c-0.6,0-1.1,0.5-1.1,1.1v57.2c0,0.6,0.5,1.1,1.1,1.1h27.2c1.7,0,3,1.3,3,3s-1.3,3-3,3H23.1 c-3.9,0-7.1-3.2-7.1-7.1V46.4c0-3.9,3.2-7.1,7.1-7.1h81.8c3.9,0,7.1,3.2,7.1,7.1v57.2C112,107.5,108.8,110.6,104.9,110.6z"/><path fill="#fff" d="M72.2,72.5H60c-2.4,0-4.5,1.8-4.8,4.1l-6.7,42.6c-0.4,2.5,1.5,4.8,4,4.8h23.1c2.5,0,4.5-2.3,4-4.8 L72.2,72.5z M64,107c-2.8,0-5-2.2-5-5s2.2-5,5-5c2.8,0,5,2.2,5,5S66.8,107,64,107z"/><path fill="#fff" d="M55.5,93c-0.2,0-0.3,0-0.5,0c-1.6-0.3-2.8-1.8-2.5-3.4l2.1-13.1c0.4-2.7,2.7-4.6,5.4-4.6h1.6 c1.7,0,3,1.3,3,3s-1.3,3-3,3h-1.2l-2,12.6C58.3,92,57,93,55.5,93z"/><path fill="#444b54" d="M107 121H82.4c.1-.8.1-1.5 0-2.3l-7-44.3c-.2-1.6-1.8-2.8-3.4-2.5-1.6.2-2.8 1.8-2.5 3.4l7 44.4c.1.4-.1.7-.2.9-.1.2-.4.4-.8.4H52c-.2-.1-.4-.2-.4-.3-.1-.1-.3-.4-.2-.9l2.8-17.6c.3-1.6-.9-3.1-2.5-3.4s-3.1.9-3.4 2.5l-2.8 17.5c-.1.7-.1 1.5 0 2.2h-18c-1.7 0-3 1.3-3 3s1.3 3 3 3H107c1.7 0 3-1.3 3-3S108.7 121 107 121zM124 127c-.2 0-.4 0-.6-.1-.2 0-.4-.1-.6-.2s-.3-.2-.5-.3c-.2-.1-.3-.2-.5-.4-.6-.6-.9-1.3-.9-2.1s.3-1.6.9-2.1c1.1-1.1 3.1-1.1 4.2 0 .6.6.9 1.3.9 2.1s-.3 1.6-.9 2.1C125.6 126.7 124.8 127 124 127z"/></svg>