<svg xmlns="http://www.w3.org/2000/svg" xmlns:xlink="http://www.w3.org/1999/xlink" viewBox="0 0 48 48"><radialGradient id="ShTVoCSGRet6CGU9rMM59a" cx="24.371" cy="3.5" r="16.526" gradientTransform="matrix(1 0 0 -1 0 48)" gradientUnits="userSpaceOnUse"><stop offset="0" stop-color="#666"/><stop offset=".999" stop-color="#333"/></radialGradient><path fill="url(#ShTVoCSGRet6CGU9rMM59a)" d="M43,46c0,0,0.054-9.133-6.089-10.749C33.774,34.426,24.018,32,24.001,32s-9.774,2.426-12.91,3.251C4.947,36.867,5,46,5,46H43z"/><linearGradient id="ShTVoCSGRet6CGU9rMM59b" x1="24.136" x2="23.947" y1="2.937" y2="15.339" gradientTransform="matrix(1 0 0 -1 0 48)" gradientUnits="userSpaceOnUse"><stop offset="0" stop-color="#666"/><stop offset=".554" stop-color="#4a4a4a"/><stop offset=".999" stop-color="#333"/></linearGradient><path fill="url(#ShTVoCSGRet6CGU9rMM59b)" d="M23.529,40.994c-1.734-2.157-3.748-4.93-5.931-7.346c-0.38-0.748,0.058-1.992,1.477-2.126c3.237-0.335,6.628-0.46,9.749,0.023c1.472,0.298,1.862,1.581,1.477,2.121c-1.833,2.022-4.048,4.912-5.819,7.322C24.259,41.34,23.757,41.342,23.529,40.994z"/><linearGradient id="ShTVoCSGRet6CGU9rMM59c" x1="23.937" x2="23.937" y1="7.894" y2="12.346" gradientTransform="matrix(1 0 0 -1 0 48)" gradientUnits="userSpaceOnUse"><stop offset="0" stop-color="#fdd02d"/><stop offset=".999" stop-color="#cf941d"/></linearGradient><path fill="url(#ShTVoCSGRet6CGU9rMM59c)" d="M24,41L24,41l-5.156-7.75c-1.141-1.531,11.266-1.484,10.195,0.024L24,41z"/><radialGradient id="ShTVoCSGRet6CGU9rMM59d" cx="23.295" cy="3.33" r="15.162" gradientTransform="matrix(1 0 0 -.9922 0 47.921)" gradientUnits="userSpaceOnUse"><stop offset="0" stop-color="#666"/><stop offset=".999" stop-color="#333"/></radialGradient><path fill="url(#ShTVoCSGRet6CGU9rMM59d)" d="M9.082,38.512c-0.008,1.172-0.029,2.389,0.018,3.634c0.046,1.244,0.158,2.514,0.416,3.791 h1.055h1.055c-0.386-1.248-0.709-2.412-0.972-3.614c-0.262-1.203-0.464-2.444-0.607-3.848C9.981,37.565,9.094,37.608,9.082,38.512z"/><radialGradient id="ShTVoCSGRet6CGU9rMM59e" cx="22.376" cy="3.293" r="14.119" gradientTransform="matrix(1 0 0 -.9922 0 47.921)" gradientUnits="userSpaceOnUse"><stop offset="0" stop-color="#5f5f5f"/><stop offset=".999" stop-color="#333"/></radialGradient><path fill="url(#ShTVoCSGRet6CGU9rMM59e)" d="M9.14,38.606c-0.003,1.168-0.014,2.37,0.039,3.596c0.05,1.192,0.161,2.405,0.404,3.629 c0.006,0.035,0.917,0.07,0.924,0.106h0.504h0.504c-0.216-0.7-0.41-1.373-0.583-2.041c-0.126-0.487-0.24-0.971-0.344-1.463 c-0.034-0.16-0.067-0.321-0.098-0.483c-0.132-0.674-0.245-1.365-0.341-2.096c-0.049-0.373-0.094-0.757-0.134-1.153 c-0.042-0.567-0.402-0.766-0.639-0.622C9.263,38.132,9.141,38.314,9.14,38.606z"/><radialGradient id="ShTVoCSGRet6CGU9rMM59f" cx="21.482" cy="3.259" r="13.11" gradientTransform="matrix(1 0 0 -.9922 0 47.921)" gradientUnits="userSpaceOnUse"><stop offset="0" stop-color="#575757"/><stop offset=".999" stop-color="#333"/></radialGradient><path fill="url(#ShTVoCSGRet6CGU9rMM59f)" d="M9.199,38.7c0.003,1.165,0,2.352,0.059,3.558c0.054,1.138,0.164,2.296,0.392,3.466 c0.012,0.07,0.779,0.142,0.793,0.213h0.481h0.481c-0.209-0.677-0.394-1.329-0.557-1.975c-0.119-0.472-0.227-0.943-0.324-1.419 c-0.032-0.157-0.063-0.314-0.093-0.471c-0.124-0.654-0.229-1.324-0.319-2.03c-0.046-0.36-0.089-0.73-0.127-1.113 c-0.04-0.523-0.345-0.74-0.548-0.674C9.341,38.254,9.197,38.413,9.199,38.7z"/><radialGradient id="ShTVoCSGRet6CGU9rMM59g" cx="20.603" cy="3.231" r="12.12" gradientTransform="matrix(1 0 0 -.9922 0 47.921)" gradientUnits="userSpaceOnUse"><stop offset="0" stop-color="#505050"/><stop offset=".999" stop-color="#333"/></radialGradient><path fill="url(#ShTVoCSGRet6CGU9rMM59g)" d="M9.257,38.793c0.008,1.161,0.014,2.333,0.08,3.52c0.057,1.086,0.166,2.188,0.38,3.302 c0.018,0.106,0.641,0.212,0.662,0.319h0.458h0.458c-0.202-0.654-0.378-1.284-0.532-1.909c-0.113-0.458-0.214-0.914-0.305-1.374 c-0.03-0.153-0.059-0.306-0.087-0.459c-0.115-0.634-0.213-1.282-0.298-1.965c-0.043-0.348-0.083-0.704-0.121-1.073 c-0.038-0.478-0.288-0.715-0.457-0.725C9.42,38.375,9.252,38.514,9.257,38.793z"/><radialGradient id="ShTVoCSGRet6CGU9rMM59h" cx="19.724" cy="3.207" r="11.133" gradientTransform="matrix(1 0 0 -.9922 0 47.921)" gradientUnits="userSpaceOnUse"><stop offset="0" stop-color="#494949"/><stop offset=".999" stop-color="#333"/></radialGradient><path fill="url(#ShTVoCSGRet6CGU9rMM59h)" d="M9.316,38.888c0.014,1.157,0.029,2.314,0.101,3.484c0.061,1.033,0.169,2.079,0.368,3.139 c0.024,0.141,0.503,0.283,0.532,0.426h0.435h0.435c-0.195-0.631-0.362-1.239-0.507-1.843c-0.106-0.444-0.201-0.885-0.285-1.331 c-0.028-0.149-0.055-0.298-0.081-0.448c-0.107-0.614-0.197-1.241-0.276-1.899c-0.041-0.335-0.078-0.679-0.114-1.033 c-0.036-0.435-0.232-0.69-0.366-0.777C9.499,38.496,9.308,38.613,9.316,38.888z"/><radialGradient id="ShTVoCSGRet6CGU9rMM59i" cx="18.846" cy="3.184" r="10.147" gradientTransform="matrix(1 0 0 -.9922 0 47.921)" gradientUnits="userSpaceOnUse"><stop offset="0" stop-color="#424242"/><stop offset=".999" stop-color="#333"/></radialGradient><path fill="url(#ShTVoCSGRet6CGU9rMM59i)" d="M9.374,38.982c0.019,1.154,0.043,2.294,0.122,3.446c0.065,0.98,0.171,1.97,0.355,2.977 c0.03,0.177,0.365,0.353,0.401,0.532h0.411h0.411c-0.188-0.608-0.346-1.195-0.482-1.776c-0.1-0.43-0.187-0.856-0.265-1.287 c-0.026-0.145-0.051-0.291-0.075-0.437c-0.098-0.594-0.181-1.2-0.255-1.834c-0.038-0.322-0.073-0.653-0.108-0.992 c-0.034-0.391-0.175-0.664-0.276-0.829C9.577,38.617,9.363,38.712,9.374,38.982z"/><radialGradient id="ShTVoCSGRet6CGU9rMM59j" cx="17.967" cy="3.163" r="9.163" gradientTransform="matrix(1 0 0 -.9922 0 47.921)" gradientUnits="userSpaceOnUse"><stop offset="0" stop-color="#3a3a3a"/><stop offset=".999" stop-color="#333"/></radialGradient><path fill="url(#ShTVoCSGRet6CGU9rMM59j)" d="M9.433,39.075c0.025,1.15,0.057,2.275,0.143,3.408c0.069,0.928,0.174,1.86,0.343,2.814 c0.036,0.211,0.227,0.425,0.27,0.639h0.388h0.388c-0.181-0.585-0.33-1.15-0.456-1.71c-0.093-0.415-0.174-0.828-0.246-1.242 c-0.024-0.141-0.047-0.283-0.07-0.425c-0.09-0.575-0.165-1.158-0.233-1.768c-0.035-0.31-0.068-0.627-0.101-0.953 c-0.032-0.346-0.118-0.638-0.185-0.88C9.656,38.738,9.418,38.811,9.433,39.075z"/><path fill="#333" d="M9.491,39.169c0.03,1.147,0.072,2.256,0.164,3.371s0.236,2.233,0.47,3.396h0.365h0.365 c-0.174-0.563-0.314-1.105-0.431-1.643c-0.117-0.538-0.21-1.071-0.29-1.611c-0.081-0.554-0.148-1.117-0.212-1.703 C9.86,40.392,9.8,39.783,9.735,39.135C9.735,38.859,9.474,38.91,9.491,39.169z"/><radialGradient id="ShTVoCSGRet6CGU9rMM59k" cx="-224.893" cy="3.33" r="15.162" gradientTransform="rotate(180 -99.996 24)" gradientUnits="userSpaceOnUse"><stop offset="0" stop-color="#666"/><stop offset=".999" stop-color="#333"/></radialGradient><path fill="url(#ShTVoCSGRet6CGU9rMM59k)" d="M39.113,38.517c0.017,2.362,0.081,4.909-0.434,7.483H36.57 c0.772-2.516,1.293-4.69,1.579-7.521C38.214,37.563,39.101,37.606,39.113,38.517z"/><radialGradient id="ShTVoCSGRet6CGU9rMM59l" cx="-276.138" cy="3.303" r="19.7" gradientTransform="matrix(-.7143 0 0 -1 -171.422 48)" gradientUnits="userSpaceOnUse"><stop offset="0" stop-color="#5f5f5f"/><stop offset=".999" stop-color="#333"/></radialGradient><path fill="url(#ShTVoCSGRet6CGU9rMM59l)" d="M39.055,38.612c0.006,2.355,0.046,4.847-0.463,7.388H36.68 c0.762-2.485,1.231-4.63,1.513-7.426C38.249,37.749,39.047,37.794,39.055,38.612z"/><radialGradient id="ShTVoCSGRet6CGU9rMM59m" cx="-395.651" cy="3.276" r="30.398" gradientTransform="matrix(-.4286 0 0 -1 -142.852 48)" gradientUnits="userSpaceOnUse"><stop offset="0" stop-color="#575757"/><stop offset=".999" stop-color="#333"/></radialGradient><path fill="url(#ShTVoCSGRet6CGU9rMM59m)" d="M38.996,38.707c-0.005,2.347,0.011,4.785-0.491,7.293H36.79 c0.753-2.453,1.169-4.571,1.448-7.33C38.284,37.935,38.993,37.981,38.996,38.707z"/><radialGradient id="ShTVoCSGRet6CGU9rMM59n" cx="-993.115" cy="3.25" r="84.122" gradientTransform="matrix(-.1429 0 0 -1 -114.281 48)" gradientUnits="userSpaceOnUse"><stop offset="0" stop-color="#505050"/><stop offset=".999" stop-color="#333"/></radialGradient><path fill="url(#ShTVoCSGRet6CGU9rMM59n)" d="M38.938,38.801c-0.016,2.34-0.025,4.723-0.52,7.199H36.9 c0.743-2.421,1.107-4.512,1.382-7.235C38.319,38.122,38.938,38.169,38.938,38.801z"/><radialGradient id="ShTVoCSGRet6CGU9rMM59o" cx="931.9" cy="3.223" r="77.171" gradientTransform="matrix(.1429 0 0 -1 -85.711 48)" gradientUnits="userSpaceOnUse"><stop offset="0" stop-color="#494949"/><stop offset=".999" stop-color="#333"/></radialGradient><path fill="url(#ShTVoCSGRet6CGU9rMM59o)" d="M38.879,38.896c-0.027,2.333-0.06,4.661-0.548,7.104H37.01 c0.733-2.389,1.046-4.453,1.317-7.14C38.355,38.308,38.884,38.356,38.879,38.896z"/><radialGradient id="ShTVoCSGRet6CGU9rMM59p" cx="242.039" cy="3.197" r="23.453" gradientTransform="matrix(.4286 0 0 -1 -57.14 48)" gradientUnits="userSpaceOnUse"><stop offset="0" stop-color="#424242"/><stop offset=".999" stop-color="#333"/></radialGradient><path fill="url(#ShTVoCSGRet6CGU9rMM59p)" d="M38.821,38.991c-0.039,2.326-0.095,4.599-0.577,7.009H37.12 c0.723-2.357,0.984-4.393,1.252-7.045C38.39,38.494,38.83,38.544,38.821,38.991z"/><radialGradient id="ShTVoCSGRet6CGU9rMM59q" cx="104.067" cy="3.17" r="12.742" gradientTransform="matrix(.7143 0 0 -1 -28.57 48)" gradientUnits="userSpaceOnUse"><stop offset="0" stop-color="#3a3a3a"/><stop offset=".999" stop-color="#333"/></radialGradient><path fill="url(#ShTVoCSGRet6CGU9rMM59q)" d="M38.762,39.085c-0.05,2.318-0.13,4.537-0.606,6.915H37.23 c0.714-2.326,0.922-4.334,1.186-6.95C38.425,38.681,38.775,38.732,38.762,39.085z"/><path fill="#333" d="M38.704,39.18c-0.061,2.311-0.165,4.474-0.634,6.82h-0.73c0.704-2.294,0.86-4.275,1.121-6.855 C38.46,38.867,38.721,38.919,38.704,39.18z"/><radialGradient id="ShTVoCSGRet6CGU9rMM59r" cx="-579.09" cy="1.987" r="1.867" gradientTransform="matrix(-.8764 .1748 -.3931 -2.1652 -494.657 127.816)" gradientUnits="userSpaceOnUse"><stop offset="0" stop-color="#ffe16e"/><stop offset=".461" stop-color="#ffd226"/><stop offset=".741" stop-color="#f8c21d"/><stop offset=".999" stop-color="#f0af13"/></radialGradient><path fill="url(#ShTVoCSGRet6CGU9rMM59r)" d="M12.66,19.601c-0.759-0.243-2.592-0.088-2.656,2.142c-0.06,2.109,0.464,3.07,1.159,3.976c0.78,1.016,2.183,1.008,2.067,0.201C13.115,25.113,12.66,19.601,12.66,19.601z"/><radialGradient id="ShTVoCSGRet6CGU9rMM59s" cx="-148.964" cy="1.987" r="1.867" gradientTransform="matrix(.829 .1748 .3719 -2.1652 158.783 52.645)" gradientUnits="userSpaceOnUse"><stop offset="0" stop-color="#ffe16e"/><stop offset=".461" stop-color="#ffd226"/><stop offset=".741" stop-color="#f8c21d"/><stop offset=".999" stop-color="#f0af13"/></radialGradient><path fill="url(#ShTVoCSGRet6CGU9rMM59s)" d="M35.484,19.601c0.718-0.243,2.452-0.088,2.512,2.142c0.057,2.109-0.439,3.07-1.097,3.976c-0.738,1.016-2.065,1.008-1.955,0.201C35.053,25.113,35.484,19.601,35.484,19.601z"/><radialGradient id="ShTVoCSGRet6CGU9rMM59t" cx="31.863" cy="49.693" r="14.627" fx="31.786" fy="43.427" gradientTransform="matrix(.8889 0 0 -1.0694 -4.308 73.286)" gradientUnits="userSpaceOnUse"><stop offset="0" stop-color="#ffe16e"/><stop offset=".629" stop-color="#ffd226"/><stop offset=".75" stop-color="#fdcd23"/><stop offset=".899" stop-color="#f6bd1b"/><stop offset=".999" stop-color="#f0af13"/></radialGradient><path fill="url(#ShTVoCSGRet6CGU9rMM59t)" d="M36.838,19.716c0,2.89-0.193,6.659-1.343,8.971C33.256,33.191,27.296,36,24.015,36c-3.41,0-9.305-2.809-11.544-7.313c-1.149-2.312-1.279-6.081-1.279-8.971c0-0.635,0.017-1.234,0.051-1.803c0.196-3.271,0.943-5.526,2.101-7.612c2.299-4.141,6.22-6.012,10.671-6.012c4.426,0,8.329,1.841,10.633,5.945C36.031,12.695,36.838,15.43,36.838,19.716z"/><radialGradient id="ShTVoCSGRet6CGU9rMM59u" cx="23.951" cy="37.459" r="11.216" gradientTransform="matrix(.9947 0 0 -1 .452 48)" gradientUnits="userSpaceOnUse"><stop offset="0" stop-color="#aa8765"/><stop offset=".059" stop-color="#a17c58"/><stop offset=".165" stop-color="#956d47"/><stop offset=".28" stop-color="#8e653c"/><stop offset=".418" stop-color="#8c6239"/><stop offset=".583" stop-color="#875d34"/><stop offset=".789" stop-color="#774e27"/><stop offset=".999" stop-color="#603813"/></radialGradient><path fill="url(#ShTVoCSGRet6CGU9rMM59u)" d="M11.774,20.328c0,0,0.321-3.984,0.12-5.147c0.905-0.657,3.722-2.63,3.32-5.714c1.157,0.961,7.092,5.006,16.598,1.82c2.113,2.579,2.515,2.68,4.124,3.641c0.402,1.112,0.553,4.76,0.503,5.367s0.704,1.062,1.056-0.202C37.606,19.695,38,16.346,38,14c0-5-1.547-12.643-13.884-12.747C12.14,1.152,10.062,8.979,10.062,13.979c0,3,0.725,6.215,0.725,6.215C10.925,20.951,11.611,20.984,11.774,20.328z"/><radialGradient id="ShTVoCSGRet6CGU9rMM59v" cx="23.965" cy="35.216" r="11.687" gradientTransform="matrix(.9537 -.2806 -.2791 -.9608 11.098 53.345)" gradientUnits="userSpaceOnUse"><stop offset="0" stop-color="#aa8765"/><stop offset=".145" stop-color="#a17c57"/><stop offset=".441" stop-color="#926941"/><stop offset=".629" stop-color="#8c6239"/><stop offset=".711" stop-color="#875d34"/><stop offset=".814" stop-color="#774e27"/><stop offset=".919" stop-color="#603813"/></radialGradient><path fill="url(#ShTVoCSGRet6CGU9rMM59v)" d="M37.036,13.333c-0.03-0.099-0.101-0.179-0.19-0.231c-1.459-0.859-2.662-2.693-4.568-4.989 c-0.106-0.128-0.284-0.181-0.442-0.131c-8.114,2.613-14.926,0.077-17.213-1.39C14.334,6.406,14.001,6.637,14,6.983 c-0.012,4.21-1.761,6.11-3.068,6.792c-0.155,0.081-0.228,0.237-0.235,0.412c-0.058,1.359-0.205,4.163,0.022,5.526 c0.04,0.299,0.067,0.479,0.067,0.479c0.138,0.757,0.822,0.79,0.985,0.134c0,0,0.286-3.548,0.149-4.925 c-0.014-0.142,0.051-0.28,0.165-0.364c0.95-0.695,3.026-2.316,3.154-4.741c0.017-0.324,0.362-0.521,0.63-0.341 c2.024,1.362,7.501,4.056,15.652,1.417c0.158-0.051,0.338,0.002,0.444,0.131c1.894,2.294,2.352,2.48,3.798,3.338 c0.088,0.052,0.161,0.133,0.19,0.232c0.366,1.255,0.503,4.638,0.455,5.22c-0.05,0.607,0.703,1.062,1.055-0.202 c0.014-0.051,0.035-0.153,0.06-0.295C37.696,18.917,37.413,14.59,37.036,13.333z"/><radialGradient id="ShTVoCSGRet6CGU9rMM59w" cx="24.014" cy="35.063" r="11.572" gradientTransform="matrix(.9545 -.2806 -.2794 -.9608 11.024 53.365)" gradientUnits="userSpaceOnUse"><stop offset="0" stop-color="#9f7c59"/><stop offset=".081" stop-color="#9b7652"/><stop offset=".416" stop-color="#8c633c"/><stop offset=".629" stop-color="#865c34"/><stop offset=".719" stop-color="#81572f"/><stop offset=".831" stop-color="#714822"/><stop offset=".919" stop-color="#603813"/></radialGradient><path fill="url(#ShTVoCSGRet6CGU9rMM59w)" d="M14.071,7.255c0.021,3.627-1.444,5.555-2.683,6.386c-0.151,0.101-0.29,0.203-0.411,0.289 c-0.129,0.092-0.192,0.244-0.196,0.418c-0.028,1.131-0.12,3.172-0.059,4.418c0.002,0.364-0.011,0.671-0.01,0.902 c0.003,0.02,0.006,0.041,0.009,0.06c0.039,0.291,0.065,0.467,0.065,0.467c0.138,0.757,0.822,0.79,0.985,0.134 c0,0,0.286-3.548,0.149-4.925c-0.014-0.142,0.051-0.28,0.165-0.364c0.95-0.695,3.026-2.316,3.154-4.741 c0.017-0.324,0.362-0.521,0.63-0.341c2.024,1.362,7.501,4.056,15.652,1.417c0.158-0.051,0.338,0.002,0.444,0.131 c1.894,2.294,2.352,2.48,3.798,3.338c0.088,0.052,0.161,0.133,0.19,0.232c0.366,1.255,0.503,4.638,0.455,5.22 c-0.05,0.607,0.703,1.062,1.055-0.202c0.014-0.051,0.035-0.153,0.06-0.295c-0.006-0.118-0.024-0.494-0.023-0.961 c0.003-1.478-0.243-4.386-0.547-5.401c-0.029-0.096-0.097-0.173-0.182-0.225c-0.018-0.011-0.036-0.022-0.055-0.033 c-1.438-0.87-2.555-2.454-4.441-4.725c-0.106-0.128-0.284-0.181-0.442-0.131c-8.114,2.613-14.855,0.01-17.142-1.457 C14.404,6.678,14.068,6.909,14.071,7.255z"/><radialGradient id="ShTVoCSGRet6CGU9rMM59x" cx="24.043" cy="34.91" r="11.503" gradientTransform="matrix(.9554 -.2806 -.2796 -.9608 10.945 53.38)" gradientUnits="userSpaceOnUse"><stop offset="0" stop-color="#95704e"/><stop offset=".021" stop-color="#946f4c"/><stop offset=".392" stop-color="#855d36"/><stop offset=".629" stop-color="#7f562e"/><stop offset=".731" stop-color="#7a5129"/><stop offset=".857" stop-color="#6a421c"/><stop offset=".919" stop-color="#603813"/></radialGradient><path fill="url(#ShTVoCSGRet6CGU9rMM59x)" d="M14.141,7.525c0.052,3.504-1.489,5.441-2.739,6.248c-0.152,0.098-0.281,0.21-0.382,0.309 c-0.102,0.101-0.155,0.252-0.157,0.424c-0.01,1.19-0.092,3.299-0.042,4.337c-0.013,0.364-0.069,0.647-0.109,0.831 c0.003,0.022,0.007,0.044,0.01,0.065c0.038,0.283,0.063,0.454,0.063,0.454c0.138,0.757,0.822,0.79,0.985,0.134 c0,0,0.286-3.548,0.149-4.925c-0.014-0.142,0.051-0.28,0.165-0.364c0.95-0.695,3.026-2.316,3.154-4.741 c0.017-0.324,0.362-0.521,0.63-0.341c2.024,1.362,7.501,4.056,15.652,1.417c0.158-0.051,0.338,0.002,0.444,0.131 c1.894,2.294,2.352,2.48,3.798,3.338c0.088,0.052,0.161,0.133,0.19,0.232c0.366,1.255,0.503,4.638,0.455,5.22 c-0.05,0.607,0.703,1.062,1.055-0.202c0.014-0.051,0.035-0.153,0.06-0.295c-0.049-0.038-0.102-0.42-0.097-0.886 c0.015-1.329-0.237-4.319-0.553-5.375c-0.028-0.093-0.093-0.168-0.174-0.22c-0.018-0.012-0.036-0.023-0.055-0.034 c-1.442-0.868-2.479-2.219-4.369-4.494c-0.106-0.128-0.284-0.181-0.442-0.131C23.718,11.27,17.047,8.601,14.76,7.134 C14.475,6.949,14.135,7.18,14.141,7.525z"/><radialGradient id="ShTVoCSGRet6CGU9rMM59y" cx="24.066" cy="34.757" r="11.438" gradientTransform="matrix(.9563 -.2806 -.2799 -.9608 10.87 53.392)" gradientUnits="userSpaceOnUse"><stop offset="0" stop-color="#8a6542"/><stop offset=".346" stop-color="#7f5731"/><stop offset=".629" stop-color="#795029"/><stop offset=".745" stop-color="#744b24"/><stop offset=".888" stop-color="#643c17"/><stop offset=".919" stop-color="#603813"/></radialGradient><path fill="url(#ShTVoCSGRet6CGU9rMM59y)" d="M14.212,7.796c0.092,3.381-1.533,5.328-2.794,6.109c-0.152,0.095-0.273,0.217-0.353,0.33 c-0.076,0.109-0.119,0.259-0.118,0.43c0.01,1.249-0.065,3.426-0.024,4.257c-0.028,0.363-0.127,0.622-0.208,0.76 c0.003,0.024,0.007,0.047,0.01,0.07c0.037,0.276,0.062,0.441,0.062,0.441c0.138,0.757,0.822,0.79,0.985,0.134 c0,0,0.286-3.548,0.149-4.925c-0.014-0.142,0.051-0.28,0.165-0.364c0.95-0.695,3.026-2.316,3.154-4.741 c0.017-0.324,0.362-0.521,0.63-0.341c2.024,1.362,7.501,4.056,15.652,1.417c0.158-0.051,0.338,0.002,0.444,0.131 c1.894,2.294,2.352,2.48,3.798,3.338c0.088,0.052,0.161,0.133,0.19,0.232c0.366,1.255,0.503,4.638,0.455,5.22 c-0.05,0.607,0.703,1.062,1.055-0.202c0.014-0.051,0.035-0.153,0.06-0.295c-0.093,0.041-0.181-0.347-0.171-0.811 c0.025-1.179-0.232-4.252-0.56-5.348c-0.027-0.09-0.089-0.163-0.166-0.215c-0.018-0.012-0.036-0.024-0.055-0.035 c-1.445-0.866-2.403-1.984-4.296-4.263c-0.106-0.128-0.284-0.181-0.442-0.131c-8.114,2.613-14.714-0.123-17.001-1.59 C14.545,7.22,14.202,7.451,14.212,7.796z"/><radialGradient id="ShTVoCSGRet6CGU9rMM59z" cx="24.089" cy="34.604" r="11.374" gradientTransform="matrix(.9572 -.2806 -.2802 -.9608 10.796 53.404)" gradientUnits="userSpaceOnUse"><stop offset="0" stop-color="#805a36"/><stop offset=".285" stop-color="#79512b"/><stop offset=".629" stop-color="#734a23"/><stop offset=".765" stop-color="#6e451e"/><stop offset=".919" stop-color="#603813"/></radialGradient><path fill="url(#ShTVoCSGRet6CGU9rMM59z)" d="M14.282,8.067c0.123,3.257-1.577,5.214-2.85,5.971c-0.153,0.091-0.266,0.222-0.323,0.351 c-0.051,0.115-0.082,0.267-0.079,0.436c0.03,1.308-0.038,3.554-0.007,4.177c-0.044,0.363-0.185,0.598-0.307,0.689 c0.004,0.026,0.007,0.051,0.011,0.075c0.036,0.268,0.06,0.429,0.06,0.429c0.138,0.757,0.822,0.79,0.985,0.134 c0,0,0.286-3.548,0.149-4.925c-0.014-0.142,0.051-0.28,0.165-0.364c0.95-0.695,3.026-2.316,3.154-4.741 c0.017-0.324,0.362-0.521,0.63-0.341c2.024,1.362,7.501,4.056,15.652,1.417c0.158-0.051,0.338,0.002,0.444,0.131 c1.894,2.294,2.352,2.48,3.798,3.338c0.088,0.052,0.161,0.133,0.19,0.232c0.366,1.255,0.503,4.638,0.455,5.22 c-0.05,0.607,0.703,1.062,1.055-0.202c0.014-0.051,0.035-0.153,0.06-0.295c-0.137,0.121-0.26-0.274-0.244-0.736 c0.034-1.03-0.227-4.185-0.567-5.321c-0.026-0.086-0.085-0.158-0.159-0.209c-0.018-0.012-0.036-0.024-0.055-0.035 c-1.449-0.864-2.327-1.749-4.223-4.032c-0.106-0.128-0.284-0.181-0.442-0.131C23.72,11.948,17.19,9.146,14.903,7.678 C14.616,7.491,14.269,7.722,14.282,8.067z"/><radialGradient id="ShTVoCSGRet6CGU9rMM59A" cx="24.113" cy="34.451" r="11.311" gradientTransform="matrix(.9581 -.2806 -.2804 -.9608 10.716 53.417)" gradientUnits="userSpaceOnUse"><stop offset="0" stop-color="#754f2a"/><stop offset=".151" stop-color="#724b26"/><stop offset=".629" stop-color="#6d441e"/><stop offset=".8" stop-color="#683f19"/><stop offset=".919" stop-color="#603813"/></radialGradient><path fill="url(#ShTVoCSGRet6CGU9rMM59A)" d="M14.352,8.338c0.154,3.134-1.622,5.101-2.906,5.833c-0.154,0.088-0.26,0.227-0.294,0.371 c-0.028,0.122-0.046,0.274-0.039,0.442c0.052,1.367-0.01,3.681,0.01,4.097c-0.059,0.363-0.242,0.573-0.406,0.619 c0.004,0.027,0.008,0.054,0.011,0.079c0.035,0.26,0.058,0.416,0.058,0.416c0.138,0.757,0.822,0.79,0.985,0.134 c0,0,0.286-3.548,0.149-4.925c-0.014-0.142,0.051-0.28,0.165-0.364c0.95-0.695,3.026-2.316,3.154-4.741 c0.017-0.324,0.362-0.521,0.63-0.341c2.024,1.362,7.501,4.056,15.652,1.417c0.158-0.051,0.338,0.002,0.444,0.131 c1.894,2.294,2.352,2.48,3.798,3.338c0.088,0.052,0.161,0.133,0.19,0.232c0.366,1.255,0.503,4.638,0.455,5.22 c-0.05,0.607,0.703,1.062,1.055-0.202c0.014-0.051,0.035-0.153,0.06-0.295c-0.181,0.2-0.339-0.201-0.318-0.661 c0.04-0.881-0.222-4.118-0.574-5.294c-0.025-0.083-0.081-0.153-0.151-0.204c-0.018-0.013-0.036-0.025-0.055-0.036 c-1.452-0.862-2.251-1.514-4.151-3.801c-0.106-0.128-0.284-0.181-0.442-0.131c-8.114,2.613-14.574-0.256-16.861-1.723 C14.686,7.761,14.336,7.993,14.352,8.338z"/><radialGradient id="ShTVoCSGRet6CGU9rMM59B" cx="24.136" cy="34.298" r="11.248" gradientTransform="matrix(.9589 -.2806 -.2807 -.9608 10.642 53.43)" gradientUnits="userSpaceOnUse"><stop offset="0" stop-color="#6b431f"/><stop offset=".629" stop-color="#663e18"/><stop offset=".9" stop-color="#613914"/><stop offset=".919" stop-color="#603813"/></radialGradient><path fill="url(#ShTVoCSGRet6CGU9rMM59B)" d="M14.423,8.609c0.179,3.011-1.666,4.987-2.962,5.694c-0.154,0.084-0.257,0.232-0.265,0.392 c-0.006,0.128-0.009,0.281,0,0.447c0.075,1.426,0.017,3.809,0.027,4.017c-0.075,0.363-0.3,0.549-0.505,0.548 c0.004,0.029,0.008,0.057,0.012,0.084c0.034,0.253,0.056,0.403,0.056,0.403c0.138,0.757,0.822,0.79,0.985,0.134 c0,0,0.286-3.548,0.149-4.925c-0.014-0.142,0.051-0.28,0.165-0.364c0.95-0.695,3.026-2.316,3.154-4.741 c0.017-0.324,0.362-0.521,0.63-0.341c2.024,1.362,7.501,4.056,15.652,1.417c0.158-0.051,0.338,0.002,0.444,0.131 c1.894,2.294,2.352,2.48,3.798,3.338c0.088,0.052,0.161,0.133,0.19,0.232c0.366,1.255,0.503,4.638,0.455,5.22 c-0.05,0.607,0.703,1.062,1.055-0.202c0.014-0.051,0.035-0.153,0.06-0.295c-0.225,0.28-0.42-0.128-0.392-0.586 c0.045-0.731-0.216-4.051-0.581-5.268c-0.024-0.08-0.077-0.148-0.143-0.198c-0.017-0.013-0.036-0.026-0.055-0.037 c-1.456-0.861-2.175-1.279-4.078-3.57c-0.106-0.128-0.284-0.181-0.442-0.131c-8.114,2.613-14.503-0.322-16.79-1.79 C14.756,8.032,14.401,8.264,14.423,8.609z"/><path fill="#603813" d="M37.061,19.286c0.048-0.582-0.211-3.984-0.587-5.241c-0.03-0.099-0.101-0.179-0.19-0.231 c-1.459-0.859-2.099-1.044-4.005-3.34c-0.106-0.128-0.284-0.181-0.442-0.131c-8.114,2.613-14.433-0.389-16.72-1.856 c-0.289-0.186-0.648,0.046-0.623,0.391c0.211,2.888-1.71,4.874-3.017,5.556c-0.155,0.081-0.255,0.238-0.235,0.412 c0.151,1.364,0.083,4.389,0.083,4.389c-0.09,0.362-0.358,0.525-0.604,0.477c0.04,0.299,0.067,0.479,0.067,0.479 c0.138,0.757,0.822,0.79,0.985,0.134c0,0,0.286-3.548,0.149-4.925c-0.014-0.142,0.051-0.28,0.165-0.364 c0.95-0.695,3.026-2.316,3.154-4.741c0.017-0.324,0.362-0.521,0.63-0.341c2.024,1.362,7.501,4.056,15.652,1.417 c0.158-0.051,0.338,0.002,0.444,0.131c1.894,2.294,2.352,2.48,3.798,3.338c0.088,0.052,0.161,0.133,0.19,0.232 c0.366,1.255,0.503,4.638,0.455,5.22c-0.05,0.607,0.703,1.062,1.055-0.202c0.014-0.051,0.035-0.153,0.06-0.295 C37.258,20.157,37.023,19.743,37.061,19.286z"/><path fill="#f8c327" d="M35.476,14.77c-1.437-0.855-1.739-0.982-3.607-3.249c-0.12-0.145-0.288-0.094-0.466-0.036 c-8,2.584-13.177,0.134-15.193-1.18c-0.289-0.188-0.686-0.004-0.71,0.342c-0.158,2.297-2.163,3.586-3.122,4.24 c-0.144,0.098-0.212,0.265-0.196,0.439c0.11,1.216-0.226,4.763-0.345,4.823c0.213-0.051,1.03-3.226,1.171-4.358 c0.017-0.139,0.082-0.261,0.198-0.337c0.886-0.583,2.399-1.465,2.965-3.016c0.094-0.258,0.391-0.373,0.633-0.245 c1.827,0.963,6.988,3.008,14.117,0.864c0.175-0.053,0.368,0.007,0.486,0.147c1.502,1.773,2.383,1.94,3.553,2.462 c0.103,0.046,0.193,0.13,0.24,0.232c0.61,1.315,0.305,4.539,1.245,4.854c-0.409-0.65-0.185-4.419-0.771-5.761 C35.635,14.897,35.56,14.82,35.476,14.77z"/><path fill="#deac23" d="M15.463,10.59c-0.15,2.313-2.158,3.649-3.119,4.312c-0.023,0.016-0.044,0.033-0.063,0.051 c-0.102,0.097-0.15,0.237-0.136,0.383c0.094,1.003-0.113,3.625-0.236,4.473c-0.039,0.249-0.084,0.403-0.123,0.423 c0.082-0.02,0.203-0.258,0.324-0.616c0.302-0.953,0.707-3.006,0.804-3.867c0.016-0.135,0.078-0.254,0.191-0.329 c0.877-0.586,2.393-1.514,2.964-3.12c0.092-0.258,0.352-0.384,0.569-0.324c0.063,0.017,0.147,0.037,0.232,0.081 c1.939,0.997,7.085,2.983,14.114,0.828c0.14-0.043,0.294-0.011,0.407,0.077c0.03,0.023,0.058,0.05,0.083,0.079 c1.497,1.773,2.291,1.968,3.439,2.496c0.046,0.021,0.092,0.044,0.137,0.069c0.032,0.017,0.062,0.039,0.089,0.063 c0.057,0.051,0.105,0.114,0.135,0.187c0.41,0.97,0.388,2.957,0.634,4.02c0.109,0.47,0.308,0.848,0.6,0.893 c-0.112-0.112-0.192-0.388-0.227-0.747c-0.124-1.246-0.116-3.951-0.565-5.022c-0.038-0.091-0.112-0.168-0.197-0.218 c-1.439-0.856-1.763-0.991-3.635-3.263c-0.117-0.142-0.286-0.106-0.461-0.049c-8.028,2.595-13.25,0.103-15.264-1.216 C15.873,10.066,15.485,10.249,15.463,10.59z"/><path fill="#c4951f" d="M15.426,10.534c-0.142,2.328-2.152,3.712-3.116,4.385c-0.022,0.016-0.043,0.032-0.063,0.05 c-0.104,0.095-0.153,0.234-0.139,0.379c0.1,1.04-0.12,3.842-0.222,4.548c-0.042,0.243-0.098,0.395-0.152,0.422 c0.106-0.025,0.246-0.258,0.366-0.605c0.279-0.911,0.624-3.107,0.717-4.005c0.014-0.131,0.075-0.248,0.184-0.321 c0.867-0.588,2.387-1.562,2.964-3.224c0.09-0.257,0.326-0.353,0.505-0.403c0.055-0.015,0.147-0.002,0.236,0.045 c1.876,0.992,7.132,3.157,14.339,0.908c0.143-0.044,0.299-0.009,0.412,0.086c0.029,0.024,0.056,0.051,0.081,0.081 c1.551,1.845,2.27,2.015,3.465,2.592c0.047,0.023,0.092,0.048,0.136,0.076c0.031,0.02,0.059,0.044,0.084,0.071 c0.051,0.054,0.095,0.121,0.124,0.196c0.39,1.014,0.37,3.117,0.586,4.105c0.101,0.463,0.33,0.87,0.636,0.867 c-0.138-0.088-0.239-0.365-0.267-0.72c-0.088-1.136-0.111-3.974-0.546-5.056c-0.037-0.092-0.11-0.169-0.195-0.219 c-1.441-0.856-1.787-1-3.664-3.277c-0.115-0.139-0.284-0.117-0.455-0.062c-8.055,2.605-13.323,0.073-15.335-1.253 C15.826,10.016,15.447,10.198,15.426,10.534z"/><path fill="#aa7e1b" d="M15.39,10.478c-0.134,2.344-2.147,3.775-3.114,4.457c-0.022,0.016-0.043,0.032-0.063,0.049 c-0.106,0.093-0.156,0.231-0.142,0.375c0.107,1.076-0.126,4.058-0.208,4.623c-0.044,0.238-0.111,0.386-0.18,0.421 c0.13-0.031,0.289-0.259,0.409-0.593c0.255-0.868,0.543-3.207,0.631-4.142c0.012-0.128,0.072-0.241,0.177-0.313 c0.858-0.59,2.38-1.611,2.963-3.327c0.088-0.256,0.293-0.412,0.441-0.482c0.053-0.025,0.148-0.041,0.24,0.01 c1.814,0.986,7.18,3.331,14.564,0.989c0.145-0.046,0.306-0.007,0.416,0.094c0.028,0.026,0.055,0.053,0.08,0.083 c1.606,1.916,2.249,2.059,3.49,2.687c0.047,0.024,0.093,0.052,0.134,0.084c0.029,0.023,0.056,0.049,0.078,0.078 c0.045,0.058,0.085,0.128,0.113,0.206c0.37,1.059,0.351,3.276,0.539,4.189c0.093,0.455,0.353,0.893,0.672,0.841 c-0.163-0.064-0.288-0.342-0.307-0.694c-0.055-1.025-0.107-3.996-0.528-5.09c-0.036-0.093-0.109-0.17-0.194-0.22 c-1.443-0.857-1.811-1.009-3.693-3.291c-0.112-0.136-0.283-0.129-0.45-0.075c-8.083,2.615-13.396,0.043-15.406-1.289 C15.778,9.966,15.409,10.147,15.39,10.478z"/><path fill="#906617" d="M15.353,10.421c-0.126,2.359-2.141,3.838-3.111,4.53c-0.022,0.016-0.043,0.032-0.063,0.048 c-0.108,0.09-0.16,0.227-0.145,0.371c0.113,1.113-0.132,4.274-0.194,4.698c-0.046,0.232-0.125,0.377-0.209,0.419 c0.154-0.037,0.332-0.259,0.452-0.581c0.232-0.826,0.462-3.308,0.544-4.279c0.011-0.124,0.068-0.234,0.17-0.305 c0.849-0.593,2.374-1.66,2.962-3.431c0.085-0.255,0.262-0.441,0.377-0.56c0.048-0.05,0.148-0.08,0.245-0.026 c1.753,0.978,7.228,3.506,14.789,1.07c0.147-0.047,0.312-0.005,0.421,0.102c0.027,0.027,0.054,0.055,0.078,0.085 c1.66,1.987,2.228,2.103,3.515,2.783c0.048,0.025,0.093,0.056,0.132,0.092c0.028,0.025,0.053,0.055,0.073,0.086 c0.04,0.062,0.076,0.135,0.102,0.216c0.35,1.103,0.331,3.435,0.491,4.274c0.085,0.448,0.375,0.915,0.708,0.815 c-0.189-0.039-0.337-0.318-0.346-0.668c-0.024-0.914-0.102-4.019-0.509-5.124c-0.034-0.093-0.107-0.171-0.192-0.221 c-1.445-0.858-1.835-1.018-3.722-3.305c-0.11-0.133-0.281-0.141-0.445-0.088c-8.11,2.623-13.468,0.011-15.476-1.327 C15.73,9.916,15.371,10.096,15.353,10.421z"/><path fill="#764f13" d="M15.316,10.365c-0.118,2.375-2.136,3.902-3.109,4.603c-0.022,0.016-0.043,0.032-0.063,0.048 c-0.11,0.088-0.163,0.224-0.148,0.367c0.12,1.149-0.138,4.49-0.179,4.773c-0.049,0.227-0.139,0.368-0.237,0.418 c0.178-0.043,0.375-0.26,0.494-0.57c0.209-0.784,0.382-3.409,0.458-4.416c0.009-0.121,0.065-0.228,0.164-0.297 c0.84-0.595,2.368-1.708,2.961-3.535c0.083-0.254,0.225-0.47,0.313-0.639c0.04-0.076,0.148-0.119,0.249-0.062 c1.693,0.969,7.276,3.68,15.014,1.151c0.15-0.049,0.318-0.003,0.425,0.11c0.027,0.028,0.052,0.057,0.077,0.086 c1.714,2.058,2.208,2.145,3.541,2.878c0.048,0.026,0.093,0.06,0.131,0.099c0.027,0.028,0.05,0.06,0.068,0.094 c0.035,0.066,0.066,0.141,0.09,0.225c0.33,1.147,0.31,3.595,0.443,4.359c0.077,0.441,0.398,0.937,0.745,0.789 c-0.215-0.015-0.387-0.294-0.386-0.641c0.003-0.803-0.098-4.041-0.491-5.157c-0.033-0.094-0.105-0.172-0.19-0.222 c-1.447-0.859-1.859-1.027-3.751-3.32c-0.107-0.13-0.279-0.152-0.44-0.101c-8.139,2.635-13.542-0.017-15.548-1.361 C15.683,9.865,15.333,10.045,15.316,10.365z"/><path fill="#5c380f" d="M15.28,10.309c-0.11,2.391-2.13,3.965-3.106,4.675c-0.022,0.016-0.042,0.031-0.063,0.047 c-0.112,0.086-0.166,0.221-0.151,0.363c0.126,1.185-0.145,4.706-0.165,4.848c-0.051,0.222-0.152,0.359-0.266,0.416 c0.202-0.049,0.418-0.26,0.537-0.558c0.185-0.742,0.305-3.509,0.372-4.553c0.008-0.117,0.062-0.221,0.157-0.289 c0.831-0.598,2.362-1.757,2.96-3.639c0.081-0.254,0.184-0.496,0.249-0.718c0.03-0.101,0.149-0.159,0.253-0.097 c1.634,0.959,7.324,3.854,15.238,1.231c0.152-0.05,0.324-0.002,0.43,0.118c0.026,0.029,0.051,0.059,0.076,0.088 c1.769,2.129,2.19,2.186,3.566,2.974c0.049,0.028,0.093,0.064,0.129,0.107c0.026,0.031,0.047,0.065,0.063,0.102 c0.03,0.069,0.057,0.148,0.079,0.235c0.31,1.191,0.288,3.755,0.395,4.443c0.067,0.433,0.42,0.96,0.781,0.763 c-0.24,0.009-0.439-0.271-0.426-0.615c0.027-0.692-0.093-4.064-0.473-5.191c-0.032-0.095-0.103-0.173-0.188-0.223 c-1.449-0.86-1.883-1.036-3.78-3.334c-0.105-0.127-0.278-0.164-0.434-0.114c-8.167,2.645-13.615-0.048-15.619-1.397 C15.635,9.815,15.294,9.994,15.28,10.309z"/><path fill="#42210b" d="M36.411,20.295c0.048-0.582-0.088-4.086-0.454-5.225c-0.031-0.095-0.101-0.174-0.187-0.224 c-1.451-0.861-1.907-1.045-3.808-3.348c-0.103-0.124-0.276-0.176-0.429-0.126c-8.195,2.655-13.688-0.078-15.69-1.433 c-0.256-0.173-0.587,0.005-0.6,0.315c-0.104,2.459-2.214,4.098-3.166,4.794c-0.114,0.083-0.17,0.218-0.154,0.359 c0.132,1.222-0.151,4.922-0.151,4.922c-0.054,0.216-0.166,0.35-0.294,0.415c0.227-0.054,0.461-0.261,0.58-0.546 c0.162-0.699,0.225-3.61,0.285-4.69c0.006-0.114,0.058-0.214,0.15-0.281c0.929-0.678,2.769-2.131,3.145-4.539 c0.02-0.125,0.149-0.198,0.258-0.133c1.575,0.947,7.371,4.029,15.463,1.312c0.154-0.052,0.331,0,0.434,0.126 c1.888,2.29,2.224,2.308,3.666,3.159c0.084,0.05,0.154,0.131,0.186,0.224c0.362,1.081,0.328,4.115,0.416,4.772 c0.057,0.426,0.443,0.982,0.817,0.736C36.61,20.918,36.382,20.637,36.411,20.295z"/><radialGradient id="ShTVoCSGRet6CGU9rMM59C" cx="-15.931" cy="19.305" r="1.709" gradientTransform="matrix(1.37 0 0 -1.3195 45.883 51.12)" gradientUnits="userSpaceOnUse"><stop offset=".245" stop-color="#cc9000"/><stop offset=".415" stop-color="#d09504" stop-opacity=".822"/><stop offset=".627" stop-color="#dca50f" stop-opacity=".599"/><stop offset=".851" stop-color="#eebd20" stop-opacity=".363"/><stop offset="1" stop-color="#fed12e" stop-opacity="0"/></radialGradient><path fill="url(#ShTVoCSGRet6CGU9rMM59C)" d="M24.04,26.328c-0.788,0-1.429-0.2-1.825-0.417c-0.291-0.16-0.586-0.086-0.393,0.415c0.261,0.679,0.858,1.48,2.218,1.48c1.337,0,1.936-0.773,2.204-1.445c0.206-0.516-0.091-0.568-0.344-0.449C25.412,26.14,24.808,26.328,24.04,26.328z"/><radialGradient id="ShTVoCSGRet6CGU9rMM59D" cx="-61.076" cy="71.175" r="1.76" gradientTransform="matrix(1.4827 .036 .0172 -.7101 113.435 78.208)" gradientUnits="userSpaceOnUse"><stop offset=".479" stop-color="#fed53f"/><stop offset=".926" stop-color="#fed53f" stop-opacity=".141"/><stop offset="1" stop-color="#fed53f" stop-opacity="0"/></radialGradient><path fill="url(#ShTVoCSGRet6CGU9rMM59D)" d="M26.874,25.535c-0.018,0.757-1.286,1.339-2.831,1.302c-1.545-0.038-2.782-0.681-2.764-1.438s1.286-1.339,2.831-1.302C25.655,24.135,26.892,24.779,26.874,25.535z"/><radialGradient id="ShTVoCSGRet6CGU9rMM59E" cx="24.117" cy="-151.221" r="1.411" gradientTransform="matrix(1 0 0 -.6596 0 -74.326)" gradientUnits="userSpaceOnUse"><stop offset=".004" stop-color="#fff4c9"/><stop offset="1" stop-color="#fff4c9" stop-opacity="0"/></radialGradient><ellipse cx="24.117" cy="25.419" fill="url(#ShTVoCSGRet6CGU9rMM59E)" rx="1.411" ry=".931"/><path fill="#805b2a" d="M14.322,21.29c-0.023,0.367,0.055,0.336,0.196,0.519c0,0,1.594,2.204,6.402,0.695c0.348-0.124,0.598-0.36,0.562-0.644C20.866,16.978,14.699,17.695,14.322,21.29z"/><path fill="#fff" d="M14.393,21.07c-0.12,0.258-0.082,0.464,0,0.672c0.343,0.906,3.095,4.131,6.809,0.745c0.277-0.239,0.321-0.45,0.252-0.748C21.385,21.44,20.423,19,17.902,19C15.405,19,14.601,20.719,14.393,21.07z"/><linearGradient id="ShTVoCSGRet6CGU9rMM59F" x1="15.901" x2="20.085" y1="26.931" y2="26.931" gradientTransform="matrix(1 0 0 -1 0 48)" gradientUnits="userSpaceOnUse"><stop offset="0" stop-color="#c69c6d"/><stop offset="1" stop-color="#754c24"/></linearGradient><circle cx="17.993" cy="21.069" r="2.092" fill="url(#ShTVoCSGRet6CGU9rMM59F)"/><radialGradient id="ShTVoCSGRet6CGU9rMM59G" cx="17.993" cy="26.931" r="1.053" gradientTransform="matrix(1 0 0 -1 0 48)" gradientUnits="userSpaceOnUse"><stop offset="0" stop-color="#1c1911"/><stop offset=".999" stop-color="#171714"/></radialGradient><circle cx="17.993" cy="21.069" r="1.053" fill="url(#ShTVoCSGRet6CGU9rMM59G)"/><circle cx="17.484" cy="20.526" r=".494" fill="#fff"/><path fill="#805b2a" d="M33.574,21.29c0.023,0.367-0.055,0.336-0.196,0.519c0,0-1.594,2.204-6.402,0.695c-0.348-0.124-0.598-0.36-0.562-0.644C27.03,16.978,33.197,17.695,33.574,21.29z"/><path fill="#fff" d="M33.503,21.07c0.12,0.258,0.082,0.464,0,0.672c-0.343,0.906-3.095,4.131-6.809,0.745c-0.277-0.239-0.321-0.45-0.252-0.748C26.511,21.44,27.473,19,29.994,19C32.49,19,33.295,20.719,33.503,21.07z"/><linearGradient id="ShTVoCSGRet6CGU9rMM59H" x1="209.432" x2="213.616" y1="166.932" y2="166.932" gradientTransform="translate(-181.622 -145.863)" gradientUnits="userSpaceOnUse"><stop offset="0" stop-color="#c69c6d"/><stop offset="1" stop-color="#754c24"/></linearGradient><circle cx="29.902" cy="21.069" r="2.092" fill="url(#ShTVoCSGRet6CGU9rMM59H)"/><radialGradient id="ShTVoCSGRet6CGU9rMM59I" cx="-660.475" cy="26.931" r="1.053" gradientTransform="rotate(180 -315.287 24)" gradientUnits="userSpaceOnUse"><stop offset="0" stop-color="#1c1911"/><stop offset=".999" stop-color="#171714"/></radialGradient><circle cx="29.902" cy="21.069" r="1.053" fill="url(#ShTVoCSGRet6CGU9rMM59I)"/><circle cx="29.422" cy="20.526" r=".494" fill="#fff"/><g><path fill="#805b2a" d="M32.167,17.222c-1.366-0.349-2.812-0.246-4.06,0.234c-0.388,0.149-0.824-0.044-0.974-0.433 c-0.149-0.388,0.044-0.824,0.433-0.974c0.04-0.015,0.081-0.027,0.122-0.036l0.017-0.003c1.614-0.316,3.275-0.127,4.712,0.517 c0.187,0.083,0.27,0.302,0.187,0.489c-0.075,0.167-0.258,0.251-0.429,0.207L32.167,17.222z"/></g><g><path fill="#805b2a" d="M15.833,16.528c1.437-0.643,3.098-0.833,4.712-0.517l0.013,0.003 c0.408,0.08,0.675,0.476,0.595,0.884c-0.08,0.408-0.476,0.675-0.884,0.595c-0.042-0.008-0.087-0.021-0.126-0.036 c-1.248-0.48-2.693-0.583-4.06-0.234l-0.007,0.002c-0.198,0.051-0.4-0.069-0.45-0.267C15.581,16.78,15.672,16.6,15.833,16.528z"/></g><g><radialGradient id="ShTVoCSGRet6CGU9rMM59J" cx="-44.999" cy="-63.441" r="2.561" gradientTransform="matrix(1.1109 0 0 -1.3094 74.016 -52.869)" gradientUnits="userSpaceOnUse"><stop offset=".696" stop-color="#cc9000"/><stop offset="1" stop-color="#cc9000" stop-opacity="0"/></radialGradient><path fill="url(#ShTVoCSGRet6CGU9rMM59J)" d="M24,32.153c-2.85,0-2.946-1.638-2.946-1.638s0.07,3.276,2.946,3.276 s2.946-3.276,2.946-3.276S26.85,32.153,24,32.153z"/><radialGradient id="ShTVoCSGRet6CGU9rMM59K" cx="31.721" cy="-208.031" r="3.95" fx="31.718" fy="-207.883" gradientTransform="matrix(.7953 0 0 -.5951 -1.228 -93.62)" gradientUnits="userSpaceOnUse"><stop offset=".371" stop-color="#ffd226"/><stop offset=".948" stop-color="#ffe16e"/><stop offset="1" stop-color="#ffe16e" stop-opacity="0"/></radialGradient><path fill="url(#ShTVoCSGRet6CGU9rMM59K)" d="M27.094,30.023c0,0,0.039,2.526-3.094,2.526s-3.094-2.526-3.094-2.526 s0.687,0.769,3.094,0.769S27.094,30.023,27.094,30.023z"/><radialGradient id="ShTVoCSGRet6CGU9rMM59L" cx="8.311" cy="-36.557" r="3.162" gradientTransform="matrix(.8379 0 0 -.855 17.078 -1.296)" gradientUnits="userSpaceOnUse"><stop offset="0" stop-color="#1c1911"/><stop offset=".999" stop-color="#171714"/></radialGradient><path fill="url(#ShTVoCSGRet6CGU9rMM59L)" d="M21.12,30.023c-0.169,0-0.267,0.179-0.184,0.324c0.617,1.072,2.032,1.396,3.064,1.396 c1.121,0,2.446-0.324,3.064-1.396c0.083-0.144-0.015-0.324-0.184-0.324C24.975,30.148,23.055,30.157,21.12,30.023z"/></g><radialGradient id="ShTVoCSGRet6CGU9rMM59M" cx="24.259" cy="31.417" r="10.699" gradientTransform="matrix(1 0 0 -1 0 48)" gradientUnits="userSpaceOnUse"><stop offset="0" stop-color="#666"/><stop offset=".999" stop-color="#333"/></radialGradient><path fill="url(#ShTVoCSGRet6CGU9rMM59M)" d="M36,3H12c-0.898,3.336-1.383,5.691-1.813,9.021C15.207,12.553,19.697,13.518,24,15c4.693-1.664,9.364-2.753,14-3C37.726,8.753,37.041,6.415,36,3z"/><radialGradient id="ShTVoCSGRet6CGU9rMM59N" cx="24" cy="44.345" r="14.321" gradientTransform="matrix(1 0 0 -1 0 48)" gradientUnits="userSpaceOnUse"><stop offset="0" stop-color="#1a1a1a"/><stop offset=".999" stop-color="#333"/></radialGradient><polygon fill="url(#ShTVoCSGRet6CGU9rMM59N)" points="24,6.844 4.042,3.727 4,3.097 23.969,0.466 44,3.042 43.979,3.727"/><radialGradient id="ShTVoCSGRet6CGU9rMM59O" cx="24.25" cy="41.078" r="14.357" gradientTransform="matrix(.9984 0 0 -.8769 .006 43.091)" gradientUnits="userSpaceOnUse"><stop offset="0" stop-color="gray"/><stop offset=".999" stop-color="#333"/></radialGradient><polygon fill="url(#ShTVoCSGRet6CGU9rMM59O)" points="23.969,6.138 4,3.069 23.969,0 43.938,3.069"/><g><radialGradient id="ShTVoCSGRet6CGU9rMM59P" cx="24.276" cy="40.837" r="14.387" gradientTransform="matrix(1 0 0 -1 0 48)" gradientUnits="userSpaceOnUse"><stop offset="0" stop-color="gray"/><stop offset=".999" stop-color="#333"/></radialGradient><path fill="url(#ShTVoCSGRet6CGU9rMM59P)" d="M24.069,2.5l-8.578,0.398L6.913,3.297l0.631,0.292l5.199,0.799l5.324-0.241l5.324-0.241 c0.379,0.004,0.696-0.257,0.845-0.565S24.366,2.68,24.069,2.5z"/><radialGradient id="ShTVoCSGRet6CGU9rMM59Q" cx="24.233" cy="41.146" r="13.353" gradientTransform="matrix(1 0 0 -1 0 48)" gradientUnits="userSpaceOnUse"><stop offset="0" stop-color="#757575"/><stop offset=".999" stop-color="#333"/></radialGradient><path fill="url(#ShTVoCSGRet6CGU9rMM59Q)" d="M15.506,2.922L6.94,3.317l0.85,0.322l5.443,0.64l5.069-0.229l4.921-0.223 c0.006,0,0.137-0.006,0.142-0.006c0.369,0.002,0.671-0.23,0.819-0.507c0.15-0.28,0.143-0.605-0.112-0.787L15.506,2.922z"/><radialGradient id="ShTVoCSGRet6CGU9rMM59R" cx="24.192" cy="41.454" r="12.318" gradientTransform="matrix(1 0 0 -1 0 48)" gradientUnits="userSpaceOnUse"><stop offset="0" stop-color="#6a6a6a"/><stop offset=".999" stop-color="#333"/></radialGradient><path fill="url(#ShTVoCSGRet6CGU9rMM59R)" d="M15.522,2.945L6.966,3.337l1.07,0.352l5.687,0.481l4.814-0.218l4.662-0.211 c0.013,0,0.128-0.005,0.14-0.005c0.358,0,0.646-0.203,0.794-0.449c0.151-0.251,0.157-0.548-0.055-0.733L15.522,2.945z"/><radialGradient id="ShTVoCSGRet6CGU9rMM59S" cx="24.152" cy="41.763" r="11.284" gradientTransform="matrix(1 0 0 -1 0 48)" gradientUnits="userSpaceOnUse"><stop offset="0" stop-color="#5f5f5f"/><stop offset=".999" stop-color="#333"/></radialGradient><path fill="url(#ShTVoCSGRet6CGU9rMM59S)" d="M15.538,2.969L6.993,3.357l1.289,0.381l5.931,0.323l4.559-0.206l4.403-0.199 c0.019,0,0.12-0.004,0.138-0.004c0.348-0.001,0.621-0.176,0.768-0.391c0.152-0.223,0.171-0.492,0.001-0.68L15.538,2.969z"/><radialGradient id="ShTVoCSGRet6CGU9rMM59T" cx="24.116" cy="42.072" r="10.25" gradientTransform="matrix(1 0 0 -1 0 48)" gradientUnits="userSpaceOnUse"><stop offset="0" stop-color="#535353"/><stop offset=".999" stop-color="#323232"/></radialGradient><path fill="url(#ShTVoCSGRet6CGU9rMM59T)" d="M15.553,2.992L7.02,3.377l1.509,0.411l6.175,0.164l4.304-0.195l4.144-0.188 c0.026,0,0.112-0.003,0.136-0.003c0.338-0.003,0.596-0.149,0.742-0.334c0.154-0.195,0.185-0.436,0.057-0.626L15.553,2.992z"/><radialGradient id="ShTVoCSGRet6CGU9rMM59U" cx="24.084" cy="42.38" r="9.215" gradientTransform="matrix(1 0 0 -1 0 48)" gradientUnits="userSpaceOnUse"><stop offset="0" stop-color="#484848"/><stop offset=".999" stop-color="#323232"/></radialGradient><path fill="url(#ShTVoCSGRet6CGU9rMM59U)" d="M15.569,3.016L7.047,3.397l1.728,0.441l6.419,0.005l4.049-0.183l3.885-0.176 c0.032,0,0.104-0.002,0.134-0.003c0.328-0.005,0.571-0.121,0.716-0.276c0.156-0.166,0.199-0.379,0.114-0.572L15.569,3.016z"/><radialGradient id="ShTVoCSGRet6CGU9rMM59V" cx="24.059" cy="42.309" r="9.352" gradientTransform="matrix(1 0 0 -1 0 48)" gradientUnits="userSpaceOnUse"><stop offset="0" stop-color="#3d3d3d"/><stop offset=".999" stop-color="#323232"/></radialGradient><path fill="url(#ShTVoCSGRet6CGU9rMM59V)" d="M15.585,3.039L7.073,3.417l1.947,0.47l6.662-0.154l3.794-0.172l3.626-0.164 c0.039,0,0.096-0.001,0.132-0.002c0.318-0.007,0.547-0.093,0.69-0.218c0.158-0.137,0.213-0.323,0.17-0.518L15.585,3.039z"/><path fill="#323232" d="M9.267,3.938l6.906-0.313l6.906-0.313c0.379,0.004,0.634-0.053,0.794-0.161S24.1,2.885,24.1,2.688 l-8.5,0.375L7.1,3.438L9.267,3.938z"/></g><linearGradient id="ShTVoCSGRet6CGU9rMM59W" x1="2.204" x2="11.341" y1="40.287" y2="40.287" gradientTransform="matrix(1 0 0 -1 0 48)" gradientUnits="userSpaceOnUse"><stop offset=".2" stop-color="#fee06f"/><stop offset=".999" stop-color="#f1b326"/></linearGradient><path fill="url(#ShTVoCSGRet6CGU9rMM59W)" d="M6.663,13c-0.276,0-0.292-0.224-0.292-0.5l0.001-8.98c0-0.268,0.21-0.487,0.478-0.499l16.923-0.595c0.922-0.016,0.954,0.468,0.248,0.562L7.163,3.729V12.5C7.163,12.776,6.939,13,6.663,13z"/><g><path fill="#f2b41f" d="M5.683,19.334c-0.118,0-0.223-0.084-0.245-0.204c-0.588-3.152,0.386-6.12,0.427-6.244 c0.044-0.131,0.187-0.199,0.316-0.158c0.131,0.043,0.202,0.185,0.158,0.316c-0.01,0.029-0.974,2.973-0.411,5.994 c0.025,0.136-0.064,0.266-0.2,0.292C5.713,19.333,5.698,19.334,5.683,19.334z"/></g><g><path fill="#c48d1e" d="M6.142,19.667c-0.118,0-0.223-0.084-0.245-0.204c-0.587-3.14,0.177-6.581,0.21-6.726 c0.03-0.135,0.167-0.22,0.299-0.188c0.135,0.03,0.219,0.164,0.188,0.299c-0.008,0.035-0.773,3.488-0.206,6.524 c0.025,0.136-0.064,0.266-0.2,0.292C6.172,19.666,6.157,19.667,6.142,19.667z"/></g><g><path fill="#f2b41f" d="M6.642,19.75c-0.118,0-0.223-0.084-0.245-0.204c-0.585-3.136,0.096-6.654,0.125-6.802 c0.026-0.136,0.159-0.227,0.293-0.197c0.136,0.026,0.224,0.158,0.197,0.293c-0.007,0.036-0.691,3.574-0.125,6.614 c0.025,0.136-0.064,0.266-0.2,0.292C6.672,19.749,6.657,19.75,6.642,19.75z"/></g><g><path fill="#f2b41f" d="M6.845,19.75c-0.016,0-0.031-0.001-0.046-0.004c-0.136-0.025-0.225-0.156-0.2-0.292 c0.569-3.048,0.174-6.266,0.17-6.298c-0.017-0.137,0.08-0.262,0.217-0.279c0.136-0.021,0.262,0.079,0.279,0.217 c0.004,0.033,0.409,3.325-0.175,6.452C7.067,19.666,6.962,19.75,6.845,19.75z"/></g><g><path fill="#f2b41f" d="M7.775,19.333c-0.016,0-0.031-0.001-0.046-0.004c-0.136-0.025-0.225-0.156-0.2-0.292 c0.565-3.028-0.35-5.992-0.359-6.021c-0.042-0.132,0.032-0.272,0.163-0.313c0.131-0.041,0.272,0.032,0.313,0.163 c0.04,0.126,0.962,3.113,0.374,6.263C7.998,19.249,7.893,19.333,7.775,19.333z"/></g><g><path fill="#f2b41f" d="M6.733,19.375c-0.003,0-0.006,0-0.01,0c-0.138-0.005-0.246-0.122-0.24-0.26 c0.117-3,0.077-5.957,0.076-5.987c-0.002-0.138,0.108-0.251,0.247-0.253c0.001,0,0.002,0,0.003,0c0.137,0,0.248,0.109,0.25,0.247 c0,0.029,0.041,3-0.076,6.013C6.978,19.27,6.867,19.375,6.733,19.375z"/></g><g><path fill="#c48d1e" d="M7.345,19.667c-0.016,0-0.031-0.001-0.046-0.004c-0.136-0.025-0.225-0.156-0.2-0.292 c0.568-3.039-0.198-6.489-0.206-6.524c-0.031-0.135,0.054-0.269,0.188-0.299c0.134-0.033,0.269,0.054,0.299,0.188 c0.033,0.145,0.797,3.586,0.21,6.726C7.567,19.583,7.462,19.667,7.345,19.667z"/></g><radialGradient id="ShTVoCSGRet6CGU9rMM59X" cx="6.548" cy="35.813" r="1.158" gradientTransform="matrix(1 0 0 -1 0 48)" gradientUnits="userSpaceOnUse"><stop offset="0" stop-color="#fee06f"/><stop offset=".999" stop-color="#f1b326"/></radialGradient><circle cx="6.767" cy="12.5" r="1.5" fill="url(#ShTVoCSGRet6CGU9rMM59X)"/><g><path fill="#c48d1e" d="M6.873,14.176c-0.472,0-1.057-0.1-1.292-0.381c-0.088-0.106-0.074-0.264,0.032-0.352 c0.107-0.088,0.265-0.074,0.352,0.032c0.071,0.085,0.425,0.202,0.908,0.202c0.001,0,0.003,0,0.004,0 c0.452,0,0.706-0.105,0.761-0.17c0.087-0.106,0.246-0.122,0.352-0.033c0.106,0.088,0.122,0.246,0.033,0.352 c-0.252,0.305-0.825,0.352-1.145,0.352C6.876,14.176,6.875,14.176,6.873,14.176z"/></g></svg>