<svg xmlns="http://www.w3.org/2000/svg" xmlns:xlink="http://www.w3.org/1999/xlink" data-name="Слой 1" viewBox="0 0 48 48"><defs><linearGradient id="AFqMgts_d~NHlf2L_fpDfk" x1="13.911" x2="15.516" y1="-1994.243" y2="-1994.243" gradientTransform="matrix(1 0 0 -1 0 -1980)" xlink:href="#AFqMgts_d~NHlf2L_fpDfb"/><linearGradient id="AFqMgts_d~NHlf2L_fpDfa" x1="32.651" x2="35.348" y1="-1984.284" y2="-1991.715" data-name="Безымянный градиент 125" gradientTransform="matrix(1 0 0 -1 0 -1980)" gradientUnits="userSpaceOnUse"><stop offset="0" stop-color="#ffcf54"/><stop offset=".261" stop-color="#fdcb4d"/><stop offset=".639" stop-color="#f7c13a"/><stop offset="1" stop-color="#f0b421"/></linearGradient><linearGradient id="AFqMgts_d~NHlf2L_fpDff" x1="19.23" x2="22.904" y1="-2002.589" y2="-2010.753" xlink:href="#AFqMgts_d~NHlf2L_fpDfa"/><linearGradient id="AFqMgts_d~NHlf2L_fpDfg" x1="6.23" x2="9.904" y1="-2002.589" y2="-2010.753" xlink:href="#AFqMgts_d~NHlf2L_fpDfa"/><linearGradient id="AFqMgts_d~NHlf2L_fpDfe" x1="14" x2="14" y1="15.826" y2="35.738" data-name="Безымянный градиент 147" gradientUnits="userSpaceOnUse"><stop offset="0" stop-color="#dfe9f2"/><stop offset=".391" stop-color="#d6e0e9"/><stop offset="1" stop-color="#bfc8d1"/></linearGradient><linearGradient id="AFqMgts_d~NHlf2L_fpDfh" x1="12.651" x2="15.348" y1="-1984.284" y2="-1991.715" xlink:href="#AFqMgts_d~NHlf2L_fpDfa"/><linearGradient id="AFqMgts_d~NHlf2L_fpDfd" x1="12.385" x2="15.47" y1="-1994.282" y2="-2010.575" data-name="Безымянный градиент 111" gradientTransform="matrix(1 0 0 -1 0 -1980)" gradientUnits="userSpaceOnUse"><stop offset="0" stop-color="#32bdef"/><stop offset="1" stop-color="#1ea2e4"/></linearGradient><linearGradient id="AFqMgts_d~NHlf2L_fpDfi" x1="14" x2="14" y1="13.674" y2="29.327" data-name="Безымянный градиент 121" gradientUnits="userSpaceOnUse"><stop offset="0" stop-color="#f44f5a"/><stop offset=".443" stop-color="#ee3d4a"/><stop offset="1" stop-color="#e52030"/></linearGradient><linearGradient id="AFqMgts_d~NHlf2L_fpDfj" x1="14.019" x2="12.087" y1="-1994.243" y2="-1994.243" gradientTransform="matrix(1 0 0 -1 0 -1980)" xlink:href="#AFqMgts_d~NHlf2L_fpDfb"/><linearGradient id="AFqMgts_d~NHlf2L_fpDfb" x1="37" x2="37" y1="44.783" y2="16.98" data-name="Безымянный градиент 38" gradientTransform="translate(-23)" gradientUnits="userSpaceOnUse"><stop offset=".002" stop-color="#454545"/><stop offset=".013" stop-color="#464646"/><stop offset=".562" stop-color="#626262"/><stop offset="1" stop-color="#6d6d6d"/></linearGradient><linearGradient id="AFqMgts_d~NHlf2L_fpDfl" x1="14.007" x2="14.007" y1="-1995.178" y2="-1993.303" gradientTransform="matrix(1 0 0 -1 0 -1980)" xlink:href="#AFqMgts_d~NHlf2L_fpDfb"/><linearGradient id="AFqMgts_d~NHlf2L_fpDfc" x1="34" x2="34" y1="45.446" y2="27.625" data-name="Безымянный градиент 197" gradientUnits="userSpaceOnUse"><stop offset="0" stop-color="#889097"/><stop offset="1" stop-color="#4c5963"/></linearGradient><linearGradient id="AFqMgts_d~NHlf2L_fpDfm" x1="40.5" x2="40.5" y1="14.043" y2="31.754" xlink:href="#AFqMgts_d~NHlf2L_fpDfa"/><linearGradient id="AFqMgts_d~NHlf2L_fpDfn" x1="27.5" x2="27.5" y1="14.043" y2="31.754" xlink:href="#AFqMgts_d~NHlf2L_fpDfa"/><linearGradient id="AFqMgts_d~NHlf2L_fpDfo" x1="34" x2="34" y1="16" y2="24.756" xlink:href="#AFqMgts_d~NHlf2L_fpDfc"/><linearGradient id="AFqMgts_d~NHlf2L_fpDfp" x1="32.385" x2="35.47" y1="-1994.282" y2="-2010.575" xlink:href="#AFqMgts_d~NHlf2L_fpDfd"/><linearGradient id="AFqMgts_d~NHlf2L_fpDfq" x1="34" x2="34" y1="13.75" y2="34.997" xlink:href="#AFqMgts_d~NHlf2L_fpDfc"/><linearGradient id="AFqMgts_d~NHlf2L_fpDfr" x1="34" x2="34" y1="15.217" y2="28.492" xlink:href="#AFqMgts_d~NHlf2L_fpDfe"/><linearGradient id="AFqMgts_d~NHlf2L_fpDfs" x1="34" x2="34" y1="25.098" y2="38.083" xlink:href="#AFqMgts_d~NHlf2L_fpDfe"/></defs><path fill="url(#AFqMgts_d~NHlf2L_fpDfa)" d="M34,12a4,4,0,1,1,4-4,4.01176,4.01176,0,0,1-4,4"/><path fill="url(#AFqMgts_d~NHlf2L_fpDfb)" d="M9,27V42a2,2,0,0,0,4,0V32a1,1,0,0,1,2,0V42a2,2,0,0,0,4,0V27Z"/><path fill="url(#AFqMgts_d~NHlf2L_fpDff)" d="M22,21H19v8.5a1.5,1.5,0,0,0,3,0Z"/><path fill="url(#AFqMgts_d~NHlf2L_fpDfg)" d="M9,21H6v8.5a1.5,1.5,0,0,0,3,0Z"/><path fill="url(#AFqMgts_d~NHlf2L_fpDfe)" d="M6,28V20.667A6.6748,6.6748,0,0,1,12.667,14h2.667A6.67459,6.67459,0,0,1,22,20.667V28Z"/><path fill="url(#AFqMgts_d~NHlf2L_fpDfh)" d="M14,12a4,4,0,1,1,4-4,4.01176,4.01176,0,0,1-4,4"/><path fill="url(#AFqMgts_d~NHlf2L_fpDfd)" d="M15,14H13a4.00018,4.00018,0,0,0-4,4V28H19V18A4.00018,4.00018,0,0,0,15,14Z"/><path fill="url(#AFqMgts_d~NHlf2L_fpDfi)" d="M16,14H12a3,3,0,0,0-3,3V28H19V17A3,3,0,0,0,16,14Z"/><polygon fill="url(#AFqMgts_d~NHlf2L_fpDfe)" points="14 20 12 14 16 14 14 20"/><path fill="url(#AFqMgts_d~NHlf2L_fpDfj)" d="M13.727,13.798l-.492-.251a.49964.49964,0,0,0-.727.445v.502a.49986.49986,0,0,0,.727.445l.492-.251A.49918.49918,0,0,0,13.727,13.798Z"/><path fill="url(#AFqMgts_d~NHlf2L_fpDfk)" d="M14.281,13.798l.492-.251a.49964.49964,0,0,1,.727.445v.502a.49986.49986,0,0,1-.727.445l-.492-.251A.49918.49918,0,0,1,14.281,13.798Z"/><circle cx="14.007" cy="14.25" r=".499" fill="url(#AFqMgts_d~NHlf2L_fpDfl)"/><path fill="url(#AFqMgts_d~NHlf2L_fpDfc)" d="M29,27V42a2,2,0,0,0,4,0V32a1,1,0,0,1,2,0V42a2,2,0,0,0,4,0V27Z"/><path fill="url(#AFqMgts_d~NHlf2L_fpDfm)" d="M42,21H39v8.5a1.5,1.5,0,0,0,3,0Z"/><path fill="url(#AFqMgts_d~NHlf2L_fpDfn)" d="M29,21H26v8.5a1.5,1.5,0,0,0,3,0Z"/><path fill="url(#AFqMgts_d~NHlf2L_fpDfo)" d="M42,20.66992V21H26v-.33008A6.63924,6.63924,0,0,1,29.58,14.77a6.0501,6.0501,0,0,1,1.11-.47c.01,0,.01,0,.02-.01A6.68515,6.68515,0,0,1,32.67,14h2.66a6.68515,6.68515,0,0,1,1.96.29c.01.01.01.01.02.01a6.0501,6.0501,0,0,1,1.11.47A6.63924,6.63924,0,0,1,42,20.66992Z"/><path fill="url(#AFqMgts_d~NHlf2L_fpDfp)" d="M35,14H33a4.00018,4.00018,0,0,0-4,4V28H39V18A4.00018,4.00018,0,0,0,35,14Z"/><path fill="url(#AFqMgts_d~NHlf2L_fpDfq)" d="M39,17V28H29V17a2.97992,2.97992,0,0,1,.76-1.99,2.8115,2.8115,0,0,1,.93-.71c.01,0,.01,0,.02-.01A3.0854,3.0854,0,0,1,32,14h4a3.0854,3.0854,0,0,1,1.29.29c.01.01.01.01.02.01a2.8115,2.8115,0,0,1,.93.71A2.97992,2.97992,0,0,1,39,17Z"/><path fill="url(#AFqMgts_d~NHlf2L_fpDfr)" d="M38.42,14.77l-.18.24L36,18l-2-3-2,3-2.24-2.99-.18-.24a6.0501,6.0501,0,0,1,1.11-.47c.01,0,.01,0,.02-.01A3.0854,3.0854,0,0,1,32,14h4a3.0854,3.0854,0,0,1,1.29.29c.01.01.01.01.02.01A6.0501,6.0501,0,0,1,38.42,14.77Z"/><rect width="10" height="8" x="29" y="26" fill="url(#AFqMgts_d~NHlf2L_fpDfs)"/></svg>