<svg xmlns="http://www.w3.org/2000/svg" xmlns:xlink="http://www.w3.org/1999/xlink" viewBox="0 0 48 48"><linearGradient id="fJmyyD3Sg_rgB~PzgxJHKa" x1="-46.403" x2="-60.859" y1="11.735" y2="19.986" gradientTransform="matrix(1 0 0 -.9876 92.647 44.23)" gradientUnits="userSpaceOnUse"><stop offset="0" stop-color="#c69c6d"/><stop offset=".165" stop-color="#aa8054"/><stop offset=".337" stop-color="#946a40"/><stop offset=".447" stop-color="#8c6239"/><stop offset=".999" stop-color="#331604"/></linearGradient><path fill="url(#fJmyyD3Sg_rgB~PzgxJHKa)" d="M38.057,18.186c0,0-0.164,4.838,2.305,10.528c0.853,1.587-0.23,2.235-0.23,2.235s-7.855,3.077-16.088,2.786c0-3.336,0-21.897,0-21.897l13.832,2.478L38.057,18.186z"/><linearGradient id="fJmyyD3Sg_rgB~PzgxJHKb" x1="-211.836" x2="-198.114" y1="16.799" y2="23.531" gradientTransform="rotate(180 -83.125 24)" gradientUnits="userSpaceOnUse"><stop offset="0" stop-color="#c69c6d"/><stop offset=".165" stop-color="#aa8054"/><stop offset=".337" stop-color="#946a40"/><stop offset=".447" stop-color="#8c6239"/><stop offset=".999" stop-color="#331604"/></linearGradient><path fill="url(#fJmyyD3Sg_rgB~PzgxJHKb)" d="M37.352,29.813c0.623-0.328,0.705-0.836-0.033-2.312c-2.18-5.445-1.886-9.118-1.902-10.43 l0.03-3.19l2.43,0.435l0.18,3.87c0,0-0.164,4.838,2.305,10.528c0.853,1.587-0.23,2.235-0.23,2.235s-7.855,3.077-16.088,2.786 c0-0.398,0.401-0.376,0.401-1.15C31.363,32.153,37.352,29.813,37.352,29.813z"/><linearGradient id="fJmyyD3Sg_rgB~PzgxJHKc" x1="-211.866" x2="-198.109" y1="16.772" y2="23.521" gradientTransform="rotate(180 -83.125 24)" gradientUnits="userSpaceOnUse"><stop offset="0" stop-color="#b78e60"/><stop offset=".133" stop-color="#a47a4f"/><stop offset=".325" stop-color="#8e643b"/><stop offset=".447" stop-color="#865c34"/><stop offset=".999" stop-color="#391b06"/></linearGradient><path fill="url(#fJmyyD3Sg_rgB~PzgxJHKc)" d="M37.642,29.9c0.534-0.281,0.75-0.757-0.005-2.249c-2.221-5.48-1.93-9.362-1.945-10.486 l0.002-3.24l2.181,0.391l0.185,3.713c0,0-0.158,4.933,2.311,10.623c0.856,1.59-0.148,2.304-0.269,2.35c0,0-7.822,3.05-16.055,2.758 c0-0.359,0.339-0.387,0.339-1.074C31.447,32.323,37.642,29.9,37.642,29.9z"/><linearGradient id="fJmyyD3Sg_rgB~PzgxJHKd" x1="-211.899" x2="-198.107" y1="16.746" y2="23.513" gradientTransform="rotate(180 -83.125 24)" gradientUnits="userSpaceOnUse"><stop offset="0" stop-color="#a97f53"/><stop offset=".091" stop-color="#9d7449"/><stop offset=".308" stop-color="#875e35"/><stop offset=".447" stop-color="#7f562e"/><stop offset=".999" stop-color="#402008"/></linearGradient><path fill="url(#fJmyyD3Sg_rgB~PzgxJHKd)" d="M37.933,29.987c0.445-0.234,0.794-0.678,0.023-2.186c-2.262-5.515-1.975-9.605-1.987-10.543 l-0.026-3.289l1.933,0.346l0.19,3.556c0,0-0.153,5.028,2.317,10.718c0.859,1.594-0.066,2.373-0.308,2.464 c0,0-7.789,3.023-16.021,2.731c0-0.32,0.277-0.398,0.277-0.999C31.532,32.493,37.933,29.987,37.933,29.987z"/><linearGradient id="fJmyyD3Sg_rgB~PzgxJHKe" x1="-211.932" x2="-198.103" y1="16.718" y2="23.502" gradientTransform="rotate(180 -83.125 24)" gradientUnits="userSpaceOnUse"><stop offset="0" stop-color="#9a7146"/><stop offset=".025" stop-color="#976f44"/><stop offset=".282" stop-color="#815830"/><stop offset=".447" stop-color="#795029"/><stop offset=".999" stop-color="#46250a"/></linearGradient><path fill="url(#fJmyyD3Sg_rgB~PzgxJHKe)" d="M38.224,30.074c0.356-0.187,0.839-0.599,0.052-2.123c-2.304-5.55-2.02-9.849-2.029-10.599 l-0.053-3.338l1.684,0.302l0.194,3.399c0,0-0.147,5.123,2.322,10.813c0.863,1.597,0.016,2.442-0.347,2.579 c0,0-7.755,2.996-15.988,2.704c0-0.281,0.215-0.41,0.215-0.923C31.617,32.663,38.224,30.074,38.224,30.074z"/><linearGradient id="fJmyyD3Sg_rgB~PzgxJHKf" x1="-211.966" x2="-198.1" y1="16.689" y2="23.492" gradientTransform="rotate(180 -83.125 24)" gradientUnits="userSpaceOnUse"><stop offset="0" stop-color="#8c633a"/><stop offset=".246" stop-color="#7b522b"/><stop offset=".447" stop-color="#734a23"/><stop offset=".999" stop-color="#4d290d"/></linearGradient><path fill="url(#fJmyyD3Sg_rgB~PzgxJHKf)" d="M38.514,30.16c0.267-0.141,0.883-0.52,0.08-2.059c-2.345-5.585-2.064-10.093-2.071-10.655 l-0.081-3.387l1.435,0.257l0.199,3.242c0,0-0.141,5.218,2.328,10.908c0.866,1.6,0.098,2.511-0.387,2.694 c0,0-7.722,2.968-15.954,2.677c0-0.242,0.154-0.421,0.154-0.847C31.702,32.833,38.514,30.16,38.514,30.16z"/><linearGradient id="fJmyyD3Sg_rgB~PzgxJHKg" x1="-212.001" x2="-198.096" y1="16.66" y2="23.481" gradientTransform="rotate(180 -83.125 24)" gradientUnits="userSpaceOnUse"><stop offset="0" stop-color="#7d552d"/><stop offset=".182" stop-color="#754c25"/><stop offset=".447" stop-color="#6d441e"/><stop offset=".999" stop-color="#532e0f"/></linearGradient><path fill="url(#fJmyyD3Sg_rgB~PzgxJHKg)" d="M38.805,30.247c0.178-0.094,0.928-0.441,0.108-1.996c-2.387-5.62-2.109-10.336-2.113-10.711 l-0.109-3.436l1.187,0.213l0.204,3.085c0,0-0.136,5.313,2.334,11.003c0.869,1.603,0.18,2.58-0.426,2.809 c0,0-7.688,2.941-15.921,2.65c0-0.203,0.092-0.433,0.092-0.772C31.786,33.004,38.805,30.247,38.805,30.247z"/><linearGradient id="fJmyyD3Sg_rgB~PzgxJHKh" x1="-212.036" x2="-198.093" y1="16.63" y2="23.471" gradientTransform="rotate(180 -83.125 24)" gradientUnits="userSpaceOnUse"><stop offset="0" stop-color="#6f4620"/><stop offset=".03" stop-color="#6e451f"/><stop offset=".447" stop-color="#663e18"/><stop offset=".999" stop-color="#5a3311"/></linearGradient><path fill="url(#fJmyyD3Sg_rgB~PzgxJHKh)" d="M39.095,30.334c0.089-0.047,0.972-0.362,0.136-1.933c-2.428-5.655-2.153-10.58-2.155-10.767 l-0.137-3.485l0.938,0.168l0.209,2.929c0,0-0.13,5.408,2.339,11.098c0.872,1.606,0.262,2.649-0.465,2.923 c0,0-7.655,2.914-15.888,2.622c0-0.164,0.03-0.444,0.03-0.696C31.871,33.174,39.095,30.334,39.095,30.334z"/><path fill="#603813" d="M39.386,30.42c0,0,1.017-0.282,0.164-1.87c-2.469-5.69-2.198-10.824-2.198-10.824l-0.165-3.535 l0.69,0.124l0.213,2.772c0,0-0.124,5.503,2.345,11.193c0.876,1.609,0.344,2.718-0.504,3.038c0,0-7.622,2.887-15.854,2.595 c0-0.125-0.032-0.455-0.032-0.621C31.956,33.344,39.386,30.42,39.386,30.42z"/><linearGradient id="fJmyyD3Sg_rgB~PzgxJHKi" x1="-260.658" x2="-275.114" y1="11.736" y2="19.986" gradientTransform="matrix(-1 0 0 -.9876 -258.897 44.23)" gradientUnits="userSpaceOnUse"><stop offset="0" stop-color="#c69c6d"/><stop offset=".165" stop-color="#aa8054"/><stop offset=".337" stop-color="#946a40"/><stop offset=".447" stop-color="#8c6239"/><stop offset=".999" stop-color="#331604"/></linearGradient><path fill="url(#fJmyyD3Sg_rgB~PzgxJHKi)" d="M9.948,18.186c0,0,0.164,4.838-2.305,10.528c-0.853,1.587,0.23,2.235,0.23,2.235s7.855,3.077,16.088,2.786c0-3.336,0-21.897,0-21.897l-13.832,2.478L9.948,18.186z"/><linearGradient id="fJmyyD3Sg_rgB~PzgxJHKj" x1="2.419" x2="16.141" y1="16.799" y2="23.531" gradientTransform="matrix(1 0 0 -1 0 48)" gradientUnits="userSpaceOnUse"><stop offset="0" stop-color="#c69c6d"/><stop offset=".165" stop-color="#aa8054"/><stop offset=".337" stop-color="#946a40"/><stop offset=".447" stop-color="#8c6239"/><stop offset=".999" stop-color="#331604"/></linearGradient><path fill="url(#fJmyyD3Sg_rgB~PzgxJHKj)" d="M10.653,29.813c-0.623-0.328-0.705-0.836,0.033-2.312c2.18-5.445,1.886-9.118,1.902-10.43 l-0.03-3.19l-2.43,0.435l-0.18,3.87c0,0,0.164,4.838-2.305,10.528c-0.853,1.587,0.23,2.235,0.23,2.235s7.855,3.077,16.088,2.786 c0-0.398-0.401-0.376-0.401-1.15C16.642,32.153,10.653,29.813,10.653,29.813z"/><linearGradient id="fJmyyD3Sg_rgB~PzgxJHKk" x1="2.389" x2="16.145" y1="16.772" y2="23.521" gradientTransform="matrix(1 0 0 -1 0 48)" gradientUnits="userSpaceOnUse"><stop offset="0" stop-color="#b78e60"/><stop offset=".133" stop-color="#a47a4f"/><stop offset=".325" stop-color="#8e643b"/><stop offset=".447" stop-color="#865c34"/><stop offset=".999" stop-color="#391b06"/></linearGradient><path fill="url(#fJmyyD3Sg_rgB~PzgxJHKk)" d="M10.363,29.9c-0.534-0.281-0.75-0.757,0.005-2.249c2.221-5.48,1.93-9.362,1.945-10.486 l-0.002-3.24l-2.181,0.391l-0.185,3.713c0,0,0.158,4.933-2.311,10.623c-0.856,1.59,0.148,2.304,0.269,2.35 c0,0,7.822,3.05,16.055,2.758c0-0.359-0.339-0.387-0.339-1.074C16.558,32.323,10.363,29.9,10.363,29.9z"/><linearGradient id="fJmyyD3Sg_rgB~PzgxJHKl" x1="2.356" x2="16.148" y1="16.746" y2="23.513" gradientTransform="matrix(1 0 0 -1 0 48)" gradientUnits="userSpaceOnUse"><stop offset="0" stop-color="#a97f53"/><stop offset=".091" stop-color="#9d7449"/><stop offset=".308" stop-color="#875e35"/><stop offset=".447" stop-color="#7f562e"/><stop offset=".999" stop-color="#402008"/></linearGradient><path fill="url(#fJmyyD3Sg_rgB~PzgxJHKl)" d="M10.072,29.987c-0.445-0.234-0.794-0.678-0.023-2.186c2.262-5.515,1.975-9.605,1.987-10.543 l0.026-3.289l-1.933,0.346l-0.19,3.556c0,0,0.153,5.028-2.317,10.718c-0.859,1.594,0.066,2.373,0.308,2.464 c0,0,7.789,3.023,16.021,2.731c0-0.32-0.277-0.398-0.277-0.999C16.473,32.493,10.072,29.987,10.072,29.987z"/><linearGradient id="fJmyyD3Sg_rgB~PzgxJHKm" x1="2.323" x2="16.152" y1="16.718" y2="23.502" gradientTransform="matrix(1 0 0 -1 0 48)" gradientUnits="userSpaceOnUse"><stop offset="0" stop-color="#9a7146"/><stop offset=".025" stop-color="#976f44"/><stop offset=".282" stop-color="#815830"/><stop offset=".447" stop-color="#795029"/><stop offset=".999" stop-color="#46250a"/></linearGradient><path fill="url(#fJmyyD3Sg_rgB~PzgxJHKm)" d="M9.782,30.074c-0.356-0.187-0.839-0.599-0.052-2.123c2.304-5.55,2.02-9.849,2.029-10.599 l0.053-3.338l-1.684,0.302l-0.194,3.399c0,0,0.147,5.123-2.322,10.813c-0.863,1.597-0.016,2.442,0.347,2.579 c0,0,7.755,2.996,15.988,2.704c0-0.281-0.215-0.41-0.215-0.923C16.388,32.663,9.782,30.074,9.782,30.074z"/><linearGradient id="fJmyyD3Sg_rgB~PzgxJHKn" x1="2.289" x2="16.155" y1="16.689" y2="23.492" gradientTransform="matrix(1 0 0 -1 0 48)" gradientUnits="userSpaceOnUse"><stop offset="0" stop-color="#8c633a"/><stop offset=".246" stop-color="#7b522b"/><stop offset=".447" stop-color="#734a23"/><stop offset=".999" stop-color="#4d290d"/></linearGradient><path fill="url(#fJmyyD3Sg_rgB~PzgxJHKn)" d="M9.491,30.16c-0.267-0.141-0.883-0.52-0.08-2.059c2.345-5.585,2.064-10.093,2.071-10.655 l0.081-3.387l-1.435,0.257l-0.199,3.242c0,0,0.141,5.218-2.328,10.908c-0.866,1.6-0.098,2.511,0.387,2.694 c0,0,7.722,2.968,15.954,2.677c0-0.242-0.154-0.421-0.154-0.847C16.304,32.833,9.491,30.16,9.491,30.16z"/><linearGradient id="fJmyyD3Sg_rgB~PzgxJHKo" x1="2.255" x2="16.159" y1="16.659" y2="23.481" gradientTransform="matrix(1 0 0 -1 0 48)" gradientUnits="userSpaceOnUse"><stop offset="0" stop-color="#7d552d"/><stop offset=".182" stop-color="#754c25"/><stop offset=".447" stop-color="#6d441e"/><stop offset=".999" stop-color="#532e0f"/></linearGradient><path fill="url(#fJmyyD3Sg_rgB~PzgxJHKo)" d="M9.201,30.247c-0.178-0.094-0.928-0.441-0.108-1.996c2.387-5.62,2.109-10.336,2.113-10.711 l0.109-3.436l-1.187,0.213l-0.204,3.085c0,0,0.136,5.313-2.334,11.003c-0.869,1.603-0.18,2.58,0.426,2.809 c0,0,7.688,2.941,15.921,2.65c0-0.203-0.092-0.433-0.092-0.772C16.219,33.004,9.201,30.247,9.201,30.247z"/><linearGradient id="fJmyyD3Sg_rgB~PzgxJHKp" x1="2.218" x2="16.161" y1="16.631" y2="23.471" gradientTransform="matrix(1 0 0 -1 0 48)" gradientUnits="userSpaceOnUse"><stop offset="0" stop-color="#6f4620"/><stop offset=".03" stop-color="#6e451f"/><stop offset=".447" stop-color="#663e18"/><stop offset=".999" stop-color="#5a3311"/></linearGradient><path fill="url(#fJmyyD3Sg_rgB~PzgxJHKp)" d="M8.91,30.334c-0.089-0.047-0.972-0.362-0.136-1.933c2.428-5.655,2.153-10.58,2.155-10.767 l0.137-3.485l-0.938,0.168L9.92,17.244c0,0,0.13,5.408-2.339,11.098c-0.872,1.606-0.262,2.649,0.465,2.923 c0,0,7.655,2.914,15.888,2.622c0-0.164-0.03-0.444-0.03-0.696C16.134,33.174,8.91,30.334,8.91,30.334z"/><path fill="#603813" d="M8.62,30.42c0,0-1.017-0.282-0.164-1.87c2.469-5.69,2.198-10.824,2.198-10.824l0.165-3.535 l-0.69,0.124l-0.213,2.772c0,0,0.124,5.503-2.345,11.193c-0.876,1.609-0.344,2.718,0.504,3.038c0,0,7.622,2.887,15.854,2.595 c0-0.125,0.032-0.455,0.032-0.621C16.05,33.344,8.62,30.42,8.62,30.42z"/><radialGradient id="fJmyyD3Sg_rgB~PzgxJHKq" cx="24.371" cy="3.5" r="16.526" gradientTransform="matrix(1 0 0 -1 0 48)" gradientUnits="userSpaceOnUse"><stop offset="0" stop-color="#666"/><stop offset=".999" stop-color="#333"/></radialGradient><path fill="url(#fJmyyD3Sg_rgB~PzgxJHKq)" d="M43,46c0,0,0.054-9.133-6.089-10.749C33.774,34.426,24.018,32,24.001,32s-9.774,2.426-12.91,3.251C4.947,36.867,5,46,5,46H43z"/><linearGradient id="fJmyyD3Sg_rgB~PzgxJHKr" x1="24.136" x2="23.947" y1="2.937" y2="15.339" gradientTransform="matrix(1 0 0 -1 0 48)" gradientUnits="userSpaceOnUse"><stop offset="0" stop-color="#666"/><stop offset=".554" stop-color="#4a4a4a"/><stop offset=".999" stop-color="#333"/></linearGradient><path fill="url(#fJmyyD3Sg_rgB~PzgxJHKr)" d="M23.529,40.994c-1.734-2.157-3.748-4.93-5.931-7.346c-0.38-0.748,0.058-1.992,1.477-2.126c3.237-0.335,6.628-0.46,9.749,0.023c1.472,0.298,1.862,1.581,1.477,2.121c-1.833,2.022-4.048,4.912-5.819,7.322C24.259,41.34,23.757,41.342,23.529,40.994z"/><linearGradient id="fJmyyD3Sg_rgB~PzgxJHKs" x1="23.937" x2="23.937" y1="7.894" y2="12.346" gradientTransform="matrix(1 0 0 -1 0 48)" gradientUnits="userSpaceOnUse"><stop offset="0" stop-color="#fdd02d"/><stop offset=".999" stop-color="#cf941d"/></linearGradient><path fill="url(#fJmyyD3Sg_rgB~PzgxJHKs)" d="M24,41L24,41l-5.156-7.75c-1.141-1.531,11.266-1.484,10.195,0.024L24,41z"/><radialGradient id="fJmyyD3Sg_rgB~PzgxJHKt" cx="23.095" cy="3.435" r="14.928" gradientTransform="matrix(1 0 0 -1 0 48)" gradientUnits="userSpaceOnUse"><stop offset="0" stop-color="#666"/><stop offset=".999" stop-color="#333"/></radialGradient><path fill="url(#fJmyyD3Sg_rgB~PzgxJHKt)" d="M9.101,38.506c-0.008,1.163-0.029,2.371,0.018,3.606c0.045,1.235,0.156,2.495,0.41,3.762 h1.039h1.039c-0.38-1.239-0.698-2.394-0.957-3.586c-0.258-1.193-0.457-2.425-0.598-3.818C9.987,37.567,9.113,37.609,9.101,38.506z"/><radialGradient id="fJmyyD3Sg_rgB~PzgxJHKu" cx="22.191" cy="3.4" r="13.902" gradientTransform="matrix(1 0 0 -1 0 48)" gradientUnits="userSpaceOnUse"><stop offset="0" stop-color="#5f5f5f"/><stop offset=".999" stop-color="#333"/></radialGradient><path fill="url(#fJmyyD3Sg_rgB~PzgxJHKu)" d="M9.159,38.6c-0.003,1.159-0.014,2.352,0.038,3.568c0.049,1.183,0.159,2.387,0.398,3.601 c0.006,0.034,0.903,0.07,0.91,0.105h0.496h0.496c-0.213-0.694-0.404-1.363-0.574-2.025c-0.124-0.483-0.236-0.964-0.339-1.451 c-0.033-0.159-0.066-0.319-0.096-0.48c-0.13-0.669-0.241-1.355-0.336-2.08c-0.048-0.37-0.093-0.751-0.132-1.144 c-0.041-0.562-0.396-0.76-0.629-0.617C9.28,38.13,9.16,38.31,9.159,38.6z"/><radialGradient id="fJmyyD3Sg_rgB~PzgxJHKv" cx="21.311" cy="3.366" r="12.908" gradientTransform="matrix(1 0 0 -1 0 48)" gradientUnits="userSpaceOnUse"><stop offset="0" stop-color="#575757"/><stop offset=".999" stop-color="#333"/></radialGradient><path fill="url(#fJmyyD3Sg_rgB~PzgxJHKv)" d="M9.217,38.693c0.003,1.156,0,2.334,0.058,3.531c0.053,1.129,0.161,2.278,0.386,3.439 c0.012,0.07,0.767,0.141,0.781,0.212h0.474h0.474c-0.206-0.672-0.388-1.318-0.548-1.959c-0.117-0.469-0.224-0.935-0.319-1.408 c-0.032-0.156-0.062-0.311-0.092-0.468c-0.122-0.649-0.225-1.313-0.314-2.015c-0.045-0.357-0.088-0.725-0.125-1.105 c-0.039-0.519-0.34-0.735-0.54-0.669C9.356,38.25,9.215,38.409,9.217,38.693z"/><radialGradient id="fJmyyD3Sg_rgB~PzgxJHKw" cx="20.445" cy="3.338" r="11.934" gradientTransform="matrix(1 0 0 -1 0 48)" gradientUnits="userSpaceOnUse"><stop offset="0" stop-color="#505050"/><stop offset=".999" stop-color="#333"/></radialGradient><path fill="url(#fJmyyD3Sg_rgB~PzgxJHKw)" d="M9.274,38.786c0.008,1.152,0.014,2.315,0.079,3.493c0.056,1.077,0.163,2.171,0.374,3.277 c0.018,0.105,0.631,0.211,0.652,0.317h0.451h0.451c-0.199-0.649-0.372-1.274-0.524-1.894c-0.111-0.455-0.211-0.907-0.3-1.364 c-0.03-0.152-0.058-0.303-0.086-0.456c-0.113-0.629-0.21-1.272-0.293-1.95c-0.042-0.346-0.082-0.699-0.119-1.064 c-0.037-0.475-0.284-0.71-0.45-0.72C9.434,38.37,9.269,38.508,9.274,38.786z"/><radialGradient id="fJmyyD3Sg_rgB~PzgxJHKx" cx="19.58" cy="3.314" r="10.962" gradientTransform="matrix(1 0 0 -1 0 48)" gradientUnits="userSpaceOnUse"><stop offset="0" stop-color="#494949"/><stop offset=".999" stop-color="#333"/></radialGradient><path fill="url(#fJmyyD3Sg_rgB~PzgxJHKx)" d="M9.332,38.879c0.014,1.148,0.029,2.296,0.099,3.457c0.06,1.025,0.166,2.063,0.362,3.115 c0.024,0.14,0.495,0.281,0.524,0.422h0.428h0.428c-0.192-0.626-0.356-1.23-0.499-1.828c-0.104-0.44-0.198-0.878-0.281-1.32 c-0.028-0.148-0.054-0.295-0.08-0.445c-0.105-0.609-0.194-1.232-0.272-1.885c-0.04-0.333-0.077-0.673-0.112-1.025 c-0.035-0.431-0.228-0.684-0.36-0.771C9.512,38.49,9.324,38.607,9.332,38.879z"/><radialGradient id="fJmyyD3Sg_rgB~PzgxJHKy" cx="18.715" cy="3.292" r="9.991" gradientTransform="matrix(1 0 0 -1 0 48)" gradientUnits="userSpaceOnUse"><stop offset="0" stop-color="#424242"/><stop offset=".999" stop-color="#333"/></radialGradient><path fill="url(#fJmyyD3Sg_rgB~PzgxJHKy)" d="M9.389,38.973c0.019,1.145,0.042,2.276,0.12,3.42c0.064,0.973,0.168,1.954,0.35,2.954 c0.03,0.175,0.359,0.351,0.395,0.528h0.405h0.405c-0.185-0.604-0.341-1.185-0.475-1.762c-0.098-0.426-0.184-0.85-0.261-1.277 c-0.026-0.144-0.05-0.288-0.074-0.433c-0.096-0.59-0.178-1.19-0.251-1.82c-0.037-0.32-0.072-0.648-0.106-0.985 c-0.033-0.388-0.172-0.659-0.272-0.822C9.589,38.611,9.378,38.705,9.389,38.973z"/><radialGradient id="fJmyyD3Sg_rgB~PzgxJHKz" cx="17.85" cy="3.272" r="9.022" gradientTransform="matrix(1 0 0 -1 0 48)" gradientUnits="userSpaceOnUse"><stop offset="0" stop-color="#3a3a3a"/><stop offset=".999" stop-color="#333"/></radialGradient><path fill="url(#fJmyyD3Sg_rgB~PzgxJHKz)" d="M9.447,39.065c0.025,1.141,0.056,2.258,0.141,3.382c0.068,0.921,0.171,1.846,0.338,2.792 c0.035,0.21,0.224,0.421,0.266,0.634h0.382h0.382c-0.178-0.581-0.325-1.141-0.449-1.696c-0.092-0.412-0.171-0.821-0.242-1.233 c-0.024-0.14-0.046-0.281-0.069-0.421c-0.089-0.57-0.162-1.149-0.229-1.755c-0.034-0.307-0.067-0.622-0.099-0.945 C9.835,39.48,9.75,39.19,9.684,38.95C9.667,38.731,9.432,38.804,9.447,39.065z"/><path fill="#333" d="M9.504,39.159c0.03,1.138,0.071,2.239,0.161,3.345c0.091,1.106,0.232,2.215,0.463,3.37h0.359h0.359 c-0.171-0.558-0.309-1.097-0.424-1.631c-0.115-0.534-0.207-1.062-0.286-1.599c-0.08-0.549-0.146-1.109-0.209-1.69 c-0.061-0.583-0.12-1.187-0.184-1.83C9.744,38.851,9.487,38.902,9.504,39.159z"/><radialGradient id="fJmyyD3Sg_rgB~PzgxJHKA" cx="-360.893" cy="3.33" r="15.162" gradientTransform="rotate(180 -167.996 24)" gradientUnits="userSpaceOnUse"><stop offset="0" stop-color="#666"/><stop offset=".999" stop-color="#333"/></radialGradient><path fill="url(#fJmyyD3Sg_rgB~PzgxJHKA)" d="M39.113,38.517c0.017,2.362,0.081,4.909-0.434,7.483H36.57 c0.772-2.516,1.293-4.69,1.579-7.521C38.214,37.563,39.101,37.606,39.113,38.517z"/><radialGradient id="fJmyyD3Sg_rgB~PzgxJHKB" cx="-439.338" cy="3.303" r="19.7" gradientTransform="matrix(-.7143 0 0 -1 -287.994 48)" gradientUnits="userSpaceOnUse"><stop offset="0" stop-color="#5f5f5f"/><stop offset=".999" stop-color="#333"/></radialGradient><path fill="url(#fJmyyD3Sg_rgB~PzgxJHKB)" d="M39.055,38.612c0.006,2.355,0.046,4.847-0.463,7.388H36.68 c0.762-2.485,1.231-4.63,1.513-7.426C38.249,37.749,39.047,37.794,39.055,38.612z"/><radialGradient id="fJmyyD3Sg_rgB~PzgxJHKC" cx="-622.317" cy="3.276" r="30.398" gradientTransform="matrix(-.4286 0 0 -1 -239.995 48)" gradientUnits="userSpaceOnUse"><stop offset="0" stop-color="#575757"/><stop offset=".999" stop-color="#333"/></radialGradient><path fill="url(#fJmyyD3Sg_rgB~PzgxJHKC)" d="M38.996,38.707c-0.005,2.347,0.011,4.785-0.491,7.293H36.79 c0.753-2.453,1.169-4.571,1.448-7.33C38.284,37.935,38.993,37.981,38.996,38.707z"/><radialGradient id="fJmyyD3Sg_rgB~PzgxJHKD" cx="-1537.115" cy="3.25" r="84.122" gradientTransform="matrix(-.1429 0 0 -1 -191.996 48)" gradientUnits="userSpaceOnUse"><stop offset="0" stop-color="#505050"/><stop offset=".999" stop-color="#333"/></radialGradient><path fill="url(#fJmyyD3Sg_rgB~PzgxJHKD)" d="M38.938,38.801c-0.016,2.34-0.025,4.723-0.52,7.199H36.9 c0.743-2.421,1.107-4.512,1.382-7.235C38.319,38.122,38.938,38.169,38.938,38.801z"/><radialGradient id="fJmyyD3Sg_rgB~PzgxJHKE" cx="1339.9" cy="3.223" r="77.171" gradientTransform="matrix(.1429 0 0 -1 -143.997 48)" gradientUnits="userSpaceOnUse"><stop offset="0" stop-color="#494949"/><stop offset=".999" stop-color="#333"/></radialGradient><path fill="url(#fJmyyD3Sg_rgB~PzgxJHKE)" d="M38.879,38.896c-0.027,2.333-0.06,4.661-0.548,7.104H37.01 c0.733-2.389,1.046-4.453,1.317-7.14C38.355,38.308,38.884,38.356,38.879,38.896z"/><radialGradient id="fJmyyD3Sg_rgB~PzgxJHKF" cx="332.705" cy="3.197" r="23.453" gradientTransform="matrix(.4286 0 0 -1 -95.998 48)" gradientUnits="userSpaceOnUse"><stop offset="0" stop-color="#424242"/><stop offset=".999" stop-color="#333"/></radialGradient><path fill="url(#fJmyyD3Sg_rgB~PzgxJHKF)" d="M38.821,38.991c-0.039,2.326-0.095,4.599-0.577,7.009H37.12 c0.723-2.357,0.984-4.393,1.252-7.045C38.39,38.494,38.83,38.544,38.821,38.991z"/><radialGradient id="fJmyyD3Sg_rgB~PzgxJHKG" cx="131.267" cy="3.17" r="12.742" gradientTransform="matrix(.7143 0 0 -1 -47.999 48)" gradientUnits="userSpaceOnUse"><stop offset="0" stop-color="#3a3a3a"/><stop offset=".999" stop-color="#333"/></radialGradient><path fill="url(#fJmyyD3Sg_rgB~PzgxJHKG)" d="M38.762,39.085c-0.05,2.318-0.13,4.537-0.606,6.915H37.23 c0.714-2.326,0.922-4.334,1.186-6.95C38.425,38.681,38.775,38.732,38.762,39.085z"/><path fill="#333" d="M38.704,39.18c-0.061,2.311-0.165,4.474-0.634,6.82h-0.73c0.704-2.294,0.86-4.275,1.121-6.855 C38.46,38.867,38.721,38.919,38.704,39.18z"/><radialGradient id="fJmyyD3Sg_rgB~PzgxJHKH" cx="-635.384" cy="2.799" r="2.274" gradientTransform="matrix(-1.0734 .1748 -.4815 -2.1652 -668.142 138.654)" gradientUnits="userSpaceOnUse"><stop offset="0" stop-color="#ffe16e"/><stop offset=".461" stop-color="#ffd226"/><stop offset=".658" stop-color="#fbc921"/><stop offset=".978" stop-color="#f1b114"/><stop offset=".999" stop-color="#f0af13"/></radialGradient><path fill="url(#fJmyyD3Sg_rgB~PzgxJHKH)" d="M13.187,18.9c-0.909-0.238-3.105-0.086-3.181,2.096c-0.072,2.063,0.555,3.003,1.389,3.889c0.935,0.993,2.614,0.986,2.476,0.197C13.732,24.292,13.187,18.9,13.187,18.9z"/><radialGradient id="fJmyyD3Sg_rgB~PzgxJHKI" cx="1.798" cy="2.799" r="2.308" gradientTransform="matrix(1.0633 .1748 .477 -2.1652 32.276 27.297)" gradientUnits="userSpaceOnUse"><stop offset="0" stop-color="#ffe16e"/><stop offset=".461" stop-color="#ffd226"/><stop offset=".741" stop-color="#f8c21d"/><stop offset=".999" stop-color="#f0af13"/></radialGradient><path fill="url(#fJmyyD3Sg_rgB~PzgxJHKI)" d="M34.843,18.9c0.9-0.238,3.076-0.086,3.151,2.096c0.071,2.063-0.55,3.003-1.376,3.889c-0.926,0.993-2.59,0.986-2.453,0.197C34.303,24.292,34.843,18.9,34.843,18.9z"/><radialGradient id="fJmyyD3Sg_rgB~PzgxJHKJ" cx="40.366" cy="53.244" r="14.826" fx="40.288" fy="46.893" gradientTransform="matrix(.8889 0 0 -1.0839 -11.863 76.219)" gradientUnits="userSpaceOnUse"><stop offset="0" stop-color="#ffe16e"/><stop offset=".629" stop-color="#ffd226"/><stop offset=".75" stop-color="#fdcd23"/><stop offset=".899" stop-color="#f6bd1b"/><stop offset=".999" stop-color="#f0af13"/></radialGradient><path fill="url(#fJmyyD3Sg_rgB~PzgxJHKJ)" d="M36.841,19.231c0,2.929-1.508,6.897-2.917,9.093C31.054,32.797,26.626,35,24.003,35c-2.558,0-7.216-2.236-9.954-6.676c-1.37-2.221-2.853-6.164-2.853-9.093c0-0.643,0.017-5.197,0.051-5.774c0.196-3.316,2.54-11.442,12.772-11.442c10.234,0,12.511,7.927,12.745,11.048C36.815,13.758,36.841,18.442,36.841,19.231z"/><radialGradient id="fJmyyD3Sg_rgB~PzgxJHKK" cx="22.827" cy="40.377" r="8.788" gradientTransform="matrix(-.0116 1.0209 1.473 .017 -35.235 -13.584)" gradientUnits="userSpaceOnUse"><stop offset="0" stop-color="#c69c6d"/><stop offset=".232" stop-color="#aa8054"/><stop offset=".474" stop-color="#946a40"/><stop offset=".629" stop-color="#8c6239"/><stop offset=".734" stop-color="#875d34"/><stop offset=".865" stop-color="#774e27"/><stop offset=".999" stop-color="#603813"/></radialGradient><path fill="url(#fJmyyD3Sg_rgB~PzgxJHKK)" d="M11.645,15.726c1.345-0.378,4.786-2.494,7.48-5.898c0.308-0.389,0.859-0.461,1.276-0.195c1.805,1.152,5.795,1.982,10.745,1.221c0.338-0.052,0.681,0.066,0.901,0.33c1.848,2.222,2.371,3.378,3.914,4.303c1.173,0.708,2.076,2.222,2.195,3.018C38.511,14.977,39.42,1,23.958,1c-1.602,0-3.256,0.301-4.382,1.256c-0.734-0.151-1.88-0.055-2.644,0.301c-8.519,3.977-6.875,14.745-6.973,16.37C10.12,16.55,11.11,15.964,11.645,15.726z"/><g><path fill="#fac729" d="M36.801,17.967c-0.119-0.78-2.873-3.809-4.717-5.986c-0.219-0.259-0.562-0.374-0.899-0.324 c-4.937,0.745-8.989-1.058-10.789-2.186c-0.416-0.261-0.966-0.19-1.273,0.191c-2.06,2.556-6.197,7.295-7.891,8.175 c-0.027,0.156-0.021,0.959-0.021,1.329c1.906-0.664,6.226-4.886,8.339-7.508c0.307-0.381,0.592-0.428,1.008-0.167 c1.8,1.128,5.285,2.004,10.223,1.259c0.337-0.051,0.706,0.045,0.899,0.324c1.602,2.324,4.216,5.564,5.151,6.105 C36.831,18.697,36.85,18.263,36.801,17.967z"/><path fill="#e0af25" d="M36.807,17.984c-0.119-0.78-2.905-3.916-4.749-6.093c-0.219-0.259-0.562-0.374-0.899-0.324 c-4.937,0.745-8.964-0.968-10.764-2.096c-0.416-0.261-0.966-0.19-1.273,0.191c-2.06,2.556-6.201,7.307-7.895,8.187 c-0.027,0.156-0.019,0.909-0.02,1.247c2.008-0.789,6.108-4.766,8.32-7.589c0.303-0.384,0.592-0.428,1.008-0.167 c1.8,1.128,5.341,2.046,10.278,1.302c0.337-0.051,0.697,0.052,0.89,0.33c1.661,2.402,4.217,5.613,5.128,6.154 C36.834,18.617,36.857,18.28,36.807,17.984z"/><path fill="#c59820" d="M36.813,18.001c-0.119-0.78-2.936-4.023-4.78-6.2c-0.219-0.259-0.562-0.374-0.899-0.324 c-4.937,0.745-8.938-0.878-10.738-2.007c-0.416-0.261-0.966-0.19-1.273,0.191c-2.06,2.556-6.205,7.319-7.899,8.199 c-0.027,0.156-0.017,0.86-0.02,1.165c2.11-0.914,5.981-4.653,8.3-7.67c0.298-0.388,0.592-0.428,1.008-0.167 c1.8,1.128,5.396,2.089,10.334,1.344c0.337-0.051,0.688,0.058,0.881,0.337c1.721,2.48,4.219,5.662,5.104,6.203 C36.836,18.537,36.863,18.298,36.813,18.001z"/><path fill="#ab801c" d="M36.819,18.019c-0.119-0.78-2.968-4.13-4.812-6.307c-0.219-0.259-0.562-0.374-0.899-0.324 c-4.937,0.745-8.913-0.789-10.713-1.917c-0.416-0.261-0.966-0.19-1.273,0.191c-2.06,2.556-6.209,7.331-7.903,8.21 c-0.027,0.156-0.015,0.81-0.019,1.083c2.212-1.038,5.861-4.534,8.28-7.751c0.294-0.391,0.592-0.428,1.008-0.167 c1.8,1.128,5.452,2.132,10.389,1.387c0.337-0.051,0.679,0.065,0.872,0.344c1.78,2.558,4.22,5.712,5.081,6.253 C36.839,18.457,36.869,18.315,36.819,18.019z"/><path fill="#916818" d="M36.825,18.036c-0.119-0.78-2.999-4.237-4.843-6.414c-0.219-0.259-0.562-0.374-0.899-0.324 c-4.937,0.745-8.887-0.699-10.687-1.827c-0.416-0.261-0.966-0.19-1.273,0.191c-2.06,2.556-6.213,7.342-7.907,8.222 c-0.027,0.156-0.013,0.761-0.019,1c2.314-1.163,5.743-4.414,8.26-7.832c0.29-0.394,0.592-0.428,1.008-0.167 c1.8,1.128,5.507,2.175,10.445,1.43c0.337-0.051,0.67,0.072,0.863,0.351c1.839,2.636,4.221,5.761,5.057,6.302 C36.842,18.377,36.875,18.332,36.825,18.036z"/><path fill="#775014" d="M36.831,18.053c-0.119-0.78-3.031-4.344-4.875-6.521c-0.219-0.259-0.562-0.374-0.899-0.324 c-4.937,0.745-8.862-0.609-10.662-1.738c-0.416-0.261-0.966-0.19-1.273,0.191c-2.06,2.556-6.217,7.354-7.911,8.234 c-0.027,0.156-0.01,0.711-0.019,0.918c2.416-1.288,5.627-4.293,8.241-7.914c0.286-0.397,0.592-0.428,1.008-0.167 c1.8,1.128,5.563,2.217,10.5,1.473c0.337-0.051,0.66,0.079,0.855,0.357c1.899,2.714,4.222,5.81,5.034,6.351 C36.844,18.297,36.881,18.35,36.831,18.053z"/><path fill="#5c390f" d="M36.837,18.07c-0.119-0.78-3.062-4.451-4.906-6.628c-0.219-0.259-0.562-0.374-0.899-0.324 c-4.937,0.745-8.836-0.519-10.636-1.648c-0.416-0.261-0.966-0.19-1.273,0.191c-2.06,2.556-6.221,7.366-7.915,8.246 c-0.027,0.156-0.008,0.662-0.018,0.836c2.518-1.413,5.518-4.167,8.221-7.995c0.284-0.399,0.592-0.428,1.008-0.167 c1.8,1.128,5.618,2.26,10.556,1.515c0.337-0.051,0.651,0.086,0.846,0.364c1.958,2.792,4.224,5.86,5.011,6.401 C36.847,18.216,36.887,18.367,36.837,18.07z"/><path fill="#42210b" d="M36.843,18.088c-0.119-0.78-3.094-4.558-4.938-6.735c-0.219-0.259-0.562-0.374-0.899-0.324 c-4.937,0.745-8.811-0.43-10.611-1.558c-0.416-0.261-0.966-0.19-1.273,0.191c-2.06,2.556-6.225,7.378-7.919,8.258 c-0.027,0.156-0.006,0.612-0.018,0.754c2.62-1.537,5.4-4.047,8.201-8.076c0.28-0.402,0.592-0.428,1.008-0.167 c1.8,1.128,5.674,2.303,10.611,1.558c0.337-0.051,0.642,0.093,0.837,0.371c2.017,2.87,4.225,5.909,4.987,6.45 C36.85,18.136,36.893,18.384,36.843,18.088z"/></g><g><radialGradient id="fJmyyD3Sg_rgB~PzgxJHKL" cx="24.339" cy="34.509" r="11.669" gradientTransform="matrix(.9951 0 0 -1 -.634 48)" gradientUnits="userSpaceOnUse"><stop offset="0" stop-color="#c69c6d"/><stop offset=".232" stop-color="#aa8054"/><stop offset=".474" stop-color="#946a40"/><stop offset=".629" stop-color="#8c6239"/><stop offset=".734" stop-color="#875d34"/><stop offset=".865" stop-color="#774e27"/><stop offset=".999" stop-color="#603813"/></radialGradient><path fill="url(#fJmyyD3Sg_rgB~PzgxJHKL)" d="M36.695,15.185c-0.885-1.406-1.799-3.432-3.647-5.609c-0.22-0.259-0.563-0.374-0.901-0.324 c-4.83,0.727-8.338-0.416-10.213-1.546c-0.513-0.434-1.469-0.959-1.273-3.272c0.115-1.359-2.154-1.451-2.766,0.098 c0,0-0.881,1.525-0.661,3.469c0.11,0.357-0.662,1.122-0.71,1.181c-2.694,3.334-3.789,4.817-5.459,6.322 C9.907,16.571,9.88,20.43,9.88,20.43c0.107-2.146,0.741-2.408,1.619-2.979c1.225-0.769,4.911-4.13,7.605-7.464 c0.308-0.381,0.937-0.441,1.355-0.18c1.805,1.128,5.61,2.015,10.559,1.27c0.338-0.051,0.857,0.119,1.077,0.377 c1.848,2.177,2.585,4.479,3.851,5.745c0.997,0.996,2.092,1.987,2.211,2.768C38.193,19.375,37.495,16.456,36.695,15.185z"/><radialGradient id="fJmyyD3Sg_rgB~PzgxJHKM" cx="24.23" cy="34.446" r="11.645" gradientTransform="matrix(.9958 0 0 -1 -.544 48)" gradientUnits="userSpaceOnUse"><stop offset="0" stop-color="#b78e60"/><stop offset=".188" stop-color="#a47a4f"/><stop offset=".457" stop-color="#8e643b"/><stop offset=".629" stop-color="#865c34"/><stop offset=".744" stop-color="#81572f"/><stop offset=".886" stop-color="#714822"/><stop offset=".999" stop-color="#603813"/></radialGradient><path fill="url(#fJmyyD3Sg_rgB~PzgxJHKM)" d="M36.608,15.457c-0.912-1.436-1.884-3.45-3.686-5.681c-0.213-0.263-0.563-0.374-0.901-0.324 c-4.83,0.727-8.413-0.404-10.288-1.534c-0.513-0.434-1.451-0.997-1.247-3.417c0.108-1.272-1.905-1.299-2.444,0.077 c0,0-0.824,1.581-0.556,3.512c0.11,0.357-0.567,1.031-0.614,1.091c-2.785,3.547-4.143,5.171-5.744,6.602 c-1.157,1.05-1.245,4.509-1.252,4.647c0.132-1.985,0.794-2.297,1.626-2.852c1.739-1.199,4.908-4.244,7.602-7.578 c0.308-0.381,0.926-0.443,1.343-0.182c1.805,1.128,5.631,2.057,10.58,1.312c0.338-0.051,0.838,0.107,1.052,0.37 c1.789,2.191,2.525,4.369,3.885,5.795c0.967,1.014,2.073,1.974,2.194,2.764C38.174,19.328,37.392,16.695,36.608,15.457z"/><radialGradient id="fJmyyD3Sg_rgB~PzgxJHKN" cx="24.121" cy="34.384" r="11.621" gradientTransform="matrix(.9965 0 0 -1 -.453 48)" gradientUnits="userSpaceOnUse"><stop offset="0" stop-color="#a97f53"/><stop offset=".129" stop-color="#9d7449"/><stop offset=".434" stop-color="#875e35"/><stop offset=".629" stop-color="#7f562e"/><stop offset=".759" stop-color="#7a5129"/><stop offset=".92" stop-color="#6a421c"/><stop offset=".999" stop-color="#603813"/></radialGradient><path fill="url(#fJmyyD3Sg_rgB~PzgxJHKN)" d="M36.52,15.729c-0.938-1.465-1.969-3.468-3.724-5.754C32.59,9.707,32.233,9.6,31.895,9.651 c-4.83,0.727-8.489-0.392-10.363-1.522c-0.513-0.434-1.434-1.034-1.221-3.562c0.101-1.184-1.655-1.147-2.122,0.055 c0,0-0.766,1.636-0.451,3.555c0.11,0.357-0.473,0.94-0.519,1c-2.885,3.752-4.497,5.525-6.03,6.883 c-1.156,1.034-1.304,4.093-1.318,4.369c0.156-1.823,0.847-2.186,1.633-2.724c2.252-1.629,4.905-4.358,7.599-7.692 c0.308-0.381,0.915-0.444,1.332-0.183c1.805,1.128,5.652,2.099,10.602,1.354c0.338-0.051,0.818,0.095,1.027,0.362 c1.729,2.205,2.466,4.255,3.918,5.846c0.939,1.029,2.053,1.961,2.177,2.76C38.155,19.28,37.289,16.933,36.52,15.729z"/><radialGradient id="fJmyyD3Sg_rgB~PzgxJHKO" cx="24.012" cy="34.322" r="11.598" gradientTransform="matrix(.9972 0 0 -1 -.362 48)" gradientUnits="userSpaceOnUse"><stop offset="0" stop-color="#9a7146"/><stop offset=".035" stop-color="#976f44"/><stop offset=".397" stop-color="#815830"/><stop offset=".629" stop-color="#795029"/><stop offset=".776" stop-color="#744b24"/><stop offset=".96" stop-color="#643c17"/><stop offset=".999" stop-color="#603813"/></radialGradient><path fill="url(#fJmyyD3Sg_rgB~PzgxJHKO)" d="M36.432,16c-0.964-1.494-2.054-3.486-3.762-5.826c-0.2-0.273-0.563-0.374-0.901-0.324 c-4.83,0.727-8.564-0.379-10.438-1.51c-0.513-0.434-1.416-1.072-1.195-3.707c0.095-1.097-1.405-0.995-1.8,0.033 c0,0-0.709,1.692-0.347,3.598c0.11,0.357-0.378,0.85-0.423,0.91c-2.978,3.963-4.852,5.879-6.316,7.163 c-1.154,1.017-1.362,3.677-1.383,4.091c0.18-1.662,0.9-2.076,1.641-2.597c2.765-2.058,4.903-4.473,7.597-7.807 c0.308-0.381,0.904-0.446,1.321-0.185c1.805,1.128,5.674,2.141,10.623,1.396c0.338-0.051,0.799,0.083,1.002,0.354 c1.669,2.22,2.41,4.139,3.952,5.896c0.914,1.042,2.034,1.947,2.16,2.757C38.137,19.233,37.185,17.172,36.432,16z"/><radialGradient id="fJmyyD3Sg_rgB~PzgxJHKP" cx="23.904" cy="34.26" r="11.574" gradientTransform="matrix(.9979 0 0 -1 -.272 48)" gradientUnits="userSpaceOnUse"><stop offset="0" stop-color="#8c633a"/><stop offset=".346" stop-color="#7b522b"/><stop offset=".629" stop-color="#734a23"/><stop offset=".803" stop-color="#6e451e"/><stop offset=".999" stop-color="#603813"/></radialGradient><path fill="url(#fJmyyD3Sg_rgB~PzgxJHKP)" d="M36.344,16.272c-0.991-1.523-2.139-3.504-3.8-5.899c-0.193-0.278-0.563-0.374-0.901-0.324 c-4.83,0.727-8.639-0.367-10.514-1.497c-0.513-0.434-1.398-1.109-1.168-3.852c0.088-1.01-1.156-0.843-1.478,0.011 c0,0-0.651,1.747-0.242,3.641c0.11,0.357-0.283,0.759-0.328,0.82c-3.069,4.175-5.206,6.232-6.601,7.443 c-1.153,1.001-1.421,3.26-1.449,3.813c0.204-1.501,0.954-1.965,1.648-2.469c3.278-2.488,4.9-4.587,7.594-7.921 c0.308-0.381,0.893-0.447,1.31-0.186c1.805,1.128,5.695,2.183,10.645,1.438c0.338-0.051,0.779,0.072,0.976,0.347 c1.609,2.234,2.357,4.02,3.985,5.947c0.89,1.054,2.014,1.934,2.142,2.753C38.118,19.185,37.082,17.411,36.344,16.272z"/><radialGradient id="fJmyyD3Sg_rgB~PzgxJHKQ" cx="23.795" cy="34.197" r="11.551" gradientTransform="matrix(.9986 0 0 -1 -.181 48)" gradientUnits="userSpaceOnUse"><stop offset="0" stop-color="#7d552d"/><stop offset=".257" stop-color="#754c25"/><stop offset=".629" stop-color="#6d441e"/><stop offset=".847" stop-color="#683f19"/><stop offset=".999" stop-color="#603813"/></radialGradient><path fill="url(#fJmyyD3Sg_rgB~PzgxJHKQ)" d="M36.256,16.544c-1.017-1.553-2.224-3.522-3.838-5.971c-0.187-0.282-0.563-0.374-0.901-0.324 c-4.83,0.727-8.714-0.355-10.589-1.485c-0.513-0.434-1.387-1.147-1.142-3.997c0.079-0.923-0.906-0.691-1.156-0.01 c0,0-0.593,1.803-0.137,3.685c0.11,0.357-0.188,0.668-0.232,0.73c-3.158,4.389-5.561,6.586-6.887,7.724 c-1.151,0.985-1.48,2.844-1.515,3.535c0.228-1.34,1.007-1.854,1.655-2.342c3.791-2.918,4.898-4.701,7.592-8.035 c0.308-0.381,0.882-0.449,1.299-0.188c1.805,1.128,5.717,2.225,10.666,1.48c0.338-0.051,0.76,0.06,0.951,0.339 c1.549,2.249,2.307,3.899,4.019,5.997c0.868,1.064,1.995,1.921,2.125,2.75C38.099,19.138,36.978,17.65,36.256,16.544z"/><radialGradient id="fJmyyD3Sg_rgB~PzgxJHKR" cx="23.687" cy="34.08" r="11.54" gradientTransform="matrix(.9993 0 0 -1 -.09 48)" gradientUnits="userSpaceOnUse"><stop offset="0" stop-color="#6f4620"/><stop offset=".042" stop-color="#6e451f"/><stop offset=".629" stop-color="#663e18"/><stop offset=".975" stop-color="#613914"/><stop offset=".999" stop-color="#603813"/></radialGradient><path fill="url(#fJmyyD3Sg_rgB~PzgxJHKR)" d="M36.169,16.816c-1.044-1.582-2.309-3.54-3.876-6.044c-0.18-0.287-0.563-0.374-0.901-0.324 c-4.83,0.727-8.79-0.343-10.664-1.473c-0.513-0.434-1.371-1.185-1.116-4.142c0.072-0.835-0.657-0.539-0.834-0.032 c0,0-0.536,1.858-0.032,3.728c0.11,0.357-0.093,0.578-0.136,0.64c-3.239,4.609-5.915,6.94-7.172,8.004 c-1.15,0.969-1.539,2.428-1.581,3.257c0.252-1.179,1.06-1.744,1.663-2.214c4.305-3.348,4.895-4.815,7.589-8.149 c0.308-0.381,0.871-0.45,1.288-0.19c1.805,1.128,5.738,2.266,10.688,1.522c0.338-0.051,0.74,0.048,0.926,0.331 c1.489,2.263,2.26,3.776,4.052,6.047c0.847,1.074,1.976,1.907,2.108,2.746C38.08,19.091,36.875,17.889,36.169,16.816z"/><path fill="#603813" d="M36.081,17.087c-1.07-1.611-2.394-3.558-3.914-6.116c-0.173-0.292-0.563-0.374-0.901-0.324 c-4.83,0.727-8.865-0.331-10.739-1.461c-0.513-0.434-1.346-1.221-1.09-4.287c0.068-0.748-0.407-0.387-0.511-0.054 c0,0-0.478,1.914,0.073,3.771c0.11,0.357,0.002,0.487-0.041,0.549c-3.33,4.821-6.269,7.294-7.458,8.284 c-1.149,0.953-1.598,2.012-1.647,2.979c0.277-1.018,1.113-1.633,1.67-2.087c4.818-3.777,4.893-4.929,7.587-8.263 c0.308-0.381,0.859-0.452,1.276-0.191c1.805,1.128,5.759,2.308,10.709,1.564c0.338-0.051,0.721,0.036,0.901,0.324 c1.429,2.277,2.216,3.65,4.086,6.098c0.827,1.083,1.956,1.894,2.091,2.743C38.062,19.043,36.772,18.128,36.081,17.087z"/></g><path fill="#805b2a" d="M14.322,20.29c-0.023,0.367,0.055,0.336,0.196,0.519c0,0,1.594,2.204,6.402,0.695c0.348-0.124,0.598-0.36,0.562-0.644C20.866,15.978,14.699,16.695,14.322,20.29z"/><path fill="#fff" d="M14.393,20.07c-0.12,0.258-0.082,0.464,0,0.672c0.343,0.906,3.095,4.131,6.809,0.745c0.277-0.239,0.321-0.45,0.252-0.748C21.385,20.44,20.423,18,17.902,18C15.405,18,14.601,19.719,14.393,20.07z"/><linearGradient id="fJmyyD3Sg_rgB~PzgxJHKS" x1="15.901" x2="20.085" y1="27.931" y2="27.931" gradientTransform="matrix(1 0 0 -1 0 48)" gradientUnits="userSpaceOnUse"><stop offset="0" stop-color="#c69c6d"/><stop offset="1" stop-color="#754c24"/></linearGradient><circle cx="17.993" cy="20.069" r="2.092" fill="url(#fJmyyD3Sg_rgB~PzgxJHKS)"/><radialGradient id="fJmyyD3Sg_rgB~PzgxJHKT" cx="17.993" cy="27.931" r="1.053" gradientTransform="matrix(1 0 0 -1 0 48)" gradientUnits="userSpaceOnUse"><stop offset="0" stop-color="#1c1911"/><stop offset=".999" stop-color="#171714"/></radialGradient><circle cx="17.993" cy="20.069" r="1.053" fill="url(#fJmyyD3Sg_rgB~PzgxJHKT)"/><circle cx="17.484" cy="19.526" r=".494" fill="#fff"/><path fill="#805b2a" d="M33.574,20.29c0.023,0.367-0.055,0.336-0.196,0.519c0,0-1.594,2.204-6.402,0.695c-0.348-0.124-0.598-0.36-0.562-0.644C27.03,15.978,33.197,16.695,33.574,20.29z"/><path fill="#fff" d="M33.503,20.07c0.12,0.258,0.082,0.464,0,0.672c-0.343,0.906-3.095,4.131-6.809,0.745c-0.277-0.239-0.321-0.45-0.252-0.748C26.511,20.44,27.473,18,29.994,18C32.49,18,33.295,19.719,33.503,20.07z"/><linearGradient id="fJmyyD3Sg_rgB~PzgxJHKU" x1="73.432" x2="77.616" y1="165.932" y2="165.932" gradientTransform="translate(-45.622 -145.863)" gradientUnits="userSpaceOnUse"><stop offset="0" stop-color="#c69c6d"/><stop offset="1" stop-color="#754c24"/></linearGradient><circle cx="29.902" cy="20.069" r="2.092" fill="url(#fJmyyD3Sg_rgB~PzgxJHKU)"/><radialGradient id="fJmyyD3Sg_rgB~PzgxJHKV" cx="-796.475" cy="27.931" r="1.053" gradientTransform="rotate(180 -383.287 24)" gradientUnits="userSpaceOnUse"><stop offset="0" stop-color="#1c1911"/><stop offset=".999" stop-color="#171714"/></radialGradient><circle cx="29.902" cy="20.069" r="1.053" fill="url(#fJmyyD3Sg_rgB~PzgxJHKV)"/><circle cx="29.422" cy="19.526" r=".494" fill="#fff"/><g><path fill="#805b2a" d="M32.167,16.222c-1.366-0.349-2.812-0.246-4.06,0.234c-0.388,0.149-0.824-0.044-0.974-0.433 c-0.149-0.388,0.044-0.824,0.433-0.974c0.04-0.015,0.081-0.027,0.122-0.036l0.017-0.003c1.614-0.316,3.275-0.127,4.712,0.517 c0.187,0.083,0.27,0.302,0.187,0.489c-0.075,0.167-0.258,0.251-0.429,0.207L32.167,16.222z"/></g><g><path fill="#805b2a" d="M15.833,15.528c1.437-0.643,3.098-0.833,4.712-0.517l0.013,0.003 c0.408,0.08,0.675,0.476,0.595,0.884s-0.476,0.675-0.884,0.595c-0.042-0.008-0.087-0.021-0.126-0.036 c-1.248-0.48-2.693-0.583-4.06-0.234l-0.007,0.002c-0.198,0.051-0.4-0.069-0.45-0.267C15.581,15.78,15.672,15.6,15.833,15.528z"/></g><path fill="#8e2809" d="M20.184,28.94c-0.219-0.023-0.233,0.162-0.091,0.347C21.117,30.629,22.631,31,23.997,31c1.255,0,3.188-0.524,3.93-1.687c0.125-0.196,0.089-0.415-0.117-0.373c-1.936,0.547-2.832-0.981-3.852,0.037C22.968,27.988,21.983,29.3,20.184,28.94z"/><path fill="#601808" d="M23.915,30.365c0.052-0.022,1.444-0.601,2.635-0.74c-1.524-0.118-2.566,0.138-2.64,0.157c-0.074-0.019-1.116-0.275-2.64-0.157c1.192,0.139,2.584,0.718,2.635,0.74v0.004c0,0,0.004-0.002,0.005-0.002l0.005,0.002V30.365z"/><radialGradient id="fJmyyD3Sg_rgB~PzgxJHKW" cx="24.259" cy="31.417" r="10.699" gradientTransform="matrix(1 0 0 -1 0 48)" gradientUnits="userSpaceOnUse"><stop offset="0" stop-color="#666"/><stop offset=".999" stop-color="#333"/></radialGradient><path fill="url(#fJmyyD3Sg_rgB~PzgxJHKW)" d="M36,3H12c-0.898,3.336-1.383,5.691-1.813,9.021C15.207,12.553,19.697,13.518,24,15c4.693-1.664,9.364-2.753,14-3C37.726,8.753,37.041,6.415,36,3z"/><radialGradient id="fJmyyD3Sg_rgB~PzgxJHKX" cx="24" cy="44.345" r="14.321" gradientTransform="matrix(1 0 0 -1 0 48)" gradientUnits="userSpaceOnUse"><stop offset="0" stop-color="#1a1a1a"/><stop offset=".999" stop-color="#333"/></radialGradient><polygon fill="url(#fJmyyD3Sg_rgB~PzgxJHKX)" points="24,6.844 4.042,3.727 4,3.097 23.969,0.466 44,3.042 43.979,3.727"/><radialGradient id="fJmyyD3Sg_rgB~PzgxJHKY" cx="24.356" cy="41.078" r="14.357" gradientTransform="matrix(.9984 0 0 -.8769 -.1 43.091)" gradientUnits="userSpaceOnUse"><stop offset="0" stop-color="gray"/><stop offset=".999" stop-color="#333"/></radialGradient><polygon fill="url(#fJmyyD3Sg_rgB~PzgxJHKY)" points="23.969,6.138 4,3.069 23.969,0 43.938,3.069"/><g><radialGradient id="fJmyyD3Sg_rgB~PzgxJHKZ" cx="24.114" cy="40.837" r="14.387" gradientTransform="matrix(1 0 0 -1 0 48)" gradientUnits="userSpaceOnUse"><stop offset="0" stop-color="gray"/><stop offset=".999" stop-color="#333"/></radialGradient><path fill="url(#fJmyyD3Sg_rgB~PzgxJHKZ)" d="M23.906,2.5l-8.578,0.398L6.75,3.297l0.631,0.292l5.199,0.799l5.324-0.241l5.324-0.241 c0.379,0.004,0.696-0.257,0.845-0.565S24.203,2.68,23.906,2.5z"/><radialGradient id="fJmyyD3Sg_rgB~PzgxJHKaa" cx="24.07" cy="41.146" r="13.353" gradientTransform="matrix(1 0 0 -1 0 48)" gradientUnits="userSpaceOnUse"><stop offset="0" stop-color="#757575"/><stop offset=".999" stop-color="#333"/></radialGradient><path fill="url(#fJmyyD3Sg_rgB~PzgxJHKaa)" d="M15.344,2.922L6.777,3.317l0.851,0.322l5.443,0.64L18.14,4.05l4.921-0.223 c0.006,0,0.137-0.006,0.142-0.006c0.369,0.002,0.671-0.23,0.819-0.507c0.15-0.28,0.143-0.605-0.112-0.787L15.344,2.922z"/><radialGradient id="fJmyyD3Sg_rgB~PzgxJHKab" cx="24.029" cy="41.454" r="12.318" gradientTransform="matrix(1 0 0 -1 0 48)" gradientUnits="userSpaceOnUse"><stop offset="0" stop-color="#6a6a6a"/><stop offset=".999" stop-color="#333"/></radialGradient><path fill="url(#fJmyyD3Sg_rgB~PzgxJHKab)" d="M15.359,2.945L6.804,3.337l1.07,0.352L13.56,4.17l4.814-0.218l4.662-0.211 c0.013,0,0.128-0.005,0.14-0.005c0.358,0,0.646-0.203,0.794-0.449c0.151-0.251,0.157-0.548-0.055-0.733L15.359,2.945z"/><radialGradient id="fJmyyD3Sg_rgB~PzgxJHKac" cx="23.989" cy="41.763" r="11.284" gradientTransform="matrix(1 0 0 -1 0 48)" gradientUnits="userSpaceOnUse"><stop offset="0" stop-color="#5f5f5f"/><stop offset=".999" stop-color="#333"/></radialGradient><path fill="url(#fJmyyD3Sg_rgB~PzgxJHKac)" d="M15.375,2.969L6.83,3.357l1.29,0.381l5.931,0.323l4.559-0.206l4.403-0.199 c0.019,0,0.12-0.004,0.138-0.004c0.348-0.001,0.621-0.176,0.768-0.391c0.152-0.223,0.171-0.492,0.001-0.68L15.375,2.969z"/><radialGradient id="fJmyyD3Sg_rgB~PzgxJHKad" cx="23.953" cy="42.072" r="10.25" gradientTransform="matrix(1 0 0 -1 0 48)" gradientUnits="userSpaceOnUse"><stop offset="0" stop-color="#535353"/><stop offset=".999" stop-color="#323232"/></radialGradient><path fill="url(#fJmyyD3Sg_rgB~PzgxJHKad)" d="M15.391,2.992L6.857,3.377l1.509,0.411l6.175,0.164l4.304-0.195l4.144-0.188 c0.026,0,0.112-0.003,0.136-0.003c0.338-0.003,0.596-0.149,0.742-0.334c0.154-0.195,0.185-0.436,0.057-0.626L15.391,2.992z"/><radialGradient id="fJmyyD3Sg_rgB~PzgxJHKae" cx="23.921" cy="42.38" r="9.215" gradientTransform="matrix(1 0 0 -1 0 48)" gradientUnits="userSpaceOnUse"><stop offset="0" stop-color="#484848"/><stop offset=".999" stop-color="#323232"/></radialGradient><path fill="url(#fJmyyD3Sg_rgB~PzgxJHKae)" d="M15.406,3.016L6.884,3.397l1.728,0.441l6.419,0.005L19.08,3.66l3.885-0.176 c0.032,0,0.104-0.002,0.134-0.003c0.328-0.005,0.571-0.121,0.716-0.276c0.156-0.166,0.199-0.379,0.114-0.572L15.406,3.016z"/><radialGradient id="fJmyyD3Sg_rgB~PzgxJHKaf" cx="23.897" cy="42.309" r="9.352" gradientTransform="matrix(1 0 0 -1 0 48)" gradientUnits="userSpaceOnUse"><stop offset="0" stop-color="#3d3d3d"/><stop offset=".999" stop-color="#323232"/></radialGradient><path fill="url(#fJmyyD3Sg_rgB~PzgxJHKaf)" d="M15.422,3.039L6.911,3.417l1.947,0.47l6.662-0.154l3.794-0.172l3.626-0.164 c0.039,0,0.096-0.001,0.132-0.002c0.318-0.007,0.547-0.093,0.69-0.218c0.158-0.137,0.213-0.323,0.17-0.518L15.422,3.039z"/><path fill="#323232" d="M9.104,3.938l6.906-0.313l6.906-0.313c0.379,0.004,0.634-0.053,0.794-0.161s0.226-0.266,0.226-0.464 l-8.5,0.375l-8.5,0.375L9.104,3.938z"/></g><linearGradient id="fJmyyD3Sg_rgB~PzgxJHKag" x1="2.042" x2="11.008" y1="40.287" y2="40.287" gradientTransform="matrix(1 0 0 -1 0 48)" gradientUnits="userSpaceOnUse"><stop offset=".2" stop-color="#fee06f"/><stop offset=".999" stop-color="#f1b326"/></linearGradient><path fill="url(#fJmyyD3Sg_rgB~PzgxJHKag)" d="M6.5,13c-0.276,0-0.292-0.224-0.292-0.5l0.001-8.98c0-0.268,0.21-0.487,0.478-0.499L23.61,2.426c0.922-0.016,0.954,0.468,0.248,0.562L7,3.729V12.5C7,12.776,6.776,13,6.5,13z"/><g><path fill="#f2b41f" d="M5.52,19.334c-0.118,0-0.223-0.084-0.245-0.204c-0.588-3.152,0.386-6.12,0.427-6.244 c0.044-0.131,0.188-0.199,0.316-0.158c0.131,0.043,0.202,0.185,0.158,0.316c-0.01,0.029-0.974,2.973-0.411,5.994 c0.025,0.136-0.064,0.266-0.2,0.292C5.55,19.333,5.535,19.334,5.52,19.334z"/></g><g><path fill="#c48d1e" d="M5.979,19.667c-0.118,0-0.223-0.084-0.245-0.204c-0.587-3.14,0.177-6.581,0.21-6.726 c0.03-0.135,0.168-0.22,0.299-0.188c0.135,0.03,0.219,0.164,0.188,0.299c-0.008,0.035-0.773,3.488-0.206,6.524 c0.025,0.136-0.064,0.266-0.2,0.292C6.01,19.666,5.995,19.667,5.979,19.667z"/></g><g><path fill="#f2b41f" d="M6.479,19.75c-0.118,0-0.223-0.084-0.245-0.204c-0.585-3.136,0.096-6.654,0.125-6.802 c0.026-0.136,0.161-0.227,0.293-0.197c0.136,0.026,0.224,0.158,0.197,0.293c-0.007,0.036-0.691,3.574-0.125,6.614 c0.025,0.136-0.064,0.266-0.2,0.292C6.509,19.749,6.494,19.75,6.479,19.75z"/></g><g><path fill="#f2b41f" d="M6.682,19.75c-0.016,0-0.031-0.001-0.046-0.004C6.5,19.72,6.41,19.59,6.436,19.454 c0.569-3.048,0.174-6.266,0.17-6.298c-0.017-0.137,0.08-0.262,0.217-0.279c0.134-0.021,0.262,0.079,0.279,0.217 c0.004,0.033,0.409,3.325-0.175,6.452C6.904,19.666,6.799,19.75,6.682,19.75z"/></g><g><path fill="#f2b41f" d="M7.612,19.333c-0.016,0-0.031-0.001-0.046-0.004c-0.136-0.025-0.225-0.156-0.2-0.292 c0.565-3.028-0.35-5.992-0.359-6.021c-0.042-0.132,0.032-0.272,0.163-0.313c0.132-0.041,0.272,0.032,0.313,0.163 c0.04,0.126,0.962,3.113,0.374,6.263C7.835,19.249,7.73,19.333,7.612,19.333z"/></g><g><path fill="#f2b41f" d="M6.57,19.375c-0.003,0-0.006,0-0.01,0c-0.138-0.005-0.246-0.122-0.24-0.26 c0.117-3,0.077-5.957,0.076-5.987c-0.002-0.138,0.108-0.251,0.247-0.253c0.001,0,0.002,0,0.003,0c0.137,0,0.248,0.109,0.25,0.247 c0,0.029,0.041,3-0.076,6.013C6.814,19.27,6.704,19.375,6.57,19.375z"/></g><g><path fill="#c48d1e" d="M7.182,19.667c-0.016,0-0.031-0.001-0.046-0.004C7,19.637,6.91,19.507,6.936,19.371 c0.568-3.039-0.198-6.489-0.206-6.524c-0.031-0.135,0.054-0.269,0.188-0.299c0.137-0.033,0.269,0.054,0.299,0.188 c0.033,0.145,0.797,3.586,0.21,6.726C7.404,19.583,7.299,19.667,7.182,19.667z"/></g><radialGradient id="fJmyyD3Sg_rgB~PzgxJHKah" cx="6.385" cy="35.813" r="1.158" gradientTransform="matrix(1 0 0 -1 0 48)" gradientUnits="userSpaceOnUse"><stop offset="0" stop-color="#fee06f"/><stop offset=".999" stop-color="#f1b326"/></radialGradient><circle cx="6.604" cy="12.5" r="1.5" fill="url(#fJmyyD3Sg_rgB~PzgxJHKah)"/><g><path fill="#c48d1e" d="M6.709,14.176c-0.472,0-1.057-0.1-1.292-0.381c-0.088-0.106-0.074-0.264,0.032-0.352 c0.107-0.088,0.264-0.074,0.352,0.032c0.071,0.085,0.425,0.202,0.908,0.202c0.001,0,0.003,0,0.004,0 c0.452,0,0.706-0.105,0.761-0.17c0.088-0.106,0.246-0.122,0.352-0.033c0.106,0.088,0.122,0.246,0.033,0.352 c-0.252,0.305-0.825,0.352-1.145,0.352C6.713,14.176,6.711,14.176,6.709,14.176z"/></g><radialGradient id="fJmyyD3Sg_rgB~PzgxJHKai" cx="-15.944" cy="20.081" r="1.709" gradientTransform="matrix(1.37 0 0 -1.3195 45.883 51.12)" gradientUnits="userSpaceOnUse"><stop offset=".245" stop-color="#cc9000"/><stop offset=".415" stop-color="#d09504" stop-opacity=".822"/><stop offset=".627" stop-color="#dca50f" stop-opacity=".599"/><stop offset=".851" stop-color="#eebd20" stop-opacity=".363"/><stop offset="1" stop-color="#fed12e" stop-opacity="0"/></radialGradient><path fill="url(#fJmyyD3Sg_rgB~PzgxJHKai)" d="M24.022,25.304c-0.788,0-1.429-0.2-1.825-0.417c-0.291-0.16-0.586-0.086-0.393,0.415c0.261,0.679,0.858,1.48,2.218,1.48c1.337,0,1.936-0.773,2.204-1.445c0.206-0.516-0.091-0.568-0.344-0.449C25.394,25.116,24.79,25.304,24.022,25.304z"/><radialGradient id="fJmyyD3Sg_rgB~PzgxJHKaj" cx="-83.257" cy="73.487" r="1.76" gradientTransform="matrix(1.4827 .036 .0172 -.7101 146.282 79.648)" gradientUnits="userSpaceOnUse"><stop offset=".479" stop-color="#fed53f"/><stop offset=".926" stop-color="#fed53f" stop-opacity=".141"/><stop offset="1" stop-color="#fed53f" stop-opacity="0"/></radialGradient><path fill="url(#fJmyyD3Sg_rgB~PzgxJHKaj)" d="M26.874,24.535c-0.018,0.757-1.286,1.339-2.831,1.302c-1.545-0.038-2.782-0.681-2.764-1.438s1.286-1.339,2.831-1.302C25.655,23.135,26.892,23.779,26.874,24.535z"/><radialGradient id="fJmyyD3Sg_rgB~PzgxJHKak" cx="24.117" cy="-149.705" r="1.411" gradientTransform="matrix(1 0 0 -.6596 0 -74.326)" gradientUnits="userSpaceOnUse"><stop offset=".004" stop-color="#fff4c9"/><stop offset="1" stop-color="#fff4c9" stop-opacity="0"/></radialGradient><ellipse cx="24.117" cy="24.419" fill="url(#fJmyyD3Sg_rgB~PzgxJHKak)" rx="1.411" ry=".931"/></svg>