<svg xmlns="http://www.w3.org/2000/svg" xmlns:xlink="http://www.w3.org/1999/xlink" viewBox="0 0 24 24" fill="#C6C6C6">
  <path d="M12 3C9.8027056 3 8 4.8027056 8 7C8 8.1971294 8.5462008 9.264839 9.3886719 10L7.6601562 10L4.9199219 3.6054688L3.0800781 4.3945312L5.5117188 10.068359C4.6447236 10.28739 4 11.064725 4 12L4.7773438 19L3 19L3 21L21 21L21 19L19.222656 19L20 12C20 11.064725 19.355276 10.28739 18.488281 10.068359L20.919922 4.3945312L19.080078 3.6054688L16.339844 10L14.611328 10C15.453799 9.264839 16 8.1971294 16 7C16 4.8027056 14.197294 3 12 3 z M 12 5C13.116414 5 14 5.8835859 14 7C14 8.1164141 13.116414 9 12 9C10.883586 9 10 8.1164141 10 7C10 5.8835859 10.883586 5 12 5 z M 6.0117188 12L17.988281 12L17.210938 19L6.7890625 19L6.0117188 12 z M 12 13 A 1 1 0 0 0 11 14 A 1 1 0 0 0 12 15 A 1 1 0 0 0 13 14 A 1 1 0 0 0 12 13 z" fill="#C6C6C6" />
</svg>