<svg xmlns="http://www.w3.org/2000/svg" xmlns:xlink="http://www.w3.org/1999/xlink" viewBox="0 0 48 48"><linearGradient id="R~mS6sN1M1TNFXxYL9qI6a" x1="5.992" x2="12.054" y1="41.056" y2="35.781" gradientTransform="matrix(.7697 .0534 .1418 .8016 -2.852 6.793)" gradientUnits="userSpaceOnUse"><stop offset="0" stop-color="#bfb8a5"/><stop offset=".299" stop-color="#a79f8f"/><stop offset=".596" stop-color="#8b8275"/><stop offset="1" stop-color="#5d524a"/></linearGradient><path fill="url(#R~mS6sN1M1TNFXxYL9qI6a)" d="M13.373,42.091c-0.714,0.642-2.958-0.688-5.012-2.972s-3.14-4.656-2.426-5.298 s2.958,0.688,5.012,2.972S14.087,41.449,13.373,42.091z"/><linearGradient id="R~mS6sN1M1TNFXxYL9qI6b" x1="48.096" x2=".195" y1="19.599" y2="43.149" gradientUnits="userSpaceOnUse"><stop offset="0" stop-color="#5d524a"/><stop offset=".113" stop-color="#695f55"/><stop offset=".716" stop-color="#a79f8f"/><stop offset="1" stop-color="#bfb8a5"/></linearGradient><path fill="url(#R~mS6sN1M1TNFXxYL9qI6b)" d="M15.395,40.517c-0.199-0.412-0.4-0.817-0.603-1.206c-0.553-1.059-1.076-2.06-1.648-2.85 c-1.886-2.604-3.926-4.145-6.063-4.581c-0.492-0.1-0.905-0.138-1.288-0.13c-1.361,0.041-2.022,0.784-2.022,2.271 c0,1.576,1.25,4.1,3.112,6.279c1.259,1.475,3.728,3.949,6.105,3.949c0.576,0,1.262-0.234,1.262-1.354 c0-0.132-0.021-0.286-0.066-0.497l-0.035-0.15c-0.039-0.15-0.085-0.309-0.144-0.476c-0.039-0.114-0.086-0.234-0.155-0.411 l-0.102-0.252h-0.003c-0.57-1.347-1.496-2.907-2.239-3.767c-1.754-2.029-3.267-3.143-4.762-3.506 c-0.282-0.068-0.578,0.027-0.774,0.246c-0.194,0.218-0.253,0.519-0.156,0.787c0.054,0.147,0.125,0.316,0.205,0.493 c0.139-0.005,0.246-0.056,0.246-0.056c-0.142-0.296,0.124-0.279,0.124-0.279c1.235,0.291,2.599,1.315,4.17,3.132 c0.77,0.891,1.745,2.658,2.183,3.825c0,0,0.123,0.52-0.02,0.75c-1.306-0.138-2.885-1.282-4.701-3.408 c-1.807-2.117-2.752-4.239-2.752-5.241c0-0.573,0.235-0.807,0.812-0.807c1.729,0,3.627,1.223,5.802,3.736 c0.467,0.541,1.114,1.52,1.674,2.564c0.444,0.829,2.277,4.044,2.707,4.597l0.716-0.878C16.981,43.3,16.312,42.412,15.395,40.517z"/><linearGradient id="R~mS6sN1M1TNFXxYL9qI6c" x1="34.084" x2="-1.256" y1="24.027" y2="44.789" gradientUnits="userSpaceOnUse"><stop offset="0" stop-color="#918878"/><stop offset=".196" stop-color="#978f7f"/><stop offset=".48" stop-color="#a8a292"/><stop offset=".818" stop-color="#c4c1b2"/><stop offset="1" stop-color="#d6d5c6"/></linearGradient><path fill="url(#R~mS6sN1M1TNFXxYL9qI6c)" d="M5.8,32c0.413-0.012,0.824,0.042,1.23,0.125c2.075,0.424,4.058,1.927,5.91,4.483 c0.559,0.771,1.079,1.766,1.629,2.819c0.878,1.679,1.677,3.707,2.949,4.985l1.458-1.775c-0.995-1.016-1.737-2.414-2.51-3.886 l-0.465-0.88c-0.572-1.091-1.912-3.646-4.208-5.454C9.256,30.419,7.148,30,5.828,30c-0.014,0-0.03,0.002-0.045,0.002l-1.625,1.362 c-0.054,0.031-0.107,0.064-0.191,0.138c-0.518,0.517-0.946,1.063-0.946,2.52c0,1.769,1.292,4.425,3.291,6.767 C7.655,42.361,10.309,45,12.988,45C14.229,45,15,44.194,15,42.896c0-1.624-1.922-4.881-2.926-6.043 c-2.14-2.474-4.094-3.823-5.991-3.823c-0.583,0-1.061,0.229-1.061,1.057c0,1.185,1.089,3.385,2.812,5.403 C9.822,41.819,11.556,43,12.988,43v-0.198c-0.02-0.202-0.216-0.735-0.346-1.073c0.005,0.354-1.948-0.428-4.049-2.889 c-1.267-1.484-2.171-3.033-2.545-4.055c-0.145-0.396,0.227-0.803,0.636-0.703c1.444,0.35,2.914,1.439,4.631,3.426 c0.765,0.884,1.722,2.531,2.262,3.854c0.001,0,0.002,0,0.003-0.001c0.021,0.051,0.037,0.099,0.057,0.149 c0.046,0.118,0.092,0.234,0.13,0.346c0.056,0.161,0.101,0.313,0.138,0.457c0.012,0.048,0.023,0.094,0.033,0.14 C13.975,42.615,14,42.769,14,42.896C14,43.649,13.679,44,12.988,44c-2.279,0-4.685-2.419-5.916-3.861 c-1.825-2.138-3.052-4.596-3.052-6.118C4.021,32.86,4.429,32.041,5.8,32z"/><linearGradient id="R~mS6sN1M1TNFXxYL9qI6d" x1="63.011" x2="-3.732" y1="15.63" y2="48.445" gradientUnits="userSpaceOnUse"><stop offset="0" stop-color="#5d524a"/><stop offset=".113" stop-color="#695f55"/><stop offset=".716" stop-color="#a79f8f"/><stop offset="1" stop-color="#bfb8a5"/></linearGradient><path fill="url(#R~mS6sN1M1TNFXxYL9qI6d)" d="M11.453,35.219c1.377,0.977,4.393,7.149,5.335,8.317L16,44.504 c-1.531-1.941-1.115-4.457-5.057-8.869L11.453,35.219z"/><linearGradient id="R~mS6sN1M1TNFXxYL9qI6e" x1="19.813" x2="34.119" y1="16.281" y2="29.804" gradientUnits="userSpaceOnUse"><stop offset="0" stop-color="#e0dfd2"/><stop offset=".065" stop-color="#e9e6e0"/><stop offset=".131" stop-color="#efebe9"/><stop offset=".457" stop-color="#dbd9cd"/><stop offset=".671" stop-color="#d1d1bf"/><stop offset=".892" stop-color="#cfcec2"/></linearGradient><path fill="url(#R~mS6sN1M1TNFXxYL9qI6e)" d="M11.175,33.202C8.96,31.459,7.094,31,5.828,31C5.019,31,4.215,31.268,4,31.5 c3.213-2.678,10.25-8.643,17.195-15.566c6.22-6.201,10.818-11.765,10.818-11.765s0.925-1.075,2.925-1.075s3.891,0.891,6,3 c4.017,4.017,4,10,4,10l-15.137,11.01L29,27.844c0,0-8.154,12.858-10,16.156c-1.696-1.295-2.676-3.399-3.782-5.472 C14.777,37.698,13.458,35,11.175,33.202z"/><path fill="#bdb3ae" d="M10.28,27.46c-0.32,0.28-0.65,0.56-0.97,0.84c-0.572-0.083-0.944-0.091-1.532-0.016 c0.394-0.34,0.657-0.551,1.106-0.94C9.196,27.271,9.82,27.34,10.28,27.46z"/><path fill="#bdb3ae" d="M11.38,27.82c0.59,0.24,1.19,0.56,1.79,0.99c-0.25,0.24-0.5,0.48-0.74,0.7 c-0.65-0.43-1.29-0.74-1.9-0.94C10.82,28.31,11.1,28.06,11.38,27.82z"/><path fill="#bdb3ae" d="M17.55,33.65c-0.24,0.28-0.47,0.54-0.7,0.8c-0.1-0.19-0.2-0.36-0.3-0.51 c-0.08-0.13-0.17-0.26-0.25-0.38c-0.2-0.3-0.4-0.57-0.6-0.84c-0.52-0.69-1.05-1.29-1.57-1.81c0.24-0.23,0.47-0.47,0.71-0.71 c0.52,0.51,1.03,1.09,1.53,1.75c0.2,0.26,0.4,0.54,0.6,0.83c0.14,0.2,0.28,0.41,0.42,0.62C17.44,33.48,17.49,33.56,17.55,33.65z"/><path fill="#bdb3ae" d="M19.27,37.06c-0.23,0.33-0.44,0.65-0.65,0.96c-0.04-0.08-0.08-0.16-0.12-0.25 c-0.43-0.93-0.81-1.71-1.14-2.37c0.22-0.26,0.45-0.53,0.7-0.81C18.42,35.26,18.81,36.08,19.27,37.06z"/><path fill="#bdb3ae" d="M12.769,25.194c0.867,0.262,1.786,0.699,2.711,1.356c-0.24,0.24-0.48,0.47-0.72,0.71 c-1.55-1.05-3.05-1.43-4.23-1.36c0.298-0.264,0.603-0.535,0.916-0.813C11.909,24.978,12.646,25.157,12.769,25.194z"/><path fill="#bdb3ae" d="M19.1,30.42c-0.24,0.26-0.47,0.51-0.7,0.76c-0.19-0.3-0.38-0.59-0.57-0.86 c-0.47-0.64-0.95-1.2-1.43-1.68c0.23-0.23,0.46-0.47,0.69-0.71c0.48,0.48,0.96,1.03,1.42,1.65C18.71,29.84,18.91,30.12,19.1,30.42 z"/><path fill="#bdb3ae" d="M21.2,34.35c-0.23,0.3-0.45,0.61-0.67,0.91c-0.25-0.49-0.53-1.06-0.85-1.71 c-0.09-0.19-0.17-0.36-0.25-0.52c-0.15-0.32-0.29-0.57-0.38-0.74c-0.04-0.07-0.07-0.14-0.11-0.2c0,0,0,0,0-0.01 c0.23-0.25,0.47-0.51,0.7-0.78h0.01c0.09,0.17,0.19,0.34,0.28,0.51c0.06,0.11,0.13,0.25,0.22,0.42c0.12,0.25,0.27,0.55,0.43,0.88 C20.75,33.45,20.96,33.89,21.2,34.35z"/><path fill="#bdb3ae" d="M16.24,23.43c-0.35-0.17-0.689-0.314-1.01-0.41c-0.971-0.291-1.285-0.191-1.332-0.146 c-0.3,0.281-0.594,0.547-0.888,0.806c0.44-0.01,0.89,0.03,1.33,0.14c0.36,0.08,0.73,0.2,1.09,0.36c0.52,0.22,1.04,0.52,1.55,0.89 c0.24-0.24,0.48-0.48,0.73-0.73C17.21,23.96,16.72,23.66,16.24,23.43z"/><path fill="#bdb3ae" d="M22.52,30.28c-0.07-0.13-0.14-0.26-0.22-0.38c-0.24,0.26-0.48,0.52-0.72,0.77 c0.02,0.03,0.04,0.07,0.06,0.1c0.16,0.29,0.51,1,0.89,1.79c0.22-0.29,0.45-0.59,0.68-0.88C22.92,31.08,22.66,30.54,22.52,30.28z"/><path fill="#bdb3ae" d="M21.2,28.15c-0.2-0.29-0.39-0.57-0.59-0.83c-0.45-0.6-0.9-1.13-1.35-1.59 c-0.24,0.25-0.48,0.49-0.71,0.73c0.46,0.48,0.91,1.01,1.35,1.61v0.01c0.2,0.27,0.4,0.54,0.59,0.83c0.2,0.28,0.38,0.57,0.56,0.87 c0.23-0.25,0.47-0.51,0.72-0.77C21.58,28.71,21.39,28.42,21.2,28.15z"/><path fill="#bdb3ae" d="M17.35,21.03c-0.27,0.27-0.55,0.53-0.83,0.78c-0.4-0.1-0.8-0.17-1.2-0.19h-0.06 c0.297-0.269,0.593-0.546,0.89-0.824C16.388,20.765,16.97,20.9,17.35,21.03z"/><path fill="#bdb3ae" d="M18.36,21.47c0.47,0.23,0.93,0.52,1.39,0.85c-0.23,0.23-0.47,0.47-0.71,0.71 c-0.48-0.34-0.97-0.62-1.46-0.84C17.84,21.95,18.1,21.71,18.36,21.47z"/><path fill="#bdb3ae" d="M22.63,25.19c-0.23,0.24-0.46,0.49-0.7,0.73c-0.43-0.57-0.88-1.09-1.33-1.55 c0.23-0.24,0.46-0.47,0.69-0.71C21.75,24.12,22.19,24.63,22.63,25.19z"/><path fill="#bdb3ae" d="M25.14,29.27c-0.23,0.29-0.47,0.57-0.71,0.87c-0.14-0.31-0.24-0.55-0.3-0.66 c-0.17-0.33-0.34-0.66-0.52-0.97c-0.17-0.31-0.35-0.61-0.52-0.9c-0.19-0.3-0.37-0.58-0.56-0.86c0.23-0.25,0.47-0.5,0.71-0.74 c0.19,0.28,0.38,0.56,0.56,0.85c0.19,0.29,0.36,0.58,0.53,0.89c0.25,0.41,0.48,0.83,0.7,1.27C25.06,29.08,25.1,29.16,25.14,29.27z"/><path fill="#bdb3ae" d="M19.52,18.96c-0.27,0.27-0.54,0.53-0.81,0.79c-0.44-0.13-0.85-0.2-1.22-0.23 c0.287-0.259,0.565-0.527,0.851-0.803C18.598,18.717,19.13,18.82,19.52,18.96z"/><path fill="#bdb3ae" d="M20.51,19.4c0.44,0.22,0.88,0.5,1.34,0.83c-0.24,0.23-0.48,0.47-0.72,0.72 c-0.48-0.34-0.95-0.61-1.39-0.81C20,19.9,20.26,19.66,20.51,19.4z"/><path fill="#bdb3ae" d="M25.75,24.84c-0.21,0.22-0.44,0.45-0.66,0.69c-0.18-0.31-0.36-0.6-0.54-0.88 c-0.2-0.3-0.4-0.58-0.59-0.84c-0.44-0.59-0.87-1.1-1.3-1.54c0.24-0.24,0.47-0.48,0.71-0.71c0.43,0.44,0.87,0.95,1.3,1.53 c0.19,0.26,0.39,0.53,0.59,0.82c0.18,0.28,0.36,0.56,0.55,0.87c0,0,0,0,0,0.01C25.79,24.8,25.77,24.82,25.75,24.84z"/><path fill="#bdb3ae" d="M27.05,27.08c-0.24,0.26-0.47,0.53-0.72,0.8c-0.33-0.69-0.59-1.2-0.72-1.43 c0-0.01-0.01-0.01-0.01-0.02c0.25-0.26,0.49-0.51,0.72-0.75c0.06,0.1,0.12,0.2,0.17,0.3C26.5,25.99,26.72,26.41,27.05,27.08z"/><path fill="#bdb3ae" d="M23.805,14.91c0.728,0.261,1.446,0.654,2.155,1.18c-0.23,0.24-0.47,0.48-0.7,0.72 c-1.2-0.85-2.42-1.29-3.65-1.3c0.29-0.29,0.572-0.581,0.861-0.863C22.9,14.612,23.384,14.759,23.805,14.91z"/><path fill="#bdb3ae" d="M28.76,18.93c-0.23,0.24-0.46,0.49-0.7,0.73c-0.09-0.13-0.18-0.25-0.27-0.37 c-0.34-0.43-0.68-0.82-1.02-1.17c0.23-0.24,0.47-0.48,0.69-0.72c0.37,0.38,0.74,0.81,1.11,1.27 C28.64,18.75,28.7,18.84,28.76,18.93z"/><path fill="#bdb3ae" d="M31.07,23.13c-0.26,0.24-0.52,0.48-0.77,0.72c-0.23-0.51-0.47-1.01-0.7-1.49 c-0.16-0.32-0.32-0.63-0.48-0.93c-0.16-0.32-0.33-0.62-0.51-0.91c0.25-0.25,0.49-0.5,0.73-0.74c0.18,0.28,0.35,0.59,0.52,0.9 c0.16,0.3,0.32,0.61,0.48,0.93C30.59,22.1,30.83,22.61,31.07,23.13z"/><linearGradient id="R~mS6sN1M1TNFXxYL9qI6f" x1="23.519" x2="42.242" y1="2.66" y2="22.203" gradientUnits="userSpaceOnUse"><stop offset=".337" stop-color="#d9cbc5"/><stop offset=".424" stop-color="#c8bbb6"/><stop offset=".558" stop-color="#b4a9a4"/><stop offset=".649" stop-color="#ada29d"/></linearGradient><path fill="url(#R~mS6sN1M1TNFXxYL9qI6f)" d="M28.492,15.197c1.9,1.624,3.217,4.009,4.226,6.451 c3.404-3.019,6.84-5.759,8.703-7.226c-0.241-1.43-0.907-3.558-2.328-5.304c-0.174-0.214-1.391-1.727-2.719-2.539 c-3.482-2.13-5.802-0.718-5.802-0.718c-1.389,1.606-3.708,4.217-6.56,7.194C25.51,13.206,26.963,13.89,28.492,15.197z" opacity=".8"/><g><path d="M19.45,17.641c0.021,0.018,0.033,0.027,0.054,0.036c0.004,0,0.061,0.036,0.064,0.036 c0.004,0,0.069,0,0.072,0.001c0.222,0.002,0.411,0.022,0.546,0.041c0.088,0.012,0.157,0.025,0.204,0.034 c2.371,0.444,4.151,2.459,4.831,3.233c0.748,0.852,1.454,1.912,2.057,3.083c0.066,0.128,0.131,0.258,0.195,0.389 c0.525,1.078,0.965,2.234,1.284,3.385c0.011,0.033,0.039,0.093,0.095,0.171c0,0,0.003,0.001,0.003,0.001 c0.037-0.051,0.069-0.093,0.093-0.123c0.033-0.052,0.06-0.089,0.06-0.089l0.765-0.708l0.025-0.023c0,0,0.002-0.006,0.002-0.006 c-0.361-1.158-0.847-2.378-1.455-3.559c-0.608-1.181-1.34-2.323-2.195-3.323c-0.671-0.786-2.202-2.469-4.309-3.28 c-0.061-0.023-0.123-0.046-0.188-0.068c-0.359-0.12-0.776-0.211-1.138-0.241c-0.056,0.046-0.118,0.098-0.182,0.153 C19.976,17.133,19.516,17.582,19.45,17.641z" opacity=".022"/><path d="M19.47,17.622c0.022,0.016,0.036,0.023,0.058,0.031c0.007,0,0.061,0.031,0.068,0.032 c0.007,0,0.068,0.001,0.075,0.001c0.224,0.004,0.412,0.025,0.542,0.045c0.087,0.013,0.157,0.026,0.208,0.036 c2.363,0.455,4.135,2.454,4.821,3.235c0.751,0.854,1.453,1.911,2.051,3.071c0.066,0.128,0.131,0.257,0.195,0.388 c0.528,1.082,0.967,2.235,1.286,3.374c0.012,0.036,0.039,0.096,0.089,0.171c0,0,0.003,0.001,0.003,0.002 c0.035-0.039,0.064-0.069,0.087-0.089c0.029-0.045,0.063-0.088,0.063-0.088l0.76-0.705l0.022-0.021c0,0,0.002-0.006,0.002-0.006 c-0.361-1.157-0.846-2.377-1.455-3.558c-0.609-1.181-1.34-2.323-2.195-3.323c-0.669-0.784-2.191-2.458-4.288-3.272 c-0.061-0.024-0.124-0.047-0.188-0.068c-0.355-0.121-0.771-0.213-1.136-0.246c-0.058,0.039-0.121,0.084-0.186,0.131 C20.004,17.106,19.564,17.535,19.47,17.622z" opacity=".044"/><path d="M19.49,17.603c0.023,0.013,0.039,0.02,0.062,0.027c0.011,0,0.062,0.027,0.072,0.028 c0.011,0,0.067,0.001,0.077,0.002c0.226,0.005,0.413,0.029,0.538,0.049c0.086,0.013,0.157,0.026,0.212,0.037 c2.356,0.465,4.12,2.45,4.812,3.238c0.753,0.857,1.451,1.911,2.045,3.059c0.066,0.128,0.131,0.257,0.195,0.387 c0.531,1.085,0.97,2.236,1.287,3.364c0.012,0.04,0.038,0.099,0.084,0.172c0,0,0.002,0.002,0.002,0.002 c0.032-0.026,0.059-0.045,0.08-0.055c0.025-0.039,0.066-0.086,0.066-0.086l0.756-0.702l0.019-0.019 c0-0.001,0.001-0.006,0.001-0.006c-0.361-1.157-0.846-2.376-1.454-3.557c-0.609-1.181-1.341-2.323-2.195-3.323 c-0.666-0.781-2.181-2.447-4.267-3.264c-0.061-0.024-0.124-0.047-0.188-0.069c-0.351-0.122-0.767-0.216-1.133-0.25 c-0.06,0.032-0.124,0.069-0.19,0.109C20.032,17.079,19.612,17.489,19.49,17.603z" opacity=".067"/><path d="M19.51,17.584c0.024,0.011,0.043,0.017,0.066,0.023c0.015,0,0.062,0.023,0.076,0.024 c0.014,0.001,0.067,0.001,0.08,0.002c0.228,0.007,0.414,0.032,0.534,0.052c0.085,0.013,0.157,0.027,0.216,0.039 c2.348,0.475,4.104,2.445,4.802,3.24c0.755,0.86,1.45,1.91,2.04,3.048c0.066,0.128,0.131,0.257,0.195,0.386 c0.534,1.088,0.972,2.238,1.289,3.353c0.013,0.043,0.037,0.102,0.078,0.172c0,0,0.002,0.002,0.002,0.002 c0.029-0.013,0.053-0.021,0.074-0.022c0.021-0.032,0.069-0.085,0.069-0.085l0.751-0.699l0.016-0.017 c0-0.001,0.001-0.005,0.001-0.006c-0.361-1.156-0.846-2.375-1.454-3.556c-0.609-1.181-1.341-2.323-2.195-3.323 c-0.663-0.779-2.171-2.435-4.246-3.256c-0.061-0.024-0.124-0.048-0.188-0.07c-0.347-0.122-0.762-0.218-1.13-0.255 c-0.062,0.025-0.128,0.055-0.194,0.088C20.06,17.053,19.66,17.442,19.51,17.584z" opacity=".089"/><path d="M19.53,17.566c0.025,0.009,0.046,0.014,0.07,0.018c0.018,0,0.063,0.019,0.08,0.02 c0.018,0.001,0.066,0.002,0.082,0.003c0.229,0.009,0.415,0.035,0.53,0.056c0.083,0.013,0.157,0.028,0.22,0.04 c2.34,0.483,4.089,2.441,4.793,3.243c0.758,0.863,1.449,1.909,2.034,3.036c0.066,0.128,0.131,0.256,0.195,0.385 c0.537,1.092,0.975,2.239,1.29,3.343c0.014,0.046,0.037,0.105,0.073,0.173c0,0.001,0.002,0.002,0.002,0.002 c0.026-0.001,0.048,0.003,0.067,0.012c0.016-0.026,0.072-0.083,0.072-0.083l0.747-0.695l0.014-0.015c0-0.001,0-0.005,0-0.006 c-0.361-1.155-0.845-2.374-1.453-3.554c-0.609-1.181-1.341-2.323-2.196-3.323c-0.661-0.776-2.16-2.424-4.225-3.248 c-0.062-0.025-0.124-0.048-0.188-0.071c-0.343-0.123-0.757-0.221-1.127-0.26c-0.065,0.018-0.131,0.041-0.198,0.066 C20.088,17.026,19.708,17.396,19.53,17.566z" opacity=".111"/><path d="M19.55,17.547c0.026,0.007,0.049,0.01,0.075,0.014c0.022,0,0.063,0.014,0.084,0.015 c0.021,0.001,0.065,0.002,0.085,0.003c0.231,0.011,0.416,0.039,0.527,0.06c0.082,0.013,0.158,0.028,0.224,0.042 c2.333,0.491,4.073,2.437,4.783,3.245c0.76,0.866,1.448,1.909,2.028,3.024c0.066,0.127,0.131,0.256,0.195,0.385 c0.54,1.095,0.977,2.24,1.292,3.332c0.015,0.049,0.036,0.108,0.067,0.173c0,0.001,0.001,0.002,0.002,0.002 c0.023,0.012,0.043,0.027,0.061,0.046c0.012-0.019,0.074-0.082,0.074-0.082l0.742-0.692l0.011-0.013c0-0.001,0-0.005,0-0.006 c-0.36-1.155-0.845-2.374-1.453-3.553c-0.609-1.181-1.341-2.323-2.196-3.323c-0.658-0.774-2.15-2.413-4.204-3.239 c-0.062-0.025-0.125-0.049-0.188-0.072c-0.339-0.124-0.752-0.223-1.124-0.264c-0.067,0.011-0.135,0.026-0.203,0.044 C20.116,17,19.756,17.349,19.55,17.547z" opacity=".133"/><path d="M19.57,17.528c0.027,0.004,0.052,0.007,0.079,0.01c0.026,0.001,0.064,0.01,0.088,0.011 c0.025,0.001,0.064,0.002,0.087,0.004c0.233,0.012,0.417,0.042,0.523,0.063c0.081,0.014,0.158,0.029,0.228,0.044 c2.327,0.494,4.058,2.432,4.774,3.248c0.762,0.869,1.447,1.908,2.023,3.012c0.066,0.127,0.131,0.255,0.195,0.384 c0.542,1.098,0.98,2.241,1.293,3.321c0.016,0.052,0.035,0.111,0.062,0.174c0,0.001,0.001,0.002,0.001,0.003 c0.02,0.024,0.038,0.051,0.054,0.08c0.008-0.013,0.077-0.08,0.077-0.08l0.738-0.689l0.008-0.011 c-0.001-0.002,0-0.005-0.001-0.006c-0.36-1.154-0.845-2.373-1.453-3.552c-0.609-1.181-1.341-2.323-2.196-3.323 c-0.655-0.771-2.139-2.402-4.183-3.231c-0.062-0.025-0.125-0.05-0.189-0.073c-0.335-0.124-0.747-0.225-1.121-0.269 c-0.069,0.004-0.138,0.012-0.207,0.022C20.144,16.973,19.804,17.303,19.57,17.528z" opacity=".156"/><path d="M19.59,17.509c0.028,0.002,0.055,0.004,0.083,0.005c0.029,0.001,0.064,0.006,0.092,0.007 c0.028,0.001,0.063,0.003,0.09,0.005c0.235,0.014,0.418,0.045,0.519,0.067c0.08,0.014,0.158,0.029,0.232,0.045 c2.319,0.504,4.042,2.428,4.764,3.25c0.765,0.872,1.445,1.907,2.017,3c0.066,0.127,0.131,0.255,0.195,0.383 c0.545,1.101,0.982,2.243,1.295,3.311c0.016,0.055,0.035,0.114,0.056,0.174c0,0.001,0.001,0.002,0.001,0.003 c0.017,0.037,0.033,0.075,0.048,0.114c0.004-0.006,0.08-0.079,0.08-0.079l0.733-0.686l0.005-0.008 c-0.001-0.002-0.001-0.004-0.001-0.006c-0.36-1.154-0.844-2.372-1.452-3.551c-0.609-1.181-1.341-2.324-2.196-3.324 c-0.653-0.769-2.129-2.391-4.162-3.223c-0.062-0.025-0.125-0.05-0.189-0.074c-0.331-0.125-0.743-0.228-1.118-0.274 c-0.071-0.002-0.142-0.002-0.211,0C20.172,16.947,19.852,17.256,19.59,17.509z" opacity=".178"/><path d="M25.39,20.87c0.86,0.975,1.601,2.152,2.206,3.371s1.074,2.481,1.389,3.626l0.083-0.078l0.729-0.683 L29.8,27.1c-0.36-1.155-0.845-2.375-1.454-3.556s-1.341-2.324-2.196-3.324c-0.67-0.79-2.21-2.48-4.33-3.29 c-0.39-0.15-0.9-0.27-1.33-0.3c-0.29,0.29-0.59,0.58-0.88,0.86c0.37,0,0.66,0.05,0.79,0.08C22.83,18,24.64,20.01,25.39,20.87z" opacity=".2"/><linearGradient id="R~mS6sN1M1TNFXxYL9qI6g" x1="15.725" x2="30.122" y1="10.54" y2="27.284" gradientUnits="userSpaceOnUse"><stop offset=".13" stop-color="#e9a469"/><stop offset=".367" stop-color="#e7a772"/><stop offset=".448" stop-color="#e6a877"/><stop offset=".583" stop-color="#e6a877"/><stop offset=".945" stop-color="#c28757"/><stop offset=".984" stop-color="#cb8f5b"/><stop offset="1" stop-color="#d1935e"/></linearGradient><path fill="url(#R~mS6sN1M1TNFXxYL9qI6g)" d="M28.978,27.85c-0.629-2.288-1.869-5.029-3.587-6.979c-0.756-0.858-2.565-2.87-4.991-3.306 c-0.129-0.023-0.416-0.073-0.786-0.073c0,0-0.284-0.175-0.052-0.532c0.25-0.384,0.747-0.349,0.881-0.341 c0.433,0.027,0.962,0.152,1.376,0.31c2.118,0.808,3.657,2.5,4.33,3.288c1.71,2.001,2.928,4.568,3.651,6.886 c0.061,0.195-0.29,1.178-0.961,0.987C28.84,28.09,28.986,27.878,28.978,27.85z"/></g></svg>