<svg xmlns="http://www.w3.org/2000/svg" xmlns:xlink="http://www.w3.org/1999/xlink" viewBox="0 0 128 128"><path fill="#E97867" d="M64 16.299999999999997A42 42 0 1 0 64 100.3A42 42 0 1 0 64 16.299999999999997Z"/><path fill="#FFF" d="M64 16.299999999999997A42 42 0 1 0 64 100.3A42 42 0 1 0 64 16.299999999999997Z"/><path fill="#F37778" d="M64 26.799999999999997A31.5 31.5 0 1 0 64 89.8A31.5 31.5 0 1 0 64 26.799999999999997Z"/><path fill="#454B54" d="M64,103.3c-24.8,0-45-20.2-45-45s20.2-45,45-45c24.8,0,45,20.2,45,45S88.8,103.3,64,103.3z M64,19.3c-21.5,0-39,17.5-39,39s17.5,39,39,39s39-17.5,39-39S85.5,19.3,64,19.3z"/><path fill="#FFF" d="M80.7,63.3H47.3c-2.8,0-5-2.2-5-5s2.2-5,5-5h33.4c2.8,0,5,2.2,5,5S83.5,63.3,80.7,63.3z"/><g><path fill="#454B54" d="M64,122.5c-1.7,0-3-1.3-3-3v-19.2c0-1.7,1.3-3,3-3c1.7,0,3,1.3,3,3v19.2C67,121.2,65.7,122.5,64,122.5z"/></g></svg>