<?xml version="1.0" encoding="utf-8"?>
<!-- Generator: Adobe Illustrator 23.0.2, SVG Export Plug-In . SVG Version: 6.00 Build 0)  -->
<svg version="1.1" id="Layer_1" xmlns="http://www.w3.org/2000/svg" xmlns:xlink="http://www.w3.org/1999/xlink" x="0px" y="0px"
	 viewBox="0 0 1280 765.2" style="enable-background:new 0 0 1280 765.2;" xml:space="preserve">
<style type="text/css">
	.st0{fill:#E0F6FC;}
	.st1{opacity:0.83;}
	.st2{fill-rule:evenodd;clip-rule:evenodd;fill:#B5E3F4;}
	.st3{fill-rule:evenodd;clip-rule:evenodd;fill:#84788F;}
	.st4{fill-rule:evenodd;clip-rule:evenodd;fill:#7E6C82;}
	.st5{fill-rule:evenodd;clip-rule:evenodd;fill:#725166;}
	.st6{fill-rule:evenodd;clip-rule:evenodd;fill:#844E8F;}
	.st7{fill-rule:evenodd;clip-rule:evenodd;fill:#7F4784;}
	.st8{fill-rule:evenodd;clip-rule:evenodd;fill:#6C2D59;}
	.st9{fill-rule:evenodd;clip-rule:evenodd;fill:#738067;}
	.st10{fill-rule:evenodd;clip-rule:evenodd;fill:#6C6656;}
	.st11{fill-rule:evenodd;clip-rule:evenodd;fill:#68594D;}
	.st12{fill-rule:evenodd;clip-rule:evenodd;fill:#EFAF9E;}
	.st13{fill-rule:evenodd;clip-rule:evenodd;fill:#EEAD9A;}
	.st14{fill-rule:evenodd;clip-rule:evenodd;fill:#1E1925;}
	.st15{fill-rule:evenodd;clip-rule:evenodd;fill:#7B4652;}
	.st16{fill-rule:evenodd;clip-rule:evenodd;fill:#EDA08C;}
	.st17{fill-rule:evenodd;clip-rule:evenodd;fill:#E86870;}
	.st18{fill-rule:evenodd;clip-rule:evenodd;fill:#3D211A;}
	.st19{fill-rule:evenodd;clip-rule:evenodd;fill:#FAFFFF;}
	.st20{fill-rule:evenodd;clip-rule:evenodd;fill:#000313;}
	.st21{fill-rule:evenodd;clip-rule:evenodd;fill:#C7CFDF;}
	.st22{fill-rule:evenodd;clip-rule:evenodd;fill:#EA8A0F;}
	.st23{fill-rule:evenodd;clip-rule:evenodd;fill:#C06029;}
	.st24{fill-rule:evenodd;clip-rule:evenodd;fill:#E2E9FA;}
	.st25{fill-rule:evenodd;clip-rule:evenodd;fill:#EFA92E;}
	.st26{fill-rule:evenodd;clip-rule:evenodd;fill:#2C2C39;}
	.st27{fill-rule:evenodd;clip-rule:evenodd;fill:#3F6C8F;}
	.st28{fill-rule:evenodd;clip-rule:evenodd;fill:#5DBFFC;}
	.st29{fill-rule:evenodd;clip-rule:evenodd;fill:#E00022;}
	.st30{fill-rule:evenodd;clip-rule:evenodd;fill:#C4AA2B;}
	.st31{fill-rule:evenodd;clip-rule:evenodd;fill:#E6EBFE;}
	.st32{fill-rule:evenodd;clip-rule:evenodd;fill:#C19C7C;}
	.st33{fill-rule:evenodd;clip-rule:evenodd;fill:#D7DCEB;}
	.st34{fill-rule:evenodd;clip-rule:evenodd;fill:#303879;}
	.st35{fill-rule:evenodd;clip-rule:evenodd;fill:#ADB2C1;}
	.st36{fill-rule:evenodd;clip-rule:evenodd;fill:#491925;}
	.st37{fill-rule:evenodd;clip-rule:evenodd;fill:#48222F;}
	.st38{fill-rule:evenodd;clip-rule:evenodd;fill:#54598F;}
	.st39{fill-rule:evenodd;clip-rule:evenodd;fill:#48426D;}
	.st40{fill-rule:evenodd;clip-rule:evenodd;fill:#6D79B7;}
	.st41{fill-rule:evenodd;clip-rule:evenodd;fill:#FAF2FF;}
	.st42{fill-rule:evenodd;clip-rule:evenodd;fill:#BF99A8;}
	.st43{fill-rule:evenodd;clip-rule:evenodd;fill:#393A48;}
	.st44{fill-rule:evenodd;clip-rule:evenodd;fill:#292E3D;}
	.st45{fill-rule:evenodd;clip-rule:evenodd;fill:#151A29;}
	.st46{fill-rule:evenodd;clip-rule:evenodd;fill:#DE1922;}
	.st47{fill-rule:evenodd;clip-rule:evenodd;fill:#E4574E;}
	.st48{fill-rule:evenodd;clip-rule:evenodd;fill:#2E3342;}
	.st49{fill-rule:evenodd;clip-rule:evenodd;fill:#172751;}
	.st50{fill-rule:evenodd;clip-rule:evenodd;fill:#314B8F;}
	.st51{fill-rule:evenodd;clip-rule:evenodd;fill:#F5F8FF;}
	.st52{fill-rule:evenodd;clip-rule:evenodd;fill:#E9D79F;}
	.st53{fill-rule:evenodd;clip-rule:evenodd;fill:#ECD28A;}
	.st54{fill-rule:evenodd;clip-rule:evenodd;fill:#64442F;}
	.st55{fill-rule:evenodd;clip-rule:evenodd;fill:#925A33;}
	.st56{fill-rule:evenodd;clip-rule:evenodd;fill:#E9EEFE;}
	.st57{fill-rule:evenodd;clip-rule:evenodd;fill:#172D68;}
	.st58{fill-rule:evenodd;clip-rule:evenodd;fill:#00A0F7;}
	.st59{fill-rule:evenodd;clip-rule:evenodd;fill:#EC910F;}
	.st60{fill-rule:evenodd;clip-rule:evenodd;fill:#25B2F7;}
	.st61{fill-rule:evenodd;clip-rule:evenodd;fill:#203C99;}
	.st62{fill-rule:evenodd;clip-rule:evenodd;fill:#EFAF9B;}
	.st63{fill-rule:evenodd;clip-rule:evenodd;fill:#15131A;}
	.st64{fill-rule:evenodd;clip-rule:evenodd;fill:#F7D00F;}
	.st65{fill-rule:evenodd;clip-rule:evenodd;fill:#131113;}
	.st66{fill-rule:evenodd;clip-rule:evenodd;fill:#7B6E2F;}
	.st67{fill-rule:evenodd;clip-rule:evenodd;fill:#E8C830;}
	.st68{fill-rule:evenodd;clip-rule:evenodd;fill:#292635;}
	.st69{fill-rule:evenodd;clip-rule:evenodd;fill:#30303C;}
	.st70{fill-rule:evenodd;clip-rule:evenodd;fill:#30303D;}
	.st71{fill-rule:evenodd;clip-rule:evenodd;fill:#FADA4A;}
	.st72{fill-rule:evenodd;clip-rule:evenodd;fill:#9F68FA;}
	.st73{fill-rule:evenodd;clip-rule:evenodd;fill:#002D5A;}
	.st74{fill-rule:evenodd;clip-rule:evenodd;fill:#44437F;}
	.st75{fill-rule:evenodd;clip-rule:evenodd;fill:#F5D9D6;}
	.st76{fill-rule:evenodd;clip-rule:evenodd;fill:#4E4D8F;}
	.st77{fill-rule:evenodd;clip-rule:evenodd;fill:#EC5A33;}
	.st78{fill-rule:evenodd;clip-rule:evenodd;fill:#AD71FF;}
	.st79{fill-rule:evenodd;clip-rule:evenodd;fill:#AE83FF;}
	.st80{fill-rule:evenodd;clip-rule:evenodd;fill:#829CBF;}
	.st81{fill-rule:evenodd;clip-rule:evenodd;fill:#FAFDFF;}
	.st82{fill-rule:evenodd;clip-rule:evenodd;fill:#F1F9F9;}
	.st83{fill-rule:evenodd;clip-rule:evenodd;fill:#999EAE;}
	.st84{fill:#404041;}
	.st85{fill:#7D7E80;}
	.st86{fill:#696A6C;}
	.st87{fill:#E2D3A2;}
	.st88{fill:#DBC895;}
	.st89{fill:#D4BC93;}
	.st90{fill:#EAD5A6;}
	.st91{fill:#F7E8B9;}
	.st92{fill:#EC1C24;}
	.st93{fill:#FFDD15;}
	.st94{fill:#009345;}
	.st95{fill:#D71921;}
	.st96{fill:#F4C91A;}
	.st97{fill:#00803E;}
</style>
<rect class="st0" width="1280" height="762.9"/>
<g>
	<g class="st1">
		<path class="st2" d="M403.7,483.4c-39.9,11.6-67.8,98.8-24.6,140.8c35.8,34.9-130,138.7,92.1,134.1c45-0.9,574.3,6.6,589-8.7
			c85.2,2.3,250.4-37.3,174.5-150.4c-32-47.7,14.5-92.6-6.6-135.6c-21.9-44.8-73.6-15.8-98.7-56.1c-30.3-48.9,34-97.7-18.3-143
			c-26.6-23-109.9,14.6-128.9-24.7c-23.1-47.7-75.5-166.1-167.4-82.6c-72,65.4-168.7-36.3-226.1,43.7c-31,43.1-3.8,61.5-29,93.9
			c-33.1,42.4-81.1,14.4-102.2,39.2C421.5,376.1,504.8,454.1,403.7,483.4L403.7,483.4z"/>
	</g>
	<g>
		<g>
			<path class="st3" d="M553.2,678.3C541,596.6,399,546.7,315.5,566C347.7,658.2,470.7,723.7,553.2,678.3z"/>
			<path class="st4" d="M315.5,566c32.2,92.2,155.2,157.7,237.8,112.3C508.4,631.1,380.1,577.1,315.5,566z"/>
			<path class="st5" d="M315.5,566c72.5,19.3,181.1,64.6,235.8,113.4c0.7-0.4,1.3-0.7,2-1.1C508.4,631.1,380.1,577.1,315.5,566z"/>
			<polygon class="st5" points="506.1,644 449.2,660 504.5,642.9 			"/>
			<path class="st5" d="M492.5,637.3c-0.2-0.9-20.7-40.2-20.7-40.2l18.9,39.1L492.5,637.3z"/>
			<path class="st5" d="M463.6,621.3c0,0-53.6,17.3-52.7,16.6c0.9-0.6,54.2-15.8,54.2-15.8L463.6,621.3z"/>
			<path class="st5" d="M439.7,608.9c0.5-1-24.5-31.9-24.5-31.9l22.8,32.4L439.7,608.9z"/>
			<polygon class="st5" points="407.7,596.3 366.8,604.3 409.1,597.1 			"/>
			<path class="st5" d="M381.5,585.8c-0.3-0.5-18.8-19.2-18.8-19.2l17.2,19.1L381.5,585.8z"/>
			<path class="st5" d="M357.8,577.5c-0.9-0.2-27.4,1.4-26.3,1.4s27.3-0.4,27.3-0.4L357.8,577.5z"/>
		</g>
		<g>
			<path class="st6" d="M563.2,669.7c36-55.4-22.5-160.5-82.7-193.3C450.8,548.6,489.7,653.1,563.2,669.7z"/>
			<path class="st7" d="M480.5,476.4c-29.7,72.3,9.2,176.7,82.7,193.3C561.4,617.6,513.3,517.3,480.5,476.4z"/>
			<path class="st8" d="M480.5,476.4c33.1,50,74.1,134.7,81,192.9c0.6,0.1,1.2,0.3,1.8,0.4C561.4,617.6,513.3,517.3,480.5,476.4z"/>
			<polygon class="st8" points="553.2,624.2 510.6,603.5 552.8,622.7 			"/>
			<path class="st8" d="M548.6,612.9c0.4-0.6,8.9-35,8.9-35l-9.4,33.4L548.6,612.9z"/>
			<path class="st8" d="M539.8,588c0,0-41.2-18.1-40.4-18c0.9,0.1,40.8,19.3,40.8,19.3L539.8,588z"/>
			<path class="st8" d="M532.1,568c0.8-0.4,2.2-32.1,2.2-32.1l-3.5,31.5L532.1,568z"/>
			<polygon class="st8" points="519.6,543.4 490.9,526.5 520,544.7 			"/>
			<path class="st8" d="M509.5,523.2c0.1-0.4-1.1-21.5-1.1-21.5l0.2,20.6L509.5,523.2z"/>
			<path class="st8" d="M499.7,505.7c-0.4-0.6-17.1-13.7-16.5-13.1c0.7,0.6,16.6,14.3,16.6,14.3L499.7,505.7z"/>
		</g>
		<g>
			<path class="st9" d="M556.5,688.8c-43.3-49.9-160.5-22.7-208.6,26.1C409.2,763.4,520.3,754.9,556.5,688.8z"/>
			<path class="st10" d="M347.9,714.9c61.3,48.5,172.4,39.9,208.6-26.1C506,676.2,396.3,694.8,347.9,714.9z"/>
			<path class="st11" d="M347.9,714.9c57.2-18,150-34,207.7-24.5c0.3-0.5,0.6-1.1,0.9-1.6C506,676.2,396.3,694.8,347.9,714.9z"/>
			<polygon class="st11" points="510,685.9 478.5,721.1 508.5,685.8 			"/>
			<path class="st11" d="M498,687.2c-0.5-0.6-31.2-18.2-31.2-18.2l29.5,18.3L498,687.2z"/>
			<path class="st11" d="M471.6,688.8c0,0-28.8,34.6-28.4,33.8s29.9-33.9,29.9-33.9L471.6,688.8z"/>
			<path class="st11" d="M450.2,690.7c-0.1-0.9-30.2-11-30.2-11l29.3,12.1L450.2,690.7z"/>
			<polygon class="st11" points="423.1,695.9 399,718.8 424.5,695.8 			"/>
			<path class="st11" d="M400.9,700c-0.4-0.2-20.9-4.9-20.9-4.9l19.8,5.5L400.9,700z"/>
			<path class="st11" d="M381.4,704.6c-0.6,0.3-17.9,12.7-17.1,12.2c0.7-0.5,18.3-12,18.3-12L381.4,704.6z"/>
		</g>
	</g>
	<g>
		<g>
			<path class="st3" d="M1035.9,695.2c12.3-81.6,154.2-131.5,237.8-112.3C1241.5,675.2,1118.5,740.6,1035.9,695.2z"/>
			<path class="st4" d="M1273.7,582.9c-32.2,92.2-155.2,157.7-237.8,112.3C1080.8,648.1,1209.1,594,1273.7,582.9z"/>
			<path class="st5" d="M1273.7,582.9c-72.5,19.3-181.1,64.6-235.8,113.4c-0.7-0.4-1.3-0.7-2-1.1
				C1080.8,648.1,1209.1,594,1273.7,582.9z"/>
			<polygon class="st5" points="1083,661 1140,676.9 1084.6,659.9 			"/>
			<path class="st5" d="M1096.6,654.2c0.2-0.9,20.7-40.2,20.7-40.2l-18.9,39.1L1096.6,654.2z"/>
			<path class="st5" d="M1125.5,638.2c0,0,53.6,17.3,52.7,16.6S1124,639,1124,639L1125.5,638.2z"/>
			<path class="st5" d="M1149.4,625.9c-0.5-1,24.5-31.9,24.5-31.9l-22.8,32.4L1149.4,625.9z"/>
			<polygon class="st5" points="1181.5,613.2 1222.3,621.2 1180,614.1 			"/>
			<path class="st5" d="M1207.7,602.7c0.3-0.5,18.8-19.2,18.8-19.2l-17.2,19.1L1207.7,602.7z"/>
			<path class="st5" d="M1231.3,594.4c0.9-0.2,27.4,1.4,26.3,1.4s-27.3-0.4-27.3-0.4L1231.3,594.4z"/>
		</g>
		<g>
			<path class="st6" d="M1025.9,686.6c-36-55.4,22.5-160.5,82.7-193.3C1138.3,565.6,1099.4,670,1025.9,686.6z"/>
			<path class="st7" d="M1108.7,493.3c29.7,72.3-9.2,176.7-82.7,193.3C1027.8,634.6,1075.9,534.2,1108.7,493.3z"/>
			<path class="st8" d="M1108.7,493.3c-33.1,50-74.1,134.7-81,192.9c-0.6,0.1-1.2,0.3-1.8,0.4
				C1027.8,634.6,1075.9,534.2,1108.7,493.3z"/>
			<polygon class="st8" points="1036,641.1 1078.5,620.5 1036.3,639.6 			"/>
			<path class="st8" d="M1040.5,629.9c-0.4-0.6-8.9-35-8.9-35l9.4,33.4L1040.5,629.9z"/>
			<path class="st8" d="M1049.3,605c0,0,41.2-18.1,40.4-18c-0.9,0.1-40.8,19.3-40.8,19.3L1049.3,605z"/>
			<path class="st8" d="M1057.1,584.9c-0.8-0.4-2.2-32.1-2.2-32.1l3.5,31.5L1057.1,584.9z"/>
			<polygon class="st8" points="1069.6,560.3 1098.3,543.5 1069.1,561.6 			"/>
			<path class="st8" d="M1079.7,540.2c-0.1-0.4,1.1-21.5,1.1-21.5l-0.2,20.6L1079.7,540.2z"/>
			<path class="st8" d="M1089.4,522.6c0.4-0.6,17.1-13.7,16.5-13.1c-0.7,0.6-16.6,14.3-16.6,14.3L1089.4,522.6z"/>
		</g>
		<g>
			<path class="st9" d="M1032.6,705.8c43.3-49.9,160.5-22.7,208.6,26.1C1180,780.4,1068.9,771.8,1032.6,705.8z"/>
			<path class="st10" d="M1241.2,731.9c-61.3,48.5-172.4,39.9-208.6-26.1C1083.1,693.2,1192.9,711.7,1241.2,731.9z"/>
			<path class="st11" d="M1241.2,731.9c-57.2-18-150-34-207.7-24.5c-0.3-0.5-0.6-1.1-0.9-1.6
				C1083.1,693.2,1192.9,711.7,1241.2,731.9z"/>
			<polygon class="st11" points="1079.1,702.9 1110.7,738.1 1080.6,702.8 			"/>
			<path class="st11" d="M1091.2,704.1c0.5-0.6,31.2-18.2,31.2-18.2l-29.5,18.3L1091.2,704.1z"/>
			<path class="st11" d="M1117.6,705.7c0,0,28.8,34.6,28.4,33.8s-29.9-33.9-29.9-33.9L1117.6,705.7z"/>
			<path class="st11" d="M1139,707.6c0.1-0.9,30.2-11,30.2-11l-29.3,12.1L1139,707.6z"/>
			<polygon class="st11" points="1166,712.9 1190.2,735.8 1164.7,712.8 			"/>
			<path class="st11" d="M1188.2,717c0.4-0.2,20.9-4.9,20.9-4.9l-19.8,5.5L1188.2,717z"/>
			<path class="st11" d="M1207.7,721.5c0.6,0.3,17.9,12.7,17.1,12.2c-0.7-0.5-18.3-12-18.3-12L1207.7,721.5z"/>
		</g>
	</g>
	<g>
		<path class="st12" d="M925.9,495.6c0,0,4.3,5,4.4,6.6c0.1,1.5-0.9,5.5-1.5,4.7c-0.6-0.9-0.7-3.5-0.7-3.5l-1.2-1.5
			c0,0,0.8,7.8,0.4,9.2c-0.4,1.4-1.2,1.4-1.2,1.4s-0.1,1.2-0.9,1.4c-0.7,0.2-1.1,0.1-1.5-0.7c0,0-0.2,0.3-0.8,0s-1-1.1-1-1.1
			s-0.5,0.2-1-0.4c-0.5-0.6-0.6-1.1-0.6-1.2c0-0.1-0.8-5.9-0.9-6.1c-1-2.8-0.3-7.1,1.3-9C923.9,491.6,922.6,494.2,925.9,495.6z"/>
		<path class="st13" d="M1034.6,407.4c-0.3-0.1-2,1-3.8-0.9c-1.8-1-2.4-3.1-1.7-4.3c0.6-1.1,1.8-2,2.3-2.9c1-1.8,2.3-3.1,5.1-2
			c2.8,1.1,4.1,1.5,4.2,4.5C1040.7,404.9,1037,407.5,1034.6,407.4z"/>
		<path class="st14" d="M1002.1,628c1.2,3.2,2,7.5,2,7.5s17.7,7.8,15.2,9.6c-3.9,2.8-18.3-0.8-23.4-1.9v-8.1L1002.1,628z"/>
		<path class="st14" d="M947.7,626c-1.2,3.2-2,7.5-2,7.5s-17.7,7.8-15.2,9.6c3.9,2.8,22.2-0.6,22.2-2.2v-8.1L947.7,626z"/>
		<path class="st15" d="M989.8,487.9c7.3,40.2,10.5,99.6,14.4,147.6c0,0-5.8,0.1-8.2-0.4c-9.6-40-18.3-81.3-28-121.4
			c-5.2,39.4-10.1,81.2-15.3,120.6c-1.4,0.4-5.6-0.6-7.1-0.8s-2.2-141.5-1.9-143.1C944.1,488.8,989.8,487.9,989.8,487.9z"/>
		<path class="st16" d="M967.9,382c-0.3,3.2-0.5,13.4,5.7,15.6c2.6,0.9,4.9,2.9,4.9,2.9c-0.2,9.6-22.5,12.2-31.9,3.5l3.7-4.4
			c7.8-1.6,4.5-14.8,4.1-21.1L967.9,382z"/>
		<path class="st17" d="M987.1,415.7c-1,35.4,5.2,61.3,6.6,80.8c0.6,10.1-52.8,17.1-52.8,8.7c1-28.7,1.4-59.2-1.8-85.6l0.1-16.7
			c0.5-0.1,1-0.2,1.4-0.3l9.7-3.1c0,0,5.8,5.8,15,4.6c9.2-1.2,8.3-6.5,8.3-6.5c4.2,0.7,8.3,1.5,12.5,2.2L987.1,415.7z"/>
		<path class="st18" d="M945.7,366.8c-0.4,1.5,1.5,7.8,3.1,11.3c1.6,3.6,6.2,5.6,6.1,5.1c0-0.5-1.1-13.3-1.1-13.3L945.7,366.8z"/>
		<path class="st12" d="M977.4,383.8c-1.6,8.7-5.4,11.4-11.6,8.3c-5.3-2.6-9.2-7.2-11.7-12.2c-1.7,0.5-3.7-0.6-4.9-2.7
			c-1.4-2.5-1.1-5.5,0.7-6.7c0.4-0.3,0.8-0.4,1.3-0.5c-0.2-2.7,0-5.2,0.2-7.9c0.2-5,13.6-9.8,19.5-6.8
			C978,359.2,978.5,377.6,977.4,383.8z"/>
		<path class="st18" d="M955.9,364.3c-0.6,0.6,0.7,9.8-0.3,9.8s-4.6-4.2-4.6-4.2s-0.2-0.3-1.3,0.5c-1.1,0.7-1.4,2-1.4,2
			s-4.5-8.5-3.9-10.5c0.5-1.9,4.3-4.3,4.3-4.3s0.3-2,2.4-4.4c2.1-2.3,8.3-2.8,16.5-4c8.1-1.2,14,3.9,6.6,9.7
			C967.4,364.2,955.9,364.3,955.9,364.3z"/>
		<path class="st17" d="M939.3,402.9c-11.8,5.1-19.3,53.9-20.2,95l7.6-1.8c0.8-20.4,4.7-48.1,14.9-76.3L939.3,402.9z"/>
		<path class="st17" d="M986.1,399.8c12.6,13.2,24,37.1,24,37.1c0.9-1.3,16.3-27.1,19-34.6l5.5,5.1c-2.7,6.7-17.6,42.9-22.9,43.5
			c-10.4,1.2-24-27.9-27.9-34.1L986.1,399.8z"/>
		<path class="st19" d="M1062.1,368.6c0.5-0.1,6.6-0.3,6.6-0.3l3.4,10.1l-4.7,4.1L1062.1,368.6z"/>
		<path class="st20" d="M1037.8,386.3c-0.3,1.3-0.1,5.3,1.2,9.1c1.4,3.8,4,6.4,4,8c0,1.7-4.4,4.6-6.3,2.6
			c-1.6-1.6-6.2-18.2-5.8-18.5C1031.3,387.2,1037.8,386.3,1037.8,386.3z"/>
		<path class="st21" d="M1062.2,356.6c-0.2-0.3-0.5,0.1-1.6,0.8c-1.1,0.7-0.2,0.1-1.1,2c-1.9,3.9-26.5,18.6-31.2,20.8
			c-2.9,1.4-3.6,1.9-4.5,2.7l4.6,12.6c1.3,0,1.9-0.2,5-1c5-1.3,33.5-5.2,37.4-3.4c1.1,0.5,3.9,0.5,3.9,0.5
			C1071.8,379.7,1067.7,368,1062.2,356.6z"/>
		<path class="st22" d="M1062.2,356.6c-0.2-0.3-0.5,0.1-1.6,0.8c-1.1,0.7-0.2,0.1-1.1,2c4.5,9.9,8.3,20.4,11.2,31.8
			c1.8,0.9,0.8,0.9,2.1,0.8c1.3-0.1,1.9,0,1.8-0.4C1071.8,379.7,1067.7,368,1062.2,356.6z"/>
		<path class="st22" d="M1028.9,380c-0.2,0.1-0.4,0.2-0.5,0.3c-2.9,1.4-4.7,1.5-5.7,2.3l2.4,6.9l2.4,6.9c1.3,0,2.7-1,5.9-1.8
			c0.2,0,0.4-0.1,0.6-0.1L1028.9,380z"/>
		<path class="st23" d="M1031,388.3c-0.1-0.5-0.1-0.8-0.1-0.8c0.2-0.2,2.4-0.5,4.3-0.8L1031,388.3z"/>
		<path class="st24" d="M1062.2,356.6c-0.2-0.3-2.4,2.1-2.7,2.8c-1.9,3.9-26.5,18.6-31.2,20.8c-2.9,1.4-3.6,1.9-4.5,2.7l2.3,7.2
			l43.2-16.6C1067.3,367.9,1064.9,362.2,1062.2,356.6z"/>
		<path class="st25" d="M1062.2,356.6c-0.2-0.3-0.5,0.1-1.6,0.8c-1.1,0.7-0.2,0.1-1.1,2c2.3,5,4.4,10.2,6.3,15.6l3.5-1.4
			C1067.3,367.9,1064.9,362.2,1062.2,356.6z"/>
		<path class="st25" d="M1028.9,380c-0.2,0.1-0.4,0.2-0.5,0.3c-2.9,1.4-4.7,1.5-5.7,2.3l2.4,6.9l0.3,1l6.3-2.4L1028.9,380z"/>
		<polygon class="st26" points="1078.1,365.5 1092.7,357 1091.3,355.2 		"/>
		<polygon class="st26" points="1072.4,360.6 1083.1,345.4 1082,344.5 		"/>
		<polygon class="st26" points="1076.5,375.2 1099.4,373.9 1099.2,376.2 		"/>
		<polygon class="st26" points="1076.6,381.5 1095,388.8 1094.7,390.2 		"/>
		<path class="st16" d="M1036.5,396.6c-0.7,2.6,0.8,5.7,2.9,6.9c0.7,0.4,1.8,0.7,3.9-1c1.9-1.5-1.5-7.5-3-7.8
			C1038.9,394.5,1036.5,395.7,1036.5,396.6z"/>
		<path class="st12" d="M1031.8,403.2l-1.5-1.6c0,0,1-4.4,1.9-5.4s4.5-4.6,4.9-4.2s0.6,1.4-0.3,3.2c-0.9,1.8-2.7,2.6-2.7,2.6
			s0.6,3.1-0.1,5.1C1033.3,405,1031.8,403.2,1031.8,403.2z"/>
		<path class="st18" d="M953.8,360.2l2.1,4.4c3,0.3,12.8,1.3,14.9,0.3l-1.9-1.1c0,0,3.7,0.2,7.3-1.2c3.6-1.4,4.6-3.2,4.3-3.2
			s-2.9-0.2-2.9-0.2s1.7-0.2,3.6-3.9c1.9-3.7,2.2-5.4,1.9-5.1c-0.4,0.3-2.7,1.2-2.6,0.9c0.1-0.3,0.3-3.1,0.3-3.1s-3.6,0.5-8.3,0.8
			c-4.7,0.4-19.7,2.9-19.8,4.1C952.5,354.2,953.8,360.2,953.8,360.2z"/>
	</g>
	<g>
		<path class="st14" d="M765.5,457.1c-1.1,3.1-2,7.4-2,7.4s-17.5,7.7-15,9.5c3.8,2.8,18.1-0.8,23.1-1.9v-8L765.5,457.1z"/>
		<path class="st14" d="M819.4,455.2c1.1,3.1,2,7.4,2,7.4s17.5,7.7,15,9.5c-3.8,2.8-22-0.6-21.9-2.2v-8L819.4,455.2z"/>
		<path class="st16" d="M689.6,200.9c0,0-1,3.6,1.2,6c2.1,2.4,6.2,3.1,6.2,3.1l3.4-3.9c0,0-3.2-6.8-3.5-7.3
			C696.6,198.4,689.6,200.9,689.6,200.9z"/>
		<path class="st27" d="M777.7,318.3c-7.2,39.8-10.4,98.6-14.3,146.2c0,0,5.7,0.1,8.1-0.4c9.5-39.7,18.1-80.6,27.7-120.3
			c5.1,39.1,10,80.4,15.1,119.5c1.4,0.4,5.6-0.6,7-0.8c1.5-0.2,2.1-140.2,1.9-141.8C823,319.1,777.7,318.3,777.7,318.3z"/>
		<path class="st16" d="M799.4,213.4c0.3,3.1,0.5,13.2-5.6,15.4c-2.5,0.9-4.9,2.8-4.9,2.8c0.2,9.5,22.3,12,31.6,3.4l-3.7-4.4
			c-7.8-1.6-4.4-14.6-4-20.9L799.4,213.4z"/>
		<path class="st12" d="M909.4,208.6c0,0,0.9-7.9,2.1-9.3c1.2-1.4,5.6-3.7,5.3-2.5c-0.2,1.2-2.4,3.5-2.4,3.5l-0.3,2.2
			c0,0,6.1-7.1,7.7-7.9c1.6-0.8,2.2-0.1,2.2-0.1s1.9-1.4,2.6-0.9c0.7,0.6,0.4,1.6,0.2,1.9c-0.1,0.3-0.2,0.4-0.2,0.4s0.4,0,0.7,0.8
			c0.2,0.8-0.2,1.8-0.2,1.8s0.5,0.2,0.4,1.2s-0.4,1.4-0.5,1.5s-4.5,5.6-4.6,5.9s-0.4,1.6-2.3,3.4c-1.9,1.8-6.7,2.8-6.7,2.8
			C908.2,210.8,910.9,212.7,909.4,208.6z"/>
		<path class="st28" d="M779.5,231.3c-27.5,4.5-58.2-7.7-78.3-26.1L697,210c0,0,12,19,36,28.4c15.3,7.8,35.9,8.7,47.4,8.4
			c1,35.1-5.1,60.7-6.5,80c-0.6,10,52.3,16.9,52.3,8.6c-1-28.4-6.1-60.4-2.9-86.5c11.8,0,40.2,0.1,54.5-7.2c24-9.3,36-28.4,36-28.4
			l-4.2-4.8c-21.3,19.4-54.4,32-83.1,25.1l-9.6-3c0,0-5.7,5.7-14.9,4.6c-9.1-1.1-8.2-6.5-8.2-6.5C789,229.6,784.3,230.6,779.5,231.3
			z"/>
		<path class="st14" d="M821.4,198.3c0.4,1.5-1.5,7.7-3.1,11.2s-6.1,5.5-6.1,5s1.1-13.2,1.1-13.2L821.4,198.3z"/>
		<path class="st12" d="M790,215.2c1.6,8.7,5.3,11.2,11.5,8.2c5.3-2.6,9.1-7.2,11.6-12.1c1.7,0.5,3.7-0.6,4.9-2.7
			c1.4-2.5,1.1-5.5-0.7-6.7c-0.4-0.3-0.8-0.4-1.3-0.5c0.2-2.6,0-5.1-0.2-7.8c-0.2-4.9-13.5-9.7-19.3-6.7
			C789.3,190.8,788.9,209,790,215.2z"/>
		<path class="st14" d="M811.3,195.9c0.6,0.6-0.7,9.7,0.3,9.7s4.5-4.1,4.5-4.1s0.2-0.2,1.3,0.5s1.4,2,1.4,2s4.4-8.5,3.9-10.4
			s-4.2-4.3-4.2-4.3s-0.3-2-2.4-4.3c-2.1-2.3-8.2-2.8-16.3-4s-13.8,3.9-6.5,9.6C799.9,195.8,811.3,195.9,811.3,195.9z"/>
		<path class="st19" d="M701.2,177l4.5,1.8c0.6,0.2,0.9,0.9,0.6,1.5l-14.8,37.9c-0.2,0.6-0.9,0.9-1.5,0.6l-4.5-1.8
			c-0.6-0.2-0.9-0.9-0.6-1.5l14.8-37.9C700,177,700.6,176.7,701.2,177z"/>
		<path class="st14" d="M812.8,193.2c-0.2,0.3-1.6,2.6-6.3,3.7s-5.7-1.4-5.7-1.4s-2.2,0.8-5.4-0.2s-1.7-2.5-1.7-2.5
			s-0.9,1.5-3.7-0.7c-2.9-2.2-0.2-5.1-0.2-5.1l1.7-2.6c0,0-0.3-1.5,1.2-3.3c1.6-1.8,4.8-1,4.8-1s1.4-1.4,4.4-1.1s4.7,2.2,4.7,2.2
			s2.4-1,4.9-0.5c2.5,0.4,3.7,2.6,3.7,2.6s2.8,0.4,4,2.1c1.2,1.8,0.2,3.8,0.2,3.8s2.8,0.4,2.7,2.7c-0.1,2.2-3,5.2-6.2,4.9
			C812.9,196.4,812.8,193.2,812.8,193.2z"/>
		<path class="st12" d="M693.8,195.8c0.6,0.6,0.7,0.8,1.1,1.8c0.8,2-1.7,6.5-3.5,7.2s-2.6,0.9-3-1.2c-0.3-1.5,1.5-5.6,2.8-7.6
			C692,194.8,692.5,194.7,693.8,195.8z"/>
		<path class="st12" d="M699.5,207l1.7-1.8c0,0-1.1-4.9-2.2-6.1c-1-1.1-5.1-5.2-5.5-4.7c-0.5,0.4-0.7,1.6,0.4,3.7
			c1,2.1,3.1,2.9,3.1,2.9s-0.7,3.5,0.1,5.8C697.8,209.1,699.5,207,699.5,207z"/>
		<polygon class="st29" points="694.8,189.6 701.6,193 700.3,196.2 693.4,193.2 		"/>
		<path class="st29" d="M699,193.5c0.2,0.3,1.4,1.4,2.9,3.9s1,8.6,1.4,8.5s1.9-0.3,1.9-0.3s0.8-4.6-0.5-7.5c-1.3-3-4.3-4.8-4.3-4.8
			L699,193.5z"/>
		<path class="st29" d="M699,194.8c0.3,0.2,2,1.2,5.6,1.1s5-1.8,5-1.8l-0.9-1.3c0,0-2.8,1.4-5.7,1.5c-2.9,0-3.9-0.3-3.9-0.3
			L699,194.8z"/>
	</g>
	<path class="st12" d="M1122.1,609.8c0.7-0.3,3.3-1.2,3.9-1.5s6.5-3,7.4-3.1c0.4,0,2.9,0.3,5.3,1c1.3,0.4,4.3,2,4.6,2.1
		c0.7,0.3-0.6,1.2-1.5,1.2c-1-0.1-3.6-1.5-3.6-1.5c-0.4,0-0.7,0-1.1,0c0.3,0.2,0.6,0.4,0.7,0.5c0.4,0.4,1,1.8,0.8,2
		s-0.6,0.5-1.6,0.5c-0.5,0-1.5-0.5-2.3-1.1c-0.6,2-5,3.9-6.9,4.1c-1.9,0.2-3.3-0.5-3.3-0.5L1122.1,609.8z"/>
	<path class="st30" d="M1105.4,547c1.8,1-1.3,48-1.3,48l21.4,13.5l-2.4,4.9l-29-15.1c0,0-0.8-46.6,1.5-49.8
		C1097,546.6,1103.9,546.1,1105.4,547z"/>
	<path class="st14" d="M1104.6,511.6c-1.1,1-3,6.9-3.6,10.5c-0.7,3.7,1.9,7.7,2.1,7.2c0.3-0.4,6.2-11,6.2-11L1104.6,511.6z"/>
	<path class="st16" d="M1110.4,533.4c0,0-1.7,2.8-2.3,9.2c-0.6,6.4-1.9,8.7-1.9,8.7l-11.4-8.4l10.4-17.6L1110.4,533.4z"/>
	<path class="st31" d="M1125.3,707.6H918.6c-9.8,0-17.7,11.1-17.7,24.7c0,13.7,7.9,24.7,17.7,24.7h206.6l-1.1-2.7
		c-2.8-6.8-4.3-14.3-4.3-22.1c0-7.7,1.4-15.3,4.3-22.1L1125.3,707.6z"/>
	<path class="st32" d="M919.5,707.8h185.9h18.9h8.5v-5.5h-6.2h-21.2H919.5c-12.4,0-21.8,14-21.8,30.1c0,16,9.3,30.1,21.8,30.1h184.4
		h22.7h6.2V757h-8.5h-20.4H919.5c-9.7,0-17.6-11-17.6-24.5C901.9,718.8,909.8,707.8,919.5,707.8z"/>
	<path class="st33" d="M1042.7,732.3c0-13.7,7.9-24.7,17.7-24.7H918.6c-9.8,0-17.7,11.1-17.7,24.7c0,13.7,7.9,24.7,17.7,24.7h141.7
		C1050.6,757.1,1042.7,746,1042.7,732.3z"/>
	<path class="st31" d="M904.9,647.5h206.6c9.8,0,17.7,11.1,17.7,24.7c0,13.7-7.9,24.7-17.7,24.7H904.9l1.1-2.7
		c2.8-6.8,4.3-14.3,4.3-22.1c0-7.7-1.4-15.3-4.3-22.1L904.9,647.5z"/>
	<path class="st34" d="M1110.7,647.7H924.8h-18.9h-8.5v-5.5h6.2h21.2h185.9c12.4,0,21.8,14,21.8,30.1c0,16-9.3,30.1-21.8,30.1H926.2
		h-22.7h-6.2v-5.5h8.5h20.4h184.4c9.7,0,17.6-11,17.6-24.5C1128.2,658.7,1120.3,647.7,1110.7,647.7z"/>
	<path class="st34" d="M987.5,672.7c0-14.5-7.9-26.3-17.7-26.3h141.7c9.8,0,17.7,11.8,17.7,26.3s-7.9,26.3-17.7,26.3H969.8
		C979.5,699,987.5,687.3,987.5,672.7z"/>
	<g>
		<rect x="918.6" y="713.6" class="st35" width="194" height="2.3"/>
		<rect x="918.6" y="722.5" class="st35" width="194" height="2.3"/>
		<rect x="918.6" y="740.4" class="st35" width="194" height="2.3"/>
		<rect x="918.6" y="731.5" class="st35" width="194" height="2.3"/>
		<rect x="918.6" y="749.4" class="st35" width="194" height="2.3"/>
	</g>
	<g>
		<rect x="914.9" y="653.9" class="st35" width="57.5" height="2.3"/>
		<rect x="914.9" y="662.8" class="st35" width="57.5" height="2.3"/>
		<rect x="914.9" y="680.7" class="st35" width="57.5" height="2.3"/>
		<rect x="914.9" y="671.8" class="st35" width="57.5" height="2.3"/>
		<rect x="914.9" y="689.7" class="st35" width="57.5" height="2.3"/>
	</g>
	<g>
		<g>
			<g>
				<path class="st36" d="M634.7,608.6h-8.6v-30.7h-58.4v30.7h-8.6v-35c0-2.4,1.9-4.3,4.3-4.3h67c2.4,0,4.3,1.9,4.3,4.3V608.6z"/>
			</g>
		</g>
		<path class="st37" d="M632.9,606.7v-33.1c0-1.3-1.1-2.4-2.4-2.4h-67c-1.3,0-2.4,1.1-2.4,2.4v33.1h4.9V576h62v30.7H632.9z"/>
		<g>
			<path class="st38" d="M710,748.8c0,7.5-6.2,13.6-13.8,13.6H497.7c-7.6,0-13.8-6.1-13.8-13.6V610c0-7.5,6.2-13.6,13.8-13.6h198.5
				c7.6,0,13.8,6.1,13.8,13.6V748.8z"/>
		</g>
		<path class="st39" d="M704.9,748.8v-4.4c0-0.2-0.1-0.3-0.3-0.4c-0.3-0.1-0.6,0.1-0.6,0.4c0,1.4,0.2,4.4-0.2,6.2
			c-0.1,0.6,0.7,0.8,0.9,0.2C704.8,750.2,704.9,749.5,704.9,748.8L704.9,748.8z M702.3,754.8c0.4-0.4-0.2-1-0.6-0.6
			c-1,1-2.2,1.6-3.6,2c-0.6,0.1-0.3,1,0.2,0.9C699.8,756.7,701.2,755.9,702.3,754.8L702.3,754.8z M693.8,757.3
			c0.2,0,0.3-0.1,0.4-0.3c0.1-0.3-0.1-0.6-0.4-0.6h-4.4c-0.2,0-0.3,0.1-0.4,0.3c-0.1,0.3,0.1,0.6,0.4,0.6H693.8L693.8,757.3z
			 M685,757.3c0.2,0,0.3-0.1,0.4-0.3c0.1-0.3-0.1-0.6-0.4-0.6h-4.4c-0.2,0-0.3,0.1-0.4,0.3c-0.1,0.3,0.1,0.6,0.4,0.6H685L685,757.3z
			 M676.1,757.3c0.2,0,0.3-0.1,0.4-0.3c0.1-0.3-0.1-0.6-0.4-0.6h-4.4c-0.2,0-0.3,0.1-0.4,0.3c-0.1,0.3,0.1,0.6,0.4,0.6H676.1
			L676.1,757.3z M667.3,757.3c0.2,0,0.3-0.1,0.4-0.3c0.1-0.3-0.1-0.6-0.4-0.6h-4.4c-0.2,0-0.3,0.1-0.4,0.3c-0.1,0.3,0.1,0.6,0.4,0.6
			H667.3L667.3,757.3z M658.5,757.3c0.2,0,0.3-0.1,0.4-0.3c0.1-0.3-0.1-0.6-0.4-0.6h-4.4c-0.2,0-0.3,0.1-0.4,0.3
			c-0.1,0.3,0.1,0.6,0.4,0.6H658.5L658.5,757.3z M649.6,757.3c0.2,0,0.3-0.1,0.4-0.3c0.1-0.3-0.1-0.6-0.4-0.6h-4.4
			c-0.2,0-0.3,0.1-0.4,0.3c-0.1,0.3,0.1,0.6,0.4,0.6H649.6L649.6,757.3z M640.8,757.3c0.2,0,0.3-0.1,0.4-0.3
			c0.1-0.3-0.1-0.6-0.4-0.6h-4.4c-0.2,0-0.3,0.1-0.4,0.3c-0.1,0.3,0.1,0.6,0.4,0.6H640.8L640.8,757.3z M632,757.3
			c0.2,0,0.3-0.1,0.4-0.3c0.1-0.3-0.1-0.6-0.4-0.6h-4.4c-0.2,0-0.3,0.1-0.4,0.3c-0.1,0.3,0.1,0.6,0.4,0.6H632L632,757.3z
			 M623.2,757.3c0.2,0,0.3-0.1,0.4-0.3c0.1-0.3-0.1-0.6-0.4-0.6h-4.4c-0.2,0-0.3,0.1-0.4,0.3c-0.1,0.3,0.1,0.6,0.4,0.6H623.2
			L623.2,757.3z M614.3,757.3c0.2,0,0.3-0.1,0.4-0.3c0.1-0.3-0.1-0.6-0.4-0.6h-4.4c-0.2,0-0.3,0.1-0.4,0.3c-0.1,0.3,0.1,0.6,0.4,0.6
			H614.3L614.3,757.3z M605.5,757.3c0.2,0,0.3-0.1,0.4-0.3c0.1-0.3-0.1-0.6-0.4-0.6h-4.4c-0.2,0-0.3,0.1-0.4,0.3
			c-0.1,0.3,0.1,0.6,0.4,0.6H605.5L605.5,757.3z M596.7,757.3c0.2,0,0.3-0.1,0.4-0.3c0.1-0.3-0.1-0.6-0.4-0.6h-4.4
			c-0.2,0-0.3,0.1-0.4,0.3c-0.1,0.3,0.1,0.6,0.4,0.6H596.7L596.7,757.3z M587.8,757.3c0.2,0,0.3-0.1,0.4-0.3
			c0.1-0.3-0.1-0.6-0.4-0.6h-4.4c-0.2,0-0.3,0.1-0.4,0.3c-0.1,0.3,0.1,0.6,0.4,0.6H587.8L587.8,757.3z M579,757.3
			c0.2,0,0.3-0.1,0.4-0.3c0.1-0.3-0.1-0.6-0.4-0.6h-4.4c-0.2,0-0.3,0.1-0.4,0.3c-0.1,0.3,0.1,0.6,0.4,0.6H579L579,757.3z
			 M570.2,757.3c0.2,0,0.3-0.1,0.4-0.3c0.1-0.3-0.1-0.6-0.4-0.6h-4.4c-0.2,0-0.3,0.1-0.4,0.3c-0.1,0.3,0.1,0.6,0.4,0.6H570.2
			L570.2,757.3z M561.4,757.3c0.2,0,0.3-0.1,0.4-0.3c0.1-0.3-0.1-0.6-0.4-0.6H557c-0.2,0-0.3,0.1-0.4,0.3c-0.1,0.3,0.1,0.6,0.4,0.6
			H561.4L561.4,757.3z M552.5,757.3c0.2,0,0.3-0.1,0.4-0.3c0.1-0.3-0.1-0.6-0.4-0.6h-4.4c-0.2,0-0.3,0.1-0.4,0.3
			c-0.1,0.3,0.1,0.6,0.4,0.6H552.5L552.5,757.3z M543.7,757.3c0.2,0,0.3-0.1,0.4-0.3c0.1-0.3-0.1-0.6-0.4-0.6h-4.4
			c-0.2,0-0.3,0.1-0.4,0.3c-0.1,0.3,0.1,0.6,0.4,0.6H543.7L543.7,757.3z M534.9,757.3c0.2,0,0.3-0.1,0.4-0.3
			c0.1-0.3-0.1-0.6-0.4-0.6h-4.4c-0.2,0-0.3,0.1-0.4,0.3c-0.1,0.3,0.1,0.6,0.4,0.6H534.9L534.9,757.3z M526.1,757.3
			c0.2,0,0.3-0.1,0.4-0.3c0.1-0.3-0.1-0.6-0.4-0.6h-4.4c-0.2,0-0.3,0.1-0.4,0.3c-0.1,0.3,0.1,0.6,0.4,0.6H526.1L526.1,757.3z
			 M517.2,757.3c0.2,0,0.3-0.1,0.4-0.3c0.1-0.3-0.1-0.6-0.4-0.6h-4.4c-0.2,0-0.3,0.1-0.4,0.3c-0.1,0.3,0.1,0.6,0.4,0.6H517.2
			L517.2,757.3z M508.4,757.3c0.2,0,0.3-0.1,0.4-0.3c0.1-0.3-0.1-0.6-0.4-0.6H504c-0.2,0-0.3,0.1-0.4,0.3c-0.1,0.3,0.1,0.6,0.4,0.6
			H508.4L508.4,757.3z M499.6,757.3c0.2,0,0.3-0.1,0.4-0.3c0.1-0.3-0.1-0.6-0.4-0.6h-1.9c-0.8,0-1.6-0.1-2.4-0.4
			c-0.5-0.2-0.9,0.6-0.3,0.8c0.8,0.3,1.8,0.4,2.6,0.4L499.6,757.3L499.6,757.3z M491.2,754.5c0.4,0.4,1-0.2,0.6-0.6
			c-0.9-1-1.6-2.3-1.9-3.7c-0.1-0.6-0.9-0.4-0.9,0.2C489.4,751.9,490.1,753.3,491.2,754.5L491.2,754.5z M488.9,745.9
			c0,0.2,0.1,0.3,0.3,0.4c0.3,0.1,0.6-0.1,0.6-0.4v-4.4c0-0.2-0.1-0.3-0.3-0.4c-0.3-0.1-0.6,0.1-0.6,0.4V745.9L488.9,745.9z
			 M488.9,737c0,0.2,0.1,0.3,0.3,0.4c0.3,0.1,0.6-0.1,0.6-0.4v-4.4c0-0.2-0.1-0.3-0.3-0.4c-0.3-0.1-0.6,0.1-0.6,0.4V737L488.9,737z
			 M488.9,728.2c0,0.2,0.1,0.3,0.3,0.4c0.3,0.1,0.6-0.1,0.6-0.4v-4.4c0-0.2-0.1-0.3-0.3-0.4c-0.3-0.1-0.6,0.1-0.6,0.4V728.2
			L488.9,728.2z M488.9,719.4c0,0.2,0.1,0.3,0.3,0.4c0.3,0.1,0.6-0.1,0.6-0.4V715c0-0.2-0.1-0.3-0.3-0.4c-0.3-0.1-0.6,0.1-0.6,0.4
			V719.4L488.9,719.4z M488.9,710.6c0,0.2,0.1,0.3,0.3,0.4c0.3,0.1,0.6-0.1,0.6-0.4v-4.4c0-0.2-0.1-0.3-0.3-0.4
			c-0.3-0.1-0.6,0.1-0.6,0.4V710.6L488.9,710.6z M488.9,701.7c0,0.2,0.1,0.3,0.3,0.4c0.3,0.1,0.6-0.1,0.6-0.4v-4.4
			c0-0.2-0.1-0.3-0.3-0.4c-0.3-0.1-0.6,0.1-0.6,0.4V701.7L488.9,701.7z M488.9,692.9c0,0.2,0.1,0.3,0.3,0.4c0.3,0.1,0.6-0.1,0.6-0.4
			v-4.4c0-0.2-0.1-0.3-0.3-0.4c-0.3-0.1-0.6,0.1-0.6,0.4V692.9L488.9,692.9z M488.9,684.1c0,0.2,0.1,0.3,0.3,0.4
			c0.3,0.1,0.6-0.1,0.6-0.4v-4.4c0-0.2-0.1-0.3-0.3-0.4c-0.3-0.1-0.6,0.1-0.6,0.4V684.1L488.9,684.1z M488.9,675.2
			c0,0.2,0.1,0.3,0.3,0.4c0.3,0.1,0.6-0.1,0.6-0.4v-4.4c0-0.2-0.1-0.3-0.3-0.4c-0.3-0.1-0.6,0.1-0.6,0.4V675.2L488.9,675.2z
			 M488.9,666.4c0,0.2,0.1,0.3,0.3,0.4c0.3,0.1,0.6-0.1,0.6-0.4V662c0-0.2-0.1-0.3-0.3-0.4c-0.3-0.1-0.6,0.1-0.6,0.4V666.4
			L488.9,666.4z M488.9,657.6c0,0.2,0.1,0.3,0.3,0.4c0.3,0.1,0.6-0.1,0.6-0.4v-4.4c0-0.2-0.1-0.3-0.3-0.4c-0.3-0.1-0.6,0.1-0.6,0.4
			V657.6L488.9,657.6z M488.9,648.8c0,0.2,0.1,0.3,0.3,0.4c0.3,0.1,0.6-0.1,0.6-0.4v-4.4c0-0.2-0.1-0.3-0.3-0.4
			c-0.3-0.1-0.6,0.1-0.6,0.4V648.8L488.9,648.8z M488.9,639.9c0,0.2,0.1,0.3,0.3,0.4c0.3,0.1,0.6-0.1,0.6-0.4v-4.4
			c0-0.2-0.1-0.3-0.3-0.4c-0.3-0.1-0.6,0.1-0.6,0.4V639.9L488.9,639.9z M488.9,631.1c0,0.2,0.1,0.3,0.3,0.4c0.3,0.1,0.6-0.1,0.6-0.4
			v-4.4c0-0.2-0.1-0.3-0.3-0.4c-0.3-0.1-0.6,0.1-0.6,0.4V631.1L488.9,631.1z M488.9,622.3c0,0.2,0.1,0.3,0.3,0.4
			c0.3,0.1,0.6-0.1,0.6-0.4v-4.4c0-0.2-0.1-0.3-0.3-0.4c-0.3-0.1-0.6,0.1-0.6,0.4V622.3L488.9,622.3z M488.9,613.5
			c0,0.2,0.1,0.3,0.3,0.4c0.3,0.1,0.6-0.1,0.6-0.4c0-1.3-0.1-3,0.1-4.4c0.1-0.6-0.8-0.7-0.9-0.1
			C488.8,610.4,488.9,612.1,488.9,613.5L488.9,613.5z M490.9,604.8c-0.4,0.5,0.4,1,0.7,0.6c0.9-1.1,2-1.8,3.4-2.4
			c0.6-0.2,0.2-1-0.3-0.8C493.1,602.7,491.9,603.5,490.9,604.8L490.9,604.8z M499.1,601.6c-0.2,0-0.3,0.1-0.4,0.3
			c-0.1,0.3,0.1,0.6,0.4,0.6h4.4c0.2,0,0.3-0.1,0.4-0.3c0.1-0.3-0.1-0.6-0.4-0.6H499.1L499.1,601.6z M507.9,601.6
			c-0.2,0-0.3,0.1-0.4,0.3c-0.1,0.3,0.1,0.6,0.4,0.6h4.4c0.2,0,0.3-0.1,0.4-0.3c0.1-0.3-0.1-0.6-0.4-0.6H507.9L507.9,601.6z
			 M516.8,601.6c-0.2,0-0.3,0.1-0.4,0.3c-0.1,0.3,0.1,0.6,0.4,0.6h4.4c0.2,0,0.3-0.1,0.4-0.3c0.1-0.3-0.1-0.6-0.4-0.6H516.8
			L516.8,601.6z M525.6,601.6c-0.2,0-0.3,0.1-0.4,0.3c-0.1,0.3,0.1,0.6,0.4,0.6h4.4c0.2,0,0.3-0.1,0.4-0.3c0.1-0.3-0.1-0.6-0.4-0.6
			H525.6L525.6,601.6z M534.4,601.6c-0.2,0-0.3,0.1-0.4,0.3c-0.1,0.3,0.1,0.6,0.4,0.6h4.4c0.2,0,0.3-0.1,0.4-0.3
			c0.1-0.3-0.1-0.6-0.4-0.6H534.4L534.4,601.6z M543.2,601.6c-0.2,0-0.3,0.1-0.4,0.3c-0.1,0.3,0.1,0.6,0.4,0.6h4.4
			c0.2,0,0.3-0.1,0.4-0.3c0.1-0.3-0.1-0.6-0.4-0.6H543.2L543.2,601.6z M552.1,601.6c-0.2,0-0.3,0.1-0.4,0.3
			c-0.1,0.3,0.1,0.6,0.4,0.6h4.4c0.2,0,0.3-0.1,0.4-0.3c0.1-0.3-0.1-0.6-0.4-0.6H552.1L552.1,601.6z M560.9,601.6
			c-0.2,0-0.3,0.1-0.4,0.3c-0.1,0.3,0.1,0.6,0.4,0.6h4.4c0.2,0,0.3-0.1,0.4-0.3c0.1-0.3-0.1-0.6-0.4-0.6H560.9L560.9,601.6z
			 M569.7,601.6c-0.2,0-0.3,0.1-0.4,0.3c-0.1,0.3,0.1,0.6,0.4,0.6h4.4c0.2,0,0.3-0.1,0.4-0.3c0.1-0.3-0.1-0.6-0.4-0.6H569.7
			L569.7,601.6z M578.6,601.6c-0.2,0-0.3,0.1-0.4,0.3c-0.1,0.3,0.1,0.6,0.4,0.6h4.4c0.2,0,0.3-0.1,0.4-0.3c0.1-0.3-0.1-0.6-0.4-0.6
			H578.6L578.6,601.6z M587.4,601.6c-0.2,0-0.3,0.1-0.4,0.3c-0.1,0.3,0.1,0.6,0.4,0.6h4.4c0.2,0,0.3-0.1,0.4-0.3
			c0.1-0.3-0.1-0.6-0.4-0.6H587.4L587.4,601.6z M596.2,601.6c-0.2,0-0.3,0.1-0.4,0.3c-0.1,0.3,0.1,0.6,0.4,0.6h4.4
			c0.2,0,0.3-0.1,0.4-0.3c0.1-0.3-0.1-0.6-0.4-0.6H596.2L596.2,601.6z M605,601.6c-0.2,0-0.3,0.1-0.4,0.3c-0.1,0.3,0.1,0.6,0.4,0.6
			h4.4c0.2,0,0.3-0.1,0.4-0.3c0.1-0.3-0.1-0.6-0.4-0.6H605L605,601.6z M613.9,601.6c-0.2,0-0.3,0.1-0.4,0.3
			c-0.1,0.3,0.1,0.6,0.4,0.6h4.4c0.2,0,0.3-0.1,0.4-0.3c0.1-0.3-0.1-0.6-0.4-0.6H613.9L613.9,601.6z M622.7,601.6
			c-0.2,0-0.3,0.1-0.4,0.3c-0.1,0.3,0.1,0.6,0.4,0.6h4.4c0.2,0,0.3-0.1,0.4-0.3c0.1-0.3-0.1-0.6-0.4-0.6H622.7L622.7,601.6z
			 M631.5,601.6c-0.2,0-0.3,0.1-0.4,0.3c-0.1,0.3,0.1,0.6,0.4,0.6h4.4c0.2,0,0.3-0.1,0.4-0.3c0.1-0.3-0.1-0.6-0.4-0.6H631.5
			L631.5,601.6z M640.3,601.6c-0.2,0-0.3,0.1-0.4,0.3c-0.1,0.3,0.1,0.6,0.4,0.6h4.4c0.2,0,0.3-0.1,0.4-0.3c0.1-0.3-0.1-0.6-0.4-0.6
			H640.3L640.3,601.6z M649.2,601.6c-0.2,0-0.3,0.1-0.4,0.3c-0.1,0.3,0.1,0.6,0.4,0.6h4.4c0.2,0,0.3-0.1,0.4-0.3
			c0.1-0.3-0.1-0.6-0.4-0.6H649.2L649.2,601.6z M658,601.6c-0.2,0-0.3,0.1-0.4,0.3c-0.1,0.3,0.1,0.6,0.4,0.6h4.4
			c0.2,0,0.3-0.1,0.4-0.3c0.1-0.3-0.1-0.6-0.4-0.6H658L658,601.6z M666.8,601.6c-0.2,0-0.3,0.1-0.4,0.3c-0.1,0.3,0.1,0.6,0.4,0.6
			h4.4c0.2,0,0.3-0.1,0.4-0.3c0.1-0.3-0.1-0.6-0.4-0.6H666.8L666.8,601.6z M675.7,601.6c-0.2,0-0.3,0.1-0.4,0.3
			c-0.1,0.3,0.1,0.6,0.4,0.6h4.4c0.2,0,0.3-0.1,0.4-0.3c0.1-0.3-0.1-0.6-0.4-0.6H675.7L675.7,601.6z M684.5,601.6
			c-0.2,0-0.3,0.1-0.4,0.3c-0.1,0.3,0.1,0.6,0.4,0.6h4.4c0.2,0,0.3-0.1,0.4-0.3c0.1-0.3-0.1-0.6-0.4-0.6H684.5L684.5,601.6z
			 M693.3,601.6c-0.2,0-0.3,0.1-0.4,0.3c-0.1,0.3,0.1,0.6,0.4,0.6c0.9,0,3.1-0.1,4.3,0.1c0.5,0.1,0.8-0.7,0.2-0.9
			C696.5,601.4,694.4,601.6,693.3,601.6L693.3,601.6z M701.9,603.7c-0.4-0.3-1,0.2-0.6,0.7c1,0.8,1.9,2.2,2.3,3.4
			c0.2,0.6,1,0.2,0.8-0.3C704.1,606.1,703.1,604.6,701.9,603.7L701.9,603.7z M704.9,612c0-0.2-0.1-0.3-0.3-0.4
			c-0.3-0.1-0.6,0.1-0.6,0.4v4.4c0,0.2,0.1,0.3,0.3,0.4c0.3,0.1,0.6-0.1,0.6-0.4V612L704.9,612z M704.9,620.8c0-0.2-0.1-0.3-0.3-0.4
			c-0.3-0.1-0.6,0.1-0.6,0.4v4.4c0,0.2,0.1,0.3,0.3,0.4c0.3,0.1,0.6-0.1,0.6-0.4V620.8L704.9,620.8z M704.9,629.7
			c0-0.2-0.1-0.3-0.3-0.4c-0.3-0.1-0.6,0.1-0.6,0.4v4.4c0,0.2,0.1,0.3,0.3,0.4c0.3,0.1,0.6-0.1,0.6-0.4V629.7L704.9,629.7z
			 M704.9,638.5c0-0.2-0.1-0.3-0.3-0.4c-0.3-0.1-0.6,0.1-0.6,0.4v4.4c0,0.2,0.1,0.3,0.3,0.4c0.3,0.1,0.6-0.1,0.6-0.4V638.5
			L704.9,638.5z M704.9,647.3c0-0.2-0.1-0.3-0.3-0.4c-0.3-0.1-0.6,0.1-0.6,0.4v4.4c0,0.2,0.1,0.3,0.3,0.4c0.3,0.1,0.6-0.1,0.6-0.4
			V647.3L704.9,647.3z M704.9,656.2c0-0.2-0.1-0.3-0.3-0.4c-0.3-0.1-0.6,0.1-0.6,0.4v4.4c0,0.2,0.1,0.3,0.3,0.4
			c0.3,0.1,0.6-0.1,0.6-0.4V656.2L704.9,656.2z M704.9,665c0-0.2-0.1-0.3-0.3-0.4c-0.3-0.1-0.6,0.1-0.6,0.4v4.4
			c0,0.2,0.1,0.3,0.3,0.4c0.3,0.1,0.6-0.1,0.6-0.4V665L704.9,665z M704.9,673.8c0-0.2-0.1-0.3-0.3-0.4c-0.3-0.1-0.6,0.1-0.6,0.4v4.4
			c0,0.2,0.1,0.3,0.3,0.4c0.3,0.1,0.6-0.1,0.6-0.4V673.8L704.9,673.8z M704.9,682.6c0-0.2-0.1-0.3-0.3-0.4c-0.3-0.1-0.6,0.1-0.6,0.4
			v4.4c0,0.2,0.1,0.3,0.3,0.4c0.3,0.1,0.6-0.1,0.6-0.4V682.6L704.9,682.6z M704.9,691.5c0-0.2-0.1-0.3-0.3-0.4
			c-0.3-0.1-0.6,0.1-0.6,0.4v4.4c0,0.2,0.1,0.3,0.3,0.4c0.3,0.1,0.6-0.1,0.6-0.4V691.5L704.9,691.5z M704.9,700.3
			c0-0.2-0.1-0.3-0.3-0.4c-0.3-0.1-0.6,0.1-0.6,0.4v4.4c0,0.2,0.1,0.3,0.3,0.4c0.3,0.1,0.6-0.1,0.6-0.4V700.3L704.9,700.3z
			 M704.9,709.1c0-0.2-0.1-0.3-0.3-0.4c-0.3-0.1-0.6,0.1-0.6,0.4v4.4c0,0.2,0.1,0.3,0.3,0.4c0.3,0.1,0.6-0.1,0.6-0.4V709.1
			L704.9,709.1z M704.9,717.9c0-0.2-0.1-0.3-0.3-0.4c-0.3-0.1-0.6,0.1-0.6,0.4v4.4c0,0.2,0.1,0.3,0.3,0.4c0.3,0.1,0.6-0.1,0.6-0.4
			V717.9L704.9,717.9z M704.9,726.8c0-0.2-0.1-0.3-0.3-0.4c-0.3-0.1-0.6,0.1-0.6,0.4v4.4c0,0.2,0.1,0.3,0.3,0.4
			c0.3,0.1,0.6-0.1,0.6-0.4V726.8L704.9,726.8z M704.9,735.6c0-0.2-0.1-0.3-0.3-0.4c-0.3-0.1-0.6,0.1-0.6,0.4v4.4
			c0,0.2,0.1,0.3,0.3,0.4c0.3,0.1,0.6-0.1,0.6-0.4V735.6z"/>
		<path class="st40" d="M479.1,594.6c0.7,43,53.1,77.7,117.8,77.7s117.1-34.7,117.8-77.7H479.1z"/>
		<path class="st41" d="M608,691.7h-22.1c-1.5,0-2.7-1.2-2.7-2.7v-29.9c0-1.5,1.2-2.7,2.7-2.7H608c1.5,0,2.7,1.2,2.7,2.7V689
			C610.7,690.5,609.5,691.7,608,691.7z"/>
		<path class="st42" d="M603.4,687.9h-13c-1.9,0-3.4-1.5-3.4-3.4v-20.7c0-1.9,1.5-3.4,3.4-3.4h13c1.9,0,3.4,1.5,3.4,3.4v20.6
			C606.9,686.3,605.3,687.9,603.4,687.9z"/>
	</g>
	<g>
		<polygon class="st43" points="615.5,487.3 792.4,461.7 969.3,487.3 969.3,491.5 792.4,517.1 615.5,491.5 		"/>
		<polygon class="st14" points="615.5,491.5 792.4,466 969.3,491.5 792.4,517.1 		"/>
		<polygon class="st44" points="715.6,496.4 869.3,496.4 877.1,558.3 707.8,558.3 		"/>
		<path class="st44" d="M792.4,509c42.3,0,76.8-5.6,76.8-12.4c0-6.8-34.5-12.4-76.8-12.4s-76.8,5.6-76.8,12.4
			C715.6,503.4,750.1,509,792.4,509z"/>
		<path class="st45" d="M792.4,570.7c46.6,0,84.7-5.6,84.7-12.4c0-6.8-38-12.4-84.7-12.4c-46.6,0-84.7,5.6-84.7,12.4
			C707.8,565.1,745.8,570.7,792.4,570.7z"/>
		<path class="st46" d="M945.1,483.8v24.5v109.3c0,1.5,1.2,2.6,2.6,2.6l0,0c1.5,0,2.6-1.2,2.6-2.6V483.8v-2.6c0-1.5-1.2-2.6-2.6-2.6
			h-2.6h-36.6L945.1,483.8z"/>
		<path class="st46" d="M947.6,586.4c9.2,0,16.9,42.1-0.1,59.1C930.4,628.4,938.3,586.4,947.6,586.4z"/>
		<path class="st47" d="M945.9,583.5h3.6c1.4,0,2.5,1.1,2.5,2.5l0,0c0,1.4-1.1,2.5-2.5,2.5h-3.6c-1.4,0-2.5-1.1-2.5-2.5l0,0
			C943.4,584.6,944.5,583.5,945.9,583.5z"/>
		<path class="st48" d="M865.1,506.6c-41.6,16.5-92.2,26.2-146.6,26.2c-2.5,0-5,0-7.4-0.1l-3.2,25c1.7-6.6,38.9-12,84.6-12
			c45.7,0,82.9,5.3,84.6,12l-6.6-51.9l-0.2-1.4C868.6,505.2,866.8,505.9,865.1,506.6z"/>
	</g>
	<g>
		<rect x="662.9" y="576.7" class="st49" width="258.9" height="185.7"/>
		<rect x="662.9" y="574.4" class="st50" width="258.9" height="185.7"/>
		<path class="st31" d="M666.2,647.8v92.4c18.3-4.4,39.9-7,62.9-7s44.6,2.6,62.9,7v-92.4v-82.7c-18.3-4.4-39.9-7-62.9-7
			s-44.6,2.6-62.9,7V647.8z"/>
		<path class="st51" d="M792.1,647.8v92.4c18.3-4.5,39.9-7,62.9-7s44.6,2.6,62.9,7v-92.4v-82.7c-18.3-4.4-39.9-7-62.9-7
			s-44.6,2.6-62.9,7V647.8z"/>
		<path class="st52" d="M666.2,745.2c18.4-4.5,39.9-7.2,63-7.4c23-0.1,44.4,2.2,62.8,6.5v-2.7c-18.3-4.2-39.7-6.6-62.6-6.5
			c-23.2,0.1-44.8,2.8-63.2,7.4V745.2z"/>
		<path class="st52" d="M666.2,749.6c18.4-4.5,39.9-7.2,63-7.4c23-0.1,44.4,2.2,62.8,6.5V746c-18.3-4.2-39.7-6.6-62.6-6.5
			c-23.2,0.1-44.8,2.8-63.2,7.4V749.6z"/>
		<path class="st52" d="M666.2,753.9c18.4-4.5,39.9-7.2,63-7.4c23-0.1,44.4,2.2,62.8,6.5v-2.7c-18.3-4.2-39.7-6.6-62.6-6.5
			c-23.2,0.1-44.8,2.8-63.2,7.4V753.9z"/>
		<path class="st53" d="M917.9,745.2c-18.4-4.5-39.9-7.2-63-7.4c-23-0.1-44.4,2.2-62.8,6.5v-2.7c18.3-4.2,39.7-6.6,62.6-6.5
			c23.2,0.1,44.8,2.8,63.2,7.4V745.2z"/>
		<path class="st53" d="M917.9,749.6c-18.4-4.5-39.9-7.2-63-7.4c-23-0.1-44.4,2.2-62.8,6.5V746c18.3-4.2,39.7-6.6,62.6-6.5
			c23.2,0.1,44.8,2.8,63.2,7.4V749.6z"/>
		<path class="st53" d="M917.9,753.9c-18.4-4.5-39.9-7.2-63-7.4c-23-0.1-44.4,2.2-62.8,6.5v-2.7c18.3-4.2,39.7-6.6,62.6-6.5
			c23.2,0.1,44.8,2.8,63.2,7.4V753.9z"/>
		<path class="st54" d="M906.9,602.1c-15.2-3.7-33-6-52-6.1c-18.9-0.1-36.7,1.8-51.8,5.4v-2.3c15.1-3.5,32.8-5.4,51.7-5.3
			c19.1,0.1,37,2.3,52.2,6.1L906.9,602.1z"/>
		<path class="st54" d="M906.9,619.8c-15.2-3.7-33-6-52-6.1c-18.9-0.1-36.7,1.8-51.8,5.4v-2.3c15.1-3.5,32.8-5.4,51.7-5.3
			c19.1,0.1,37,2.3,52.2,6.1L906.9,619.8z"/>
		<path class="st54" d="M906.9,640.5c-15.2-3.7-33-6-52-6.1c-18.9-0.1-36.7,1.8-51.8,5.4v-2.3c15.1-3.5,32.8-5.4,51.7-5.3
			c19.1,0.1,37,2.3,52.2,6.1L906.9,640.5z"/>
		<path class="st54" d="M906.9,660.5c-15.2-3.7-33-6-52-6.1c-18.9-0.1-36.7,1.8-51.8,5.4v-2.3c15.1-3.5,32.8-5.4,51.7-5.3
			c19.1,0.1,37,2.3,52.2,6.1L906.9,660.5z"/>
		<path class="st54" d="M906.9,678.3c-15.2-3.7-33-6-52-6.1c-18.9-0.1-36.7,1.8-51.8,5.4v-2.3c15.1-3.5,32.8-5.4,51.7-5.3
			c19.1,0.1,37,2.3,52.2,6.1L906.9,678.3z"/>
		<path class="st54" d="M906.9,698.9c-15.2-3.7-33-6-52-6.1c-18.9-0.1-36.7,1.8-51.8,5.4v-2.3c15.1-3.5,32.8-5.4,51.7-5.3
			c19.1,0.1,37,2.3,52.2,6.1L906.9,698.9z"/>
		<path class="st55" d="M783.4,601c-15.2-3.7-33-6-52-6.1c-18.9-0.1-36.7,1.8-51.8,5.4V598c15.1-3.5,32.8-5.4,51.7-5.3
			c19.1,0.1,37,2.3,52.2,6.1L783.4,601z"/>
		<path class="st55" d="M783.4,618.8c-15.2-3.7-33-6-52-6.1c-18.9-0.1-36.7,1.8-51.8,5.4v-2.3c15.1-3.5,32.8-5.4,51.7-5.3
			c19.1,0.1,37,2.3,52.2,6.1L783.4,618.8z"/>
		<path class="st55" d="M783.4,639.5c-15.2-3.7-33-6-52-6.1c-18.9-0.1-36.7,1.8-51.8,5.4v-2.3c15.1-3.5,32.8-5.4,51.7-5.3
			c19.1,0.1,37,2.3,52.2,6.1L783.4,639.5z"/>
		<path class="st55" d="M783.4,659.4c-15.2-3.7-33-6-52-6.1c-18.9-0.1-36.7,1.8-51.8,5.4v-2.3c15.1-3.5,32.8-5.4,51.7-5.3
			c19.1,0.1,37,2.3,52.2,6.1L783.4,659.4z"/>
		<path class="st55" d="M783.4,677.2c-15.2-3.7-33-6-52-6.1c-18.9-0.1-36.7,1.8-51.8,5.4v-2.3c15.1-3.5,32.8-5.4,51.7-5.3
			c19.1,0.1,37,2.3,52.2,6.1L783.4,677.2z"/>
		<path class="st55" d="M783.4,697.9c-15.2-3.7-33-6-52-6.1c-18.9-0.1-36.7,1.8-51.8,5.4v-2.3c15.1-3.5,32.8-5.4,51.7-5.3
			c19.1,0.1,37,2.3,52.2,6.1L783.4,697.9z"/>
	</g>
	<g>
		<g>
			<path class="st56" d="M930.3,552.2c-2.9,4.5-6.9,12.5-10.8,21.7c0,0.1-0.1,0.2-0.1,0.3l6.6,2.8c0-0.1,0.1-0.2,0.1-0.3
				c3.9-9.2,6.8-17.6,8-22.9L930.3,552.2z"/>
		</g>
		<path class="st57" d="M925.8,561l5.2,2.2c2.8,1.2,4.2,4.4,3.1,7l-0.1,0.2c-1.1,2.7-4.4,3.9-7.2,2.7l-5.2-2.2
			c-2.8-1.2-4.2-4.4-3.1-7l0.1-0.2C919.7,561,922.9,559.8,925.8,561z"/>
		<path class="st58" d="M918.6,563.6c-8.9,11.7-20.4,32.6-30.8,57.3c-0.1,0.3-0.3,0.6-0.4,0.9l13.3,5.6l0,0L914,633
			c0.1-0.3,0.3-0.6,0.4-0.9c10.5-24.7,17.5-47.5,19.6-62l-7.7-3.3l0,0L918.6,563.6z"/>
		<path class="st59" d="M914.5,568.2c-1.1,1.7-2.3,3.4-3.5,5.3l10.6,4.4l0,0l10,4.2c0.5-2.2,1-4.3,1.4-6.2l-8.9-3.8l0,0L914.5,568.2
			z"/>
		<path class="st57" d="M900.7,627.5L900.7,627.5l-13.3-5.6c-0.2,0.6-0.5,1.2-0.7,1.7c-19.5,46.5-34.5,88.4-41.5,114.5l7.5,3.2l0,0
			l7.5,3.2c13.8-23.2,33.4-63.2,53.1-109.6c0.2-0.6,0.5-1.2,0.7-1.7L900.7,627.5z"/>
		<path class="st56" d="M851.5,753.9c1.6-3.7-0.3-6.5-1.2-6.8l0,0l0,0c-0.8-0.4-4.1,0.2-5.7,3.9c-1.5,3.7-0.8,9.1,0.1,9.4l0,0l0,0
			C845.5,760.8,849.9,757.6,851.5,753.9z"/>
		<path class="st58" d="M860.3,744.5c-3.1,6-7.4,10.3-10.2,12.8c-2.3-1-4.6-1.9-6.9-2.9c-0.1-3.8,0-9.9,2.1-16.3
			C850.3,740.3,855.3,742.4,860.3,744.5z"/>
		<path class="st59" d="M925.9,573c10.3,4.4,12.3,3.9,11.9,11.9l-14.4-6.1L925.9,573z"/>
		<path class="st59" d="M933.5,580c1.3,7.1-5.3,34.9-12.6,43.7c-3.8,4.5-5.2,8.7-4.4,9.5s6.2-4.2,7.3-5.4c3.9-4.3,15.1-34.6,14-46.3
			L933.5,580z"/>
		<path class="st60" d="M911.6,573.8c-7.5,12-15.9,28.5-23.8,47.1c-0.1,0.3-0.3,0.6-0.4,0.9l13.3,5.6l20.9-49.5L911.6,573.8z"/>
		<path class="st61" d="M900.7,627.5l-13.3-5.6l0,0c-0.2,0.6-0.5,1.2-0.7,1.7c-19.5,46.5-34.5,88.4-41.5,114.5h0.1
			c0.4,0.2,0.8,0.4,1.3,0.5l6.2,2.6L900.7,627.5z"/>
		<path class="st60" d="M846.6,738.7l-1.3-0.5c-2.1,6.4-2.2,12.4-2.1,16.3c0.2,0.1,0.4,0.2,0.6,0.3c0.9,0.4,1.9,0.8,2.8,1.2l3.7-8.8
			l2.4-5.8C850.7,740.4,848.6,739.6,846.6,738.7z"/>
		<path class="st60" d="M915.1,568.5l5.7,2.3l3.3,1.4l0.1-0.2l2.2-5.1l-3.1-1.3l-4.6-1.9C917.4,565.1,916.3,566.7,915.1,568.5z"/>
		<path class="st61" d="M918.6,563.6l4.6,1.9l3.1,1.3l2-4.8l-2.6-1.1c-0.1,0-0.2-0.1-0.3-0.1C922.7,559.9,919.7,561.1,918.6,563.6z"
			/>
	</g>
	<g>
		<polygon class="st62" points="891.1,762.4 902.4,752.7 913.8,743 917,737.8 901.4,727.9 898.1,733.4 894.5,747.9 		"/>
		<polygon class="st26" points="895.6,758.5 892.5,756.5 891.1,762.4 		"/>
		<path class="st63" d="M1038.1,523l0.3,0.2c4.2,2.6,5.5,8.2,3,12.4L913.8,743h-0.1c0.5-1.3,0-2.9-1.3-3.7s-2.9-0.6-3.8,0.5
			c0.6-1.4,0.1-3-1.2-3.9c-1.3-0.8-3-0.5-4,0.7c0.6-1.4,0.2-3.1-1.2-3.9c-1.4-0.9-3.1-0.5-4,0.6l127.6-207.4
			C1028.3,521.7,1033.8,520.3,1038.1,523z"/>
		
			<rect x="1026.1" y="527" transform="matrix(0.5232 -0.8522 0.8522 0.5232 34.1675 1133.4977)" class="st64" width="8" height="18.4"/>
		<path class="st65" d="M912.4,739.3c1.3,0.8,1.8,2.4,1.3,3.7h0.1l122.1-198.5l-5.2-3.2L911.8,734.5l-3.2,5.3
			C909.5,738.7,911.1,738.5,912.4,739.3z"/>
		<path class="st65" d="M901.9,732.9c1.3,0.8,1.8,2.4,1.3,3.7h0.1l122.1-198.5l-5.2-3.2L901.3,728.1l-3.2,5.3
			C899,732.3,900.7,732.1,901.9,732.9z"/>
	</g>
	<path class="st43" d="M1133.9,689l-2.3,6.5l-1,6.3c0,0,8.2,4.9,13,6.5c4.8,1.5,8.8-0.7,7.6-2c-1.2-1.3-12-8.9-12-8.9L1133.9,689z"
		/>
	<path class="st66" d="M1077.9,615.2c2.6,0,31.8,1.6,31.8,1.6s37.3,2.9,42.2,8.2c4.9,5.3-12.6,72.9-12.6,72.9l-8.1-2l2.6-55.7
		c-8.6-0.4-60.6,6.3-60.9-1.4C1072.7,636.7,1077.9,615.2,1077.9,615.2z"/>
	<path class="st67" d="M1097.4,538.6c-24.7,11.7-33.3,73.6-24.6,100.1l28.3-22.4c-6.3-29.6,9.5-49.1,6.3-63.9
		C1105.4,543.6,1099.2,538.7,1097.4,538.6z"/>
	<path class="st12" d="M1120.4,541.8c-5.9,6-10.3,6-13.5,0.3c-2.8-4.9-3.3-10.6-2.7-15.8c-1.6-0.5-2.6-2.5-2.4-4.8
		c0.2-2.7,2.1-4.9,4.1-4.9c0.5,0,0.9,0.1,1.3,0.3c1.3-2.2,2.8-4,4.3-6.1c2.9-3.8,15.9-0.4,18.9,5.1
		C1134,522.8,1124.6,537.5,1120.4,541.8z"/>
	<path class="st14" d="M1113.9,515.1c-0.8,0.2-4.6,8-5.5,7.5c-0.8-0.5-1.3-5.7-1.3-5.7s0-0.3-1.3-0.3s-2.2,0.8-2.2,0.8
		s1.1-9.1,2.5-10.3s5.7-1.1,5.7-1.1s1.3-1.4,4.2-2.1c2.9-0.7,8,2.2,15.1,5.7c7,3.4,8.8,10.5,0,11.1
		C1123,521.1,1113.9,515.1,1113.9,515.1z"/>
	
		<rect x="1126.5" y="598.8" transform="matrix(0.1091 -0.994 0.994 0.1091 390.1193 1671.3855)" class="st68" width="2" height="38.5"/>
	<polygon class="st69" points="1165.7,586.5 1165.5,583.5 1159.1,584.4 1147.1,619.5 1151.9,620.8 1154.4,620.4 	"/>
	
		<rect x="1132.2" y="599.4" transform="matrix(0.1091 -0.994 0.994 0.1091 394.57 1677.5659)" class="st70" width="2" height="38.5"/>
	
		<rect x="1140.8" y="601" transform="matrix(0.3389 -0.9408 0.9408 0.3389 200.4646 1489.351)" class="st43" width="38.5" height="2"/>
	<path class="st12" d="M1122.7,611.2c0.8,0,3.5,0.1,4.2,0c0.7,0,7.2-0.4,8-0.1c0.4,0.1,2.6,1.4,4.5,2.9c1,0.9,3.2,3.4,3.5,3.7
		c0.5,0.5-1.1,0.9-1.8,0.6c-0.9-0.4-2.8-2.8-2.8-2.8c-0.4-0.1-0.7-0.2-1-0.4c0.2,0.3,0.4,0.6,0.5,0.7c0.2,0.6,0.3,2.1,0,2.1
		c-0.3,0.1-0.8,0.2-1.6-0.2c-0.5-0.2-1.2-1.1-1.8-1.8c-1.3,1.6-6.1,1.7-7.9,1.2s-2.9-1.7-2.9-1.7L1122.7,611.2z"/>
	<path class="st71" d="M1086.8,587.1l40.1,24.2l-3.4,4.3l-47.4-21.7c-5.6-2.6,6.5-40.8,9.3-47.7c2.3-5.7,8.2-6.9,11.9-5.5
		C1106.4,544.3,1087.5,583.3,1086.8,587.1z"/>
	<g>
		<path class="st12" d="M583,524c-0.1-0.1-1.3-7.8-0.6-9.2s3.8-4.2,3.9-3.2c0.1,1.1-1.3,3.4-1.3,3.4l0.2,1.9c0,0,3.6-7.1,4.7-8.1
			c1.1-1,1.8-0.5,1.8-0.5s1.2-1.6,1.9-1.2c0.7,0.3,0.6,1.2,0.6,1.5c-0.1,0.3-0.1,0.4-0.1,0.4s0.4-0.1,0.7,0.5s0.2,1.5,0.2,1.5
			s0.5,0.1,0.6,0.9c0.1,0.8-0.1,1.2-0.1,1.4c0,0.1-2.5,5.5-2.6,5.8s0,1.4-1.2,3.3c-1.2,1.9-4.3,4.1-4.3,4.1
			C582.7,525.4,583.1,524.1,583,524z"/>
		<path class="st72" d="M547.1,524c1,0.4,23.1,24.1,23.8,24.3c0.6,0.2,11.4-24.5,12.1-24.3c0.7,0.2,5.3,1.8,5.3,1.8
			s-11.6,32.4-13.1,34.5s-23.9-11.9-30.3-20.2c-6.4-8.3-6.3-14.5-4-16.2C543.2,522.1,547.1,524,547.1,524z"/>
		<path class="st12" d="M595.8,548.3c1,0.3,2.1,0.5,3,0.5c2,0,3.9-1,3.3,0.2c-0.3,0.6-2.9,1.8-5.5,2.9L595.8,548.3z"/>
		<path class="st73" d="M596,549.5c0,0,16.9-0.8,20.5,14l22.6-27c0,0-9.6-12.5-21.6-9.1L596,549.5z"/>
		<path class="st74" d="M544,586c-3.3,2.2-8.7,4.2-13,21.6c-4.3,17.3,2.7,65.9,2.7,65.9s-6,19.4-8.5,35.7s-5.4,38.2-5.4,38.2
			l7.7,2.3l21.8-72.1c7.7-25.5,7.3-84.4,4.8-85.8L544,586z"/>
		<path class="st75" d="M543.2,748.2l-2,3.3l-0.8,3.6c0,0,3.7,5.2,7.5,4.9c3.8-0.4,4.5-2.6,4.5-2.6l-3.4-4.8L543.2,748.2z"/>
		<path class="st34" d="M540.4,755c-1.1,0.2-2,6-0.9,7.2c2,0,4,0,5.9,0c0.4,0,0.8,0,1.2,0c3.4,0,11.6,0.2,14.2,0
			c2.6-0.2,6.7-2.1,2.3-3.1s-12.3-4.3-12.3-4.3C549.8,759,542.4,756.9,540.4,755z"/>
		<path class="st76" d="M531.1,583.9c-2.8,2.8-7.7,5.9-8.4,23.8c-0.7,17.8,16.1,63.9,16.1,63.9s-1.9,20.3-1,36.7s3.1,44.5,3.1,44.5
			l8.6,0.2l5.4-80.5c0,0,3.1-38.8,3.5-54.1c0.3-15.4-5.8-32-5.8-32L531.1,583.9z"/>
		<path class="st14" d="M524.7,487.6c-0.3,1.4,1.5,7.2,3,10.5s5.8,5.1,5.7,4.6c0-0.5-1.2-12.3-1.2-12.3L524.7,487.6z"/>
		<path class="st16" d="M541.5,501.8c0,0,1.6,1.6,3.3,8.6c1.1,4.4,3.3,8.6,7.1,11.8c0,0,0.9,6.6-18.6-3.7l-0.4-20.3L541.5,501.8z"/>
		<path class="st12" d="M554.2,503c-1.4,8.1-4.9,10.6-10.7,7.8c-5-2.3-8.6-6.6-11-11.2c-1.6,0.5-3.5-0.5-4.6-2.5
			c-1.3-2.3-1.1-5.1,0.6-6.3c0.4-0.3,0.8-0.4,1.2-0.5c-0.2-2.5,0-4.8,0.1-7.3c0.2-4.6,12.5-9.2,18-6.5
			C554.5,480.1,555.1,497.2,554.2,503z"/>
		<path class="st77" d="M534.1,485.2c-0.5,0.5,0.8,9-0.1,9.1c-0.9,0-4.3-3.8-4.3-3.8s-0.2-0.2-1.2,0.5s-1.3,1.9-1.3,1.9
			s-4.2-7.9-3.8-9.6c0.5-1.8,3.9-4.1,3.9-4.1s0.3-1.9,2.2-4.1c1.9-2.2,7.6-2.7,15.2-3.9c7.5-1.2,13,3.5,6.2,8.9
			C544.7,484.9,534.1,485.2,534.1,485.2z"/>
		<path class="st78" d="M539.6,515.1c5,1.6,4.6,6.9,12.2,7.1c0,0,8.5,12.3,10.6,16.5c3.6,7.3-3.5,11.9-4.3,16.5s-1.1,46.8,0.1,49.4
			c1.3,2.6-36.7-3.9-34.1-8.8c2.6-4.9,4.3-25.2,5.1-42.7s-1.5-24.1-0.5-30.6C529.6,516,533.5,513.2,539.6,515.1z"/>
		<path class="st77" d="M538.3,478.9c-1.1,1.3-3.1,5.6-0.3,16.5c2.7,10.9,0.5,18.4-5.5,25s-1.9,27.8-3.2,23.1s-11.6-12.3-8.1-23.8
			c3.4-11.5,5.2-17.4,3.5-20.2s-4.9-11.2-2.7-16c2.2-4.7,4.6-4.9,4.7-5.7c0.2-0.8,1.9-3.7,4.8-5.1c3-1.4,13.5-4.6,17.4-2.2
			c4,2.4,4.4,4.8,0.8,8C546.2,481.6,538.3,478.9,538.3,478.9z"/>
		<path class="st75" d="M520,746.7l-1.6,3.3c0,0,2.3,6,6.1,6.6s5-1.4,5-1.4l-2.1-5.5L520,746.7z"/>
		<path class="st34" d="M518.4,750c-1.2-0.1-3.4,5.3-2.7,6.8c1.9,0.5,3.8,1,5.8,1.5c0.4,0.1,0.8,0.2,1.1,0.3
			c3.3,0.9,11.1,3.1,13.7,3.6c2.6,0.5,7-0.3,3-2.5c-4-2.1-10.9-7.2-10.9-7.2C526.5,756.1,519.9,752.3,518.4,750z"/>
		<path class="st79" d="M544.3,523.9c0,0-3.6-7.6-9.5-3.7c-5.9,3.8,15.1,53,18.8,53S592,555,592,555l-2.4-4.9
			c0,0-33.2,12.8-33.5,10.8C555.7,559,544.3,523.9,544.3,523.9z"/>
		<path class="st73" d="M596,549.5c0,0-13.2-9.8-18.6-7.4l21.9-21.3c0,0,12-2.9,18.3,6.6L596,549.5z"/>
		<path class="st80" d="M617.6,527.4c0,0,11.9-6.1,19.1,4.1l-19.1,21.1c0,0-12.3-8.1-20.9-3.8L617.6,527.4z"/>
		<path class="st81" d="M617.6,527.4c0,0,8.6-7.1,15.4-4.2l-18.2,19.7c0,0-9.4-2-18.1,5.9L617.6,527.4z"/>
		<path class="st82" d="M596.7,548.8c0,0-7.1-8.3-14.6-8.7l20.5-20.2c0,0,10.5-2.2,15,7.6L596.7,548.8z"/>
		<path class="st83" d="M595.3,530.5V530c0,0,0,0,0.1,0c6.7,0,10,5.4,10,5.5l-0.4,0.3C604.9,535.7,601.7,530.5,595.3,530.5
			L595.3,530.5z"/>
		<path class="st83" d="M592.9,533.2v-0.5c0,0,0,0,0.1,0c6.7,0,10,5.4,10,5.5l-0.4,0.3C602.6,538.3,599.4,533.2,592.9,533.2
			C593,533.2,593,533.2,592.9,533.2z"/>
		<path class="st83" d="M600.4,540.8l-0.4,0.3c0-0.1-3.2-5.2-9.6-5.2c0,0,0,0-0.1,0v-0.5C597.1,535.3,600.4,540.7,600.4,540.8z"/>
		<path class="st12" d="M589.6,550.1c0.7-3.7,4.2-10.5,4.5-8.8c0.3,2.1,0.1,5.6,0,6.2s0.4,1.2,2.8,2l-0.3,2.4
			c-2.1,0.9-3.5,1.7-4.8,2.5C591.7,554.4,589.5,550.4,589.6,550.1z"/>
	</g>
</g>
<g>
	<path class="st84" d="M490,419.4h-46.8v52c0,8.2-5.2,15.6-12.7,17.9c-0.3,0.1-0.6,0.2-0.9,0.3c-0.6,0.2-1.3,0.2-2,0.3
		c-0.6,0.1-1.1,0.2-1.7,0.2c-0.7,0-1.3,0-2-0.1c-0.6,0-1.1-0.1-1.7-0.2c-0.6-0.1-1.3-0.3-1.9-0.5c-0.5-0.2-1-0.3-1.5-0.5
		c-0.6-0.2-1.2-0.6-1.7-0.9c-0.5-0.2-0.9-0.5-1.4-0.7c-0.5-0.4-1-0.8-1.5-1.2c-0.4-0.3-0.8-0.6-1.2-1c-0.5-0.5-0.9-1-1.3-1.5
		c-0.3-0.4-0.7-0.7-1-1.2c-0.4-0.6-0.7-1.2-1-1.8c-0.2-0.4-0.5-0.8-0.7-1.2c-0.3-0.7-0.5-1.5-0.7-2.2c-0.1-0.4-0.3-0.7-0.4-1.1
		c-0.2-1.2-0.4-2.4-0.4-3.6v-53h-24.2v17.5c0,5.8-4.7,10.5-10.5,10.5s-10.5-4.7-10.5-10.5v-17.5h-24.2v53.2c0,5.1-2.1,9.9-5.7,13.2
		c-0.1,0.1-0.2,0.2-0.3,0.2c-0.6,0.5-1.2,1-1.9,1.4c-0.6,0.4-1.3,0.8-2,1.1c-0.2,0.1-0.4,0.2-0.6,0.3c-1.2,0.5-2.5,0.8-3.9,1
		c-1,0.2-2,0.3-3,0.2c-0.5,0-0.9-0.1-1.4-0.1c-0.8-0.1-1.5-0.2-2.2-0.3c-0.5-0.1-0.9-0.3-1.4-0.4c-0.7-0.2-1.3-0.5-1.9-0.8
		c-0.4-0.2-0.9-0.4-1.3-0.7c-0.6-0.3-1.2-0.7-1.7-1.1c-0.4-0.3-0.8-0.6-1.1-0.9c-0.5-0.5-1-1-1.4-1.5c-0.3-0.4-0.6-0.7-0.9-1.1
		c-0.4-0.6-0.8-1.2-1.1-1.8c-0.2-0.4-0.5-0.8-0.6-1.2c-0.3-0.7-0.6-1.5-0.8-2.2c-0.1-0.4-0.3-0.7-0.4-1.1c-0.3-1.2-0.4-2.4-0.4-3.6
		v-53.8h-46.8C236.3,689,139.4,731,139.4,731v31.8h111.8v-46.6c0-7,5.7-12.7,12.7-12.7s12.7,5.7,12.7,12.7v46.6h14.5H304h33.9h24.2
		h21h24.2h35.5h12.9h14.5v-46.6c0-7,5.7-12.7,12.7-12.7s12.7,5.7,12.7,12.7v46.6h111.8V731C607.9,731,511,689,490,419.4z
		 M338.2,632.8h-33.9V532.3c0-7.8,5-14.9,12.1-17.1c0.3-0.1,0.6-0.2,0.9-0.3c0.6-0.2,1.2-0.2,1.9-0.3c0.5-0.1,1.1-0.1,1.6-0.2
		c0.6,0,1.3,0,1.9,0.1c0.5,0,1.1,0.1,1.6,0.2c0.6,0.1,1.2,0.3,1.8,0.5c0.5,0.1,1,0.3,1.5,0.5c0.6,0.2,1.1,0.5,1.6,0.8
		c0.4,0.2,0.9,0.4,1.3,0.7c0.5,0.3,1,0.7,1.5,1.1c0.4,0.3,0.8,0.6,1.1,0.9c0.5,0.4,0.8,0.9,1.2,1.4c0.3,0.4,0.6,0.7,0.9,1.1
		c0.4,0.5,0.7,1.1,1,1.7c0.2,0.4,0.5,0.8,0.6,1.2c0.3,0.7,0.5,1.4,0.7,2.1c0.1,0.4,0.3,0.7,0.3,1.1c0.2,1.1,0.4,2.3,0.4,3.5V632.8z
		 M383.4,632.8h-21V482.1c0-5.8,4.7-10.5,10.5-10.5s10.5,4.7,10.5,10.5V632.8z M443.2,632.8h-35.5v-99.7c0-8.2,5.2-15.6,12.7-17.9
		c0.3-0.1,0.6-0.2,0.9-0.3c0.6-0.2,1.3-0.2,2-0.3c0.6-0.1,1.1-0.2,1.7-0.2c0.7,0,1.3,0,2,0.1c0.6,0,1.1,0.1,1.7,0.2
		c0.6,0.1,1.3,0.3,1.9,0.5c0.5,0.2,1.1,0.3,1.5,0.5c0.6,0.2,1.1,0.6,1.7,0.9c0.5,0.2,0.9,0.5,1.4,0.8c0.5,0.4,1,0.8,1.5,1.2
		c0.4,0.3,0.8,0.6,1.2,1c0.5,0.5,0.9,1,1.3,1.5c0.3,0.4,0.7,0.7,0.9,1.1c0.4,0.6,0.7,1.2,1,1.8c0.2,0.4,0.5,0.8,0.7,1.2
		c0.3,0.7,0.5,1.5,0.7,2.2c0.1,0.4,0.3,0.7,0.4,1.1c0.2,1.2,0.4,2.4,0.4,3.6v100.7H443.2z"/>
	<path class="st85" d="M490,419.4h-46.8v213.5h-35.5V419.4h-24.2v213.5h-21V419.4h-24.2v213.5h-33.9V419.4h-46.8
		C236.6,689,139.7,731,139.7,731v31.8h111.8v-46.6c0-7,5.7-12.7,12.7-12.7s12.7,5.7,12.7,12.7v46.6h27.5v-79.2h33.9v79.2h24.2v-79.2
		h21v79.2h24.2v-79.2h35.5v79.2h27.5v-46.6c0-7,5.7-12.7,12.7-12.7s12.7,5.7,12.7,12.7v46.6h111.8V731C607.9,731,511,689,490,419.4z
		"/>
	<path class="st86" d="M490,419.4h-46.8v213.5h-35.5V419.4h-24.2v213.5h-9.7v50.8h9.7v79.2h24.2v-79.2h35.5v79.2h27.5v-46.6
		c0-7,5.7-12.7,12.7-12.7s12.7,5.7,12.7,12.7v46.6h111.8v-31.8C607.9,731,511,689,490,419.4z"/>
</g>
<g>
	<g>
		<rect x="30.3" y="558.2" class="st87" width="343.4" height="39.6"/>
		<rect x="202" y="558.2" class="st88" width="171.7" height="39.6"/>
		<rect x="163.3" y="510.9" class="st89" width="77.4" height="46.9"/>
		<rect x="153.9" y="542.4" class="st90" width="96.2" height="15.5"/>
		<polygon class="st87" points="30.3,597.8 30.3,762.8 104.2,762.8 104.2,637.5 133.3,637.5 133.3,762.8 159.4,762.8 159.4,637.5 
			244.7,637.5 244.7,762.8 270.7,762.8 270.7,637.5 299.9,637.5 299.9,762.8 373.7,762.8 373.7,597.8 		"/>
		<rect x="19.5" y="552.8" class="st91" width="365.1" height="10.7"/>
		<polygon class="st88" points="202,637.5 244.7,637.5 244.7,762.8 270.7,762.8 270.7,637.5 299.9,637.5 299.9,762.8 373.7,762.8 
			373.7,597.8 202,597.8 		"/>
		<rect x="143.8" y="571.5" class="st89" width="116.4" height="13"/>
		<rect x="19.5" y="592.5" class="st91" width="365.1" height="10.7"/>
		<polygon class="st84" points="202,531.6 181.6,542.4 185.5,519.6 169,503.5 191.8,500.2 202,479.5 212.2,500.2 235.1,503.5 
			218.6,519.6 222.5,542.4 		"/>
	</g>
</g>
<g>
	<rect x="61.3" y="370" class="st92" width="83.7" height="17.7"/>
	<rect x="61.3" y="387.6" class="st93" width="83.7" height="17.7"/>
	<rect x="61.3" y="405.3" class="st94" width="83.7" height="17.7"/>
	<rect x="103.2" y="370" class="st95" width="41.8" height="17.7"/>
	<rect x="103.2" y="387.6" class="st93" width="41.8" height="17.7"/>
	<rect x="103.2" y="387.6" class="st96" width="41.8" height="17.7"/>
	<rect x="103.2" y="405.3" class="st97" width="41.8" height="17.7"/>
	<polygon class="st84" points="103.2,400.7 98.9,403 99.7,398.3 96.3,394.9 101,394.2 103.2,389.9 105.3,394.2 110,394.9 
		106.6,398.3 107.4,403 	"/>
</g>
</svg>
